G04 #@! TF.GenerationSoftware,KiCad,Pcbnew,(5.1.10)-1*
G04 #@! TF.CreationDate,2021-11-19T12:31:30+00:00*
G04 #@! TF.ProjectId,Bus Ornament,42757320-4f72-46e6-916d-656e742e6b69,rev?*
G04 #@! TF.SameCoordinates,Original*
G04 #@! TF.FileFunction,Copper,L1,Top*
G04 #@! TF.FilePolarity,Positive*
%FSLAX46Y46*%
G04 Gerber Fmt 4.6, Leading zero omitted, Abs format (unit mm)*
G04 Created by KiCad (PCBNEW (5.1.10)-1) date 2021-11-19 12:31:30*
%MOMM*%
%LPD*%
G01*
G04 APERTURE LIST*
G04 #@! TA.AperFunction,EtchedComponent*
%ADD10C,0.010000*%
G04 #@! TD*
G04 #@! TA.AperFunction,ViaPad*
%ADD11C,1.600000*%
G04 #@! TD*
G04 #@! TA.AperFunction,ViaPad*
%ADD12C,0.800000*%
G04 #@! TD*
G04 APERTURE END LIST*
D10*
G36*
X159059293Y-125545321D02*
G01*
X159235147Y-125554156D01*
X159299176Y-125559372D01*
X159838926Y-125630581D01*
X160365678Y-125741197D01*
X160877772Y-125889840D01*
X161373550Y-126075130D01*
X161851351Y-126295689D01*
X162309517Y-126550136D01*
X162746387Y-126837092D01*
X163160303Y-127155176D01*
X163549605Y-127503010D01*
X163912634Y-127879213D01*
X164247729Y-128282406D01*
X164553232Y-128711209D01*
X164827483Y-129164243D01*
X165068824Y-129640128D01*
X165275593Y-130137484D01*
X165446132Y-130654931D01*
X165451808Y-130674733D01*
X165543771Y-131030400D01*
X165613577Y-131378462D01*
X165662728Y-131730104D01*
X165692722Y-132096509D01*
X165705059Y-132488862D01*
X165705530Y-132566834D01*
X165697124Y-132992941D01*
X165668714Y-133391402D01*
X165618653Y-133772717D01*
X165545291Y-134147388D01*
X165446980Y-134525915D01*
X165348615Y-134840502D01*
X165158445Y-135344273D01*
X164932276Y-135827487D01*
X164671865Y-136288738D01*
X164378964Y-136726621D01*
X164055331Y-137139729D01*
X163702719Y-137526658D01*
X163322883Y-137886003D01*
X162917579Y-138216356D01*
X162488562Y-138516314D01*
X162037586Y-138784471D01*
X161566407Y-139019421D01*
X161076779Y-139219758D01*
X160570457Y-139384078D01*
X160049197Y-139510975D01*
X159514754Y-139599042D01*
X159388288Y-139613859D01*
X159248551Y-139625840D01*
X159080065Y-139635334D01*
X158894085Y-139642137D01*
X158701869Y-139646047D01*
X158514674Y-139646863D01*
X158343757Y-139644380D01*
X158200375Y-139638396D01*
X158164447Y-139635891D01*
X157609683Y-139572673D01*
X157072804Y-139471245D01*
X156552676Y-139331214D01*
X156048162Y-139152189D01*
X155558126Y-138933779D01*
X155081432Y-138675591D01*
X154721983Y-138448916D01*
X154284130Y-138130469D01*
X153876268Y-137783424D01*
X153499194Y-137409840D01*
X153153704Y-137011776D01*
X152840595Y-136591289D01*
X152560663Y-136150439D01*
X152314707Y-135691285D01*
X152103521Y-135215885D01*
X151927904Y-134726299D01*
X151788652Y-134224583D01*
X151686561Y-133712798D01*
X151622429Y-133193002D01*
X151597053Y-132667253D01*
X151611227Y-132137611D01*
X151665750Y-131606134D01*
X151761420Y-131074880D01*
X151801436Y-130902892D01*
X151950869Y-130382102D01*
X152138303Y-129878258D01*
X152362243Y-129393067D01*
X152621194Y-128928236D01*
X152913662Y-128485473D01*
X153238150Y-128066485D01*
X153593165Y-127672979D01*
X153977212Y-127306665D01*
X154388795Y-126969247D01*
X154826419Y-126662436D01*
X155288590Y-126387937D01*
X155773814Y-126147458D01*
X156076650Y-126019713D01*
X156501827Y-125867110D01*
X156933969Y-125743479D01*
X157384769Y-125645701D01*
X157642983Y-125602108D01*
X157796783Y-125583049D01*
X157983042Y-125567218D01*
X158191991Y-125554869D01*
X158413860Y-125546252D01*
X158638880Y-125541621D01*
X158857281Y-125541226D01*
X159059293Y-125545321D01*
G37*
X159059293Y-125545321D02*
X159235147Y-125554156D01*
X159299176Y-125559372D01*
X159838926Y-125630581D01*
X160365678Y-125741197D01*
X160877772Y-125889840D01*
X161373550Y-126075130D01*
X161851351Y-126295689D01*
X162309517Y-126550136D01*
X162746387Y-126837092D01*
X163160303Y-127155176D01*
X163549605Y-127503010D01*
X163912634Y-127879213D01*
X164247729Y-128282406D01*
X164553232Y-128711209D01*
X164827483Y-129164243D01*
X165068824Y-129640128D01*
X165275593Y-130137484D01*
X165446132Y-130654931D01*
X165451808Y-130674733D01*
X165543771Y-131030400D01*
X165613577Y-131378462D01*
X165662728Y-131730104D01*
X165692722Y-132096509D01*
X165705059Y-132488862D01*
X165705530Y-132566834D01*
X165697124Y-132992941D01*
X165668714Y-133391402D01*
X165618653Y-133772717D01*
X165545291Y-134147388D01*
X165446980Y-134525915D01*
X165348615Y-134840502D01*
X165158445Y-135344273D01*
X164932276Y-135827487D01*
X164671865Y-136288738D01*
X164378964Y-136726621D01*
X164055331Y-137139729D01*
X163702719Y-137526658D01*
X163322883Y-137886003D01*
X162917579Y-138216356D01*
X162488562Y-138516314D01*
X162037586Y-138784471D01*
X161566407Y-139019421D01*
X161076779Y-139219758D01*
X160570457Y-139384078D01*
X160049197Y-139510975D01*
X159514754Y-139599042D01*
X159388288Y-139613859D01*
X159248551Y-139625840D01*
X159080065Y-139635334D01*
X158894085Y-139642137D01*
X158701869Y-139646047D01*
X158514674Y-139646863D01*
X158343757Y-139644380D01*
X158200375Y-139638396D01*
X158164447Y-139635891D01*
X157609683Y-139572673D01*
X157072804Y-139471245D01*
X156552676Y-139331214D01*
X156048162Y-139152189D01*
X155558126Y-138933779D01*
X155081432Y-138675591D01*
X154721983Y-138448916D01*
X154284130Y-138130469D01*
X153876268Y-137783424D01*
X153499194Y-137409840D01*
X153153704Y-137011776D01*
X152840595Y-136591289D01*
X152560663Y-136150439D01*
X152314707Y-135691285D01*
X152103521Y-135215885D01*
X151927904Y-134726299D01*
X151788652Y-134224583D01*
X151686561Y-133712798D01*
X151622429Y-133193002D01*
X151597053Y-132667253D01*
X151611227Y-132137611D01*
X151665750Y-131606134D01*
X151761420Y-131074880D01*
X151801436Y-130902892D01*
X151950869Y-130382102D01*
X152138303Y-129878258D01*
X152362243Y-129393067D01*
X152621194Y-128928236D01*
X152913662Y-128485473D01*
X153238150Y-128066485D01*
X153593165Y-127672979D01*
X153977212Y-127306665D01*
X154388795Y-126969247D01*
X154826419Y-126662436D01*
X155288590Y-126387937D01*
X155773814Y-126147458D01*
X156076650Y-126019713D01*
X156501827Y-125867110D01*
X156933969Y-125743479D01*
X157384769Y-125645701D01*
X157642983Y-125602108D01*
X157796783Y-125583049D01*
X157983042Y-125567218D01*
X158191991Y-125554869D01*
X158413860Y-125546252D01*
X158638880Y-125541621D01*
X158857281Y-125541226D01*
X159059293Y-125545321D01*
G36*
X89336293Y-125545321D02*
G01*
X89512147Y-125554156D01*
X89576176Y-125559372D01*
X90115926Y-125630581D01*
X90642678Y-125741197D01*
X91154772Y-125889840D01*
X91650550Y-126075130D01*
X92128351Y-126295689D01*
X92586517Y-126550136D01*
X93023387Y-126837092D01*
X93437303Y-127155176D01*
X93826605Y-127503010D01*
X94189634Y-127879213D01*
X94524729Y-128282406D01*
X94830232Y-128711209D01*
X95104483Y-129164243D01*
X95345824Y-129640128D01*
X95552593Y-130137484D01*
X95723132Y-130654931D01*
X95728808Y-130674733D01*
X95820771Y-131030400D01*
X95890577Y-131378462D01*
X95939728Y-131730104D01*
X95969722Y-132096509D01*
X95982059Y-132488862D01*
X95982530Y-132566834D01*
X95974124Y-132992941D01*
X95945714Y-133391402D01*
X95895653Y-133772717D01*
X95822291Y-134147388D01*
X95723980Y-134525915D01*
X95625615Y-134840502D01*
X95435445Y-135344273D01*
X95209276Y-135827487D01*
X94948865Y-136288738D01*
X94655964Y-136726621D01*
X94332331Y-137139729D01*
X93979719Y-137526658D01*
X93599883Y-137886003D01*
X93194579Y-138216356D01*
X92765562Y-138516314D01*
X92314586Y-138784471D01*
X91843407Y-139019421D01*
X91353779Y-139219758D01*
X90847457Y-139384078D01*
X90326197Y-139510975D01*
X89791754Y-139599042D01*
X89665288Y-139613859D01*
X89525551Y-139625840D01*
X89357065Y-139635334D01*
X89171085Y-139642137D01*
X88978869Y-139646047D01*
X88791674Y-139646863D01*
X88620757Y-139644380D01*
X88477375Y-139638396D01*
X88441447Y-139635891D01*
X87886683Y-139572673D01*
X87349804Y-139471245D01*
X86829676Y-139331214D01*
X86325162Y-139152189D01*
X85835126Y-138933779D01*
X85358432Y-138675591D01*
X84998983Y-138448916D01*
X84561130Y-138130469D01*
X84153268Y-137783424D01*
X83776194Y-137409840D01*
X83430704Y-137011776D01*
X83117595Y-136591289D01*
X82837663Y-136150439D01*
X82591707Y-135691285D01*
X82380521Y-135215885D01*
X82204904Y-134726299D01*
X82065652Y-134224583D01*
X81963561Y-133712798D01*
X81899429Y-133193002D01*
X81874053Y-132667253D01*
X81888227Y-132137611D01*
X81942750Y-131606134D01*
X82038420Y-131074880D01*
X82078436Y-130902892D01*
X82227869Y-130382102D01*
X82415303Y-129878258D01*
X82639243Y-129393067D01*
X82898194Y-128928236D01*
X83190662Y-128485473D01*
X83515150Y-128066485D01*
X83870165Y-127672979D01*
X84254212Y-127306665D01*
X84665795Y-126969247D01*
X85103419Y-126662436D01*
X85565590Y-126387937D01*
X86050814Y-126147458D01*
X86353650Y-126019713D01*
X86778827Y-125867110D01*
X87210969Y-125743479D01*
X87661769Y-125645701D01*
X87919983Y-125602108D01*
X88073783Y-125583049D01*
X88260042Y-125567218D01*
X88468991Y-125554869D01*
X88690860Y-125546252D01*
X88915880Y-125541621D01*
X89134281Y-125541226D01*
X89336293Y-125545321D01*
G37*
X89336293Y-125545321D02*
X89512147Y-125554156D01*
X89576176Y-125559372D01*
X90115926Y-125630581D01*
X90642678Y-125741197D01*
X91154772Y-125889840D01*
X91650550Y-126075130D01*
X92128351Y-126295689D01*
X92586517Y-126550136D01*
X93023387Y-126837092D01*
X93437303Y-127155176D01*
X93826605Y-127503010D01*
X94189634Y-127879213D01*
X94524729Y-128282406D01*
X94830232Y-128711209D01*
X95104483Y-129164243D01*
X95345824Y-129640128D01*
X95552593Y-130137484D01*
X95723132Y-130654931D01*
X95728808Y-130674733D01*
X95820771Y-131030400D01*
X95890577Y-131378462D01*
X95939728Y-131730104D01*
X95969722Y-132096509D01*
X95982059Y-132488862D01*
X95982530Y-132566834D01*
X95974124Y-132992941D01*
X95945714Y-133391402D01*
X95895653Y-133772717D01*
X95822291Y-134147388D01*
X95723980Y-134525915D01*
X95625615Y-134840502D01*
X95435445Y-135344273D01*
X95209276Y-135827487D01*
X94948865Y-136288738D01*
X94655964Y-136726621D01*
X94332331Y-137139729D01*
X93979719Y-137526658D01*
X93599883Y-137886003D01*
X93194579Y-138216356D01*
X92765562Y-138516314D01*
X92314586Y-138784471D01*
X91843407Y-139019421D01*
X91353779Y-139219758D01*
X90847457Y-139384078D01*
X90326197Y-139510975D01*
X89791754Y-139599042D01*
X89665288Y-139613859D01*
X89525551Y-139625840D01*
X89357065Y-139635334D01*
X89171085Y-139642137D01*
X88978869Y-139646047D01*
X88791674Y-139646863D01*
X88620757Y-139644380D01*
X88477375Y-139638396D01*
X88441447Y-139635891D01*
X87886683Y-139572673D01*
X87349804Y-139471245D01*
X86829676Y-139331214D01*
X86325162Y-139152189D01*
X85835126Y-138933779D01*
X85358432Y-138675591D01*
X84998983Y-138448916D01*
X84561130Y-138130469D01*
X84153268Y-137783424D01*
X83776194Y-137409840D01*
X83430704Y-137011776D01*
X83117595Y-136591289D01*
X82837663Y-136150439D01*
X82591707Y-135691285D01*
X82380521Y-135215885D01*
X82204904Y-134726299D01*
X82065652Y-134224583D01*
X81963561Y-133712798D01*
X81899429Y-133193002D01*
X81874053Y-132667253D01*
X81888227Y-132137611D01*
X81942750Y-131606134D01*
X82038420Y-131074880D01*
X82078436Y-130902892D01*
X82227869Y-130382102D01*
X82415303Y-129878258D01*
X82639243Y-129393067D01*
X82898194Y-128928236D01*
X83190662Y-128485473D01*
X83515150Y-128066485D01*
X83870165Y-127672979D01*
X84254212Y-127306665D01*
X84665795Y-126969247D01*
X85103419Y-126662436D01*
X85565590Y-126387937D01*
X86050814Y-126147458D01*
X86353650Y-126019713D01*
X86778827Y-125867110D01*
X87210969Y-125743479D01*
X87661769Y-125645701D01*
X87919983Y-125602108D01*
X88073783Y-125583049D01*
X88260042Y-125567218D01*
X88468991Y-125554869D01*
X88690860Y-125546252D01*
X88915880Y-125541621D01*
X89134281Y-125541226D01*
X89336293Y-125545321D01*
G36*
X69307142Y-97588928D02*
G01*
X69849771Y-97631708D01*
X70415838Y-97702038D01*
X71001536Y-97799311D01*
X71603055Y-97922917D01*
X72216587Y-98072249D01*
X72645644Y-98190172D01*
X72847781Y-98249173D01*
X73048070Y-98309504D01*
X73249352Y-98372197D01*
X73454470Y-98438284D01*
X73666265Y-98508798D01*
X73887580Y-98584772D01*
X74121258Y-98667237D01*
X74370139Y-98757225D01*
X74637066Y-98855770D01*
X74924882Y-98963903D01*
X75236428Y-99082657D01*
X75574546Y-99213064D01*
X75942079Y-99356157D01*
X76341869Y-99512967D01*
X76776757Y-99684527D01*
X76966233Y-99759515D01*
X77439184Y-99945490D01*
X77877033Y-100114764D01*
X78283053Y-100268504D01*
X78660519Y-100407880D01*
X79012705Y-100534059D01*
X79342885Y-100648210D01*
X79654334Y-100751502D01*
X79950324Y-100845103D01*
X80234131Y-100930181D01*
X80299983Y-100949228D01*
X80952677Y-101121974D01*
X81584127Y-101258951D01*
X82195683Y-101360184D01*
X82788700Y-101425702D01*
X83364528Y-101455532D01*
X83924520Y-101449702D01*
X84470028Y-101408239D01*
X85002405Y-101331170D01*
X85523003Y-101218523D01*
X86033174Y-101070326D01*
X86046733Y-101065860D01*
X86570416Y-100870854D01*
X87084065Y-100635645D01*
X87585193Y-100361684D01*
X88071312Y-100050422D01*
X88539938Y-99703311D01*
X88903008Y-99398627D01*
X88985371Y-99329327D01*
X89066863Y-99267059D01*
X89136505Y-99219901D01*
X89173377Y-99199735D01*
X89290309Y-99158263D01*
X89424850Y-99126948D01*
X89565977Y-99106819D01*
X89702669Y-99098910D01*
X89823905Y-99104252D01*
X89918662Y-99123876D01*
X89931496Y-99128769D01*
X89981334Y-99155574D01*
X90001739Y-99189522D01*
X90004900Y-99228527D01*
X89998531Y-99264685D01*
X89977223Y-99306388D01*
X89937675Y-99357140D01*
X89876585Y-99420444D01*
X89790652Y-99499805D01*
X89676573Y-99598726D01*
X89577671Y-99681930D01*
X89072224Y-100076250D01*
X88543823Y-100435719D01*
X87994435Y-100759709D01*
X87426025Y-101047589D01*
X86840560Y-101298731D01*
X86240009Y-101512504D01*
X85626336Y-101688279D01*
X85001509Y-101825427D01*
X84367495Y-101923318D01*
X83726260Y-101981322D01*
X83079771Y-101998810D01*
X82429995Y-101975153D01*
X82416650Y-101974233D01*
X81813130Y-101915916D01*
X81186616Y-101823351D01*
X80536848Y-101696479D01*
X79863566Y-101535241D01*
X79166511Y-101339576D01*
X78445422Y-101109426D01*
X78066900Y-100978243D01*
X77895355Y-100916903D01*
X77727713Y-100856172D01*
X77559940Y-100794492D01*
X77388000Y-100730308D01*
X77207856Y-100662064D01*
X77015472Y-100588205D01*
X76806814Y-100507174D01*
X76577846Y-100417416D01*
X76324531Y-100317376D01*
X76042834Y-100205496D01*
X75728719Y-100080223D01*
X75495150Y-99986834D01*
X75156106Y-99851436D01*
X74852071Y-99730663D01*
X74578928Y-99622969D01*
X74332563Y-99526806D01*
X74108861Y-99440629D01*
X73903706Y-99362890D01*
X73712985Y-99292043D01*
X73532581Y-99226541D01*
X73358381Y-99164837D01*
X73186268Y-99105385D01*
X73012128Y-99046639D01*
X72858172Y-98995686D01*
X72282689Y-98814140D01*
X71731868Y-98656206D01*
X71196703Y-98519838D01*
X70668187Y-98402987D01*
X70137311Y-98303606D01*
X69595069Y-98219649D01*
X69240400Y-98173368D01*
X69090472Y-98158792D01*
X68912220Y-98147469D01*
X68713534Y-98139398D01*
X68502308Y-98134583D01*
X68286435Y-98133023D01*
X68073807Y-98134720D01*
X67872316Y-98139676D01*
X67689855Y-98147891D01*
X67534317Y-98159368D01*
X67420066Y-98173075D01*
X67127325Y-98226029D01*
X66835099Y-98293943D01*
X66537827Y-98378693D01*
X66229948Y-98482155D01*
X65905900Y-98606206D01*
X65560122Y-98752721D01*
X65187051Y-98923578D01*
X65165816Y-98933630D01*
X65030600Y-98997437D01*
X64900343Y-99058349D01*
X64782556Y-99112896D01*
X64684751Y-99157607D01*
X64614438Y-99189012D01*
X64594716Y-99197482D01*
X64476064Y-99240356D01*
X64351595Y-99273686D01*
X64233656Y-99294992D01*
X64134598Y-99301797D01*
X64091984Y-99298352D01*
X64007325Y-99270440D01*
X63938439Y-99222531D01*
X63895113Y-99163115D01*
X63885233Y-99119009D01*
X63895566Y-99062583D01*
X63929194Y-99008290D01*
X63990060Y-98952784D01*
X64082108Y-98892723D01*
X64209281Y-98824760D01*
X64263568Y-98798126D01*
X64838793Y-98532199D01*
X65391813Y-98300196D01*
X65924904Y-98101504D01*
X66440338Y-97935507D01*
X66940390Y-97801591D01*
X67427334Y-97699142D01*
X67903442Y-97627545D01*
X68370990Y-97586186D01*
X68791761Y-97574309D01*
X69307142Y-97588928D01*
G37*
X69307142Y-97588928D02*
X69849771Y-97631708D01*
X70415838Y-97702038D01*
X71001536Y-97799311D01*
X71603055Y-97922917D01*
X72216587Y-98072249D01*
X72645644Y-98190172D01*
X72847781Y-98249173D01*
X73048070Y-98309504D01*
X73249352Y-98372197D01*
X73454470Y-98438284D01*
X73666265Y-98508798D01*
X73887580Y-98584772D01*
X74121258Y-98667237D01*
X74370139Y-98757225D01*
X74637066Y-98855770D01*
X74924882Y-98963903D01*
X75236428Y-99082657D01*
X75574546Y-99213064D01*
X75942079Y-99356157D01*
X76341869Y-99512967D01*
X76776757Y-99684527D01*
X76966233Y-99759515D01*
X77439184Y-99945490D01*
X77877033Y-100114764D01*
X78283053Y-100268504D01*
X78660519Y-100407880D01*
X79012705Y-100534059D01*
X79342885Y-100648210D01*
X79654334Y-100751502D01*
X79950324Y-100845103D01*
X80234131Y-100930181D01*
X80299983Y-100949228D01*
X80952677Y-101121974D01*
X81584127Y-101258951D01*
X82195683Y-101360184D01*
X82788700Y-101425702D01*
X83364528Y-101455532D01*
X83924520Y-101449702D01*
X84470028Y-101408239D01*
X85002405Y-101331170D01*
X85523003Y-101218523D01*
X86033174Y-101070326D01*
X86046733Y-101065860D01*
X86570416Y-100870854D01*
X87084065Y-100635645D01*
X87585193Y-100361684D01*
X88071312Y-100050422D01*
X88539938Y-99703311D01*
X88903008Y-99398627D01*
X88985371Y-99329327D01*
X89066863Y-99267059D01*
X89136505Y-99219901D01*
X89173377Y-99199735D01*
X89290309Y-99158263D01*
X89424850Y-99126948D01*
X89565977Y-99106819D01*
X89702669Y-99098910D01*
X89823905Y-99104252D01*
X89918662Y-99123876D01*
X89931496Y-99128769D01*
X89981334Y-99155574D01*
X90001739Y-99189522D01*
X90004900Y-99228527D01*
X89998531Y-99264685D01*
X89977223Y-99306388D01*
X89937675Y-99357140D01*
X89876585Y-99420444D01*
X89790652Y-99499805D01*
X89676573Y-99598726D01*
X89577671Y-99681930D01*
X89072224Y-100076250D01*
X88543823Y-100435719D01*
X87994435Y-100759709D01*
X87426025Y-101047589D01*
X86840560Y-101298731D01*
X86240009Y-101512504D01*
X85626336Y-101688279D01*
X85001509Y-101825427D01*
X84367495Y-101923318D01*
X83726260Y-101981322D01*
X83079771Y-101998810D01*
X82429995Y-101975153D01*
X82416650Y-101974233D01*
X81813130Y-101915916D01*
X81186616Y-101823351D01*
X80536848Y-101696479D01*
X79863566Y-101535241D01*
X79166511Y-101339576D01*
X78445422Y-101109426D01*
X78066900Y-100978243D01*
X77895355Y-100916903D01*
X77727713Y-100856172D01*
X77559940Y-100794492D01*
X77388000Y-100730308D01*
X77207856Y-100662064D01*
X77015472Y-100588205D01*
X76806814Y-100507174D01*
X76577846Y-100417416D01*
X76324531Y-100317376D01*
X76042834Y-100205496D01*
X75728719Y-100080223D01*
X75495150Y-99986834D01*
X75156106Y-99851436D01*
X74852071Y-99730663D01*
X74578928Y-99622969D01*
X74332563Y-99526806D01*
X74108861Y-99440629D01*
X73903706Y-99362890D01*
X73712985Y-99292043D01*
X73532581Y-99226541D01*
X73358381Y-99164837D01*
X73186268Y-99105385D01*
X73012128Y-99046639D01*
X72858172Y-98995686D01*
X72282689Y-98814140D01*
X71731868Y-98656206D01*
X71196703Y-98519838D01*
X70668187Y-98402987D01*
X70137311Y-98303606D01*
X69595069Y-98219649D01*
X69240400Y-98173368D01*
X69090472Y-98158792D01*
X68912220Y-98147469D01*
X68713534Y-98139398D01*
X68502308Y-98134583D01*
X68286435Y-98133023D01*
X68073807Y-98134720D01*
X67872316Y-98139676D01*
X67689855Y-98147891D01*
X67534317Y-98159368D01*
X67420066Y-98173075D01*
X67127325Y-98226029D01*
X66835099Y-98293943D01*
X66537827Y-98378693D01*
X66229948Y-98482155D01*
X65905900Y-98606206D01*
X65560122Y-98752721D01*
X65187051Y-98923578D01*
X65165816Y-98933630D01*
X65030600Y-98997437D01*
X64900343Y-99058349D01*
X64782556Y-99112896D01*
X64684751Y-99157607D01*
X64614438Y-99189012D01*
X64594716Y-99197482D01*
X64476064Y-99240356D01*
X64351595Y-99273686D01*
X64233656Y-99294992D01*
X64134598Y-99301797D01*
X64091984Y-99298352D01*
X64007325Y-99270440D01*
X63938439Y-99222531D01*
X63895113Y-99163115D01*
X63885233Y-99119009D01*
X63895566Y-99062583D01*
X63929194Y-99008290D01*
X63990060Y-98952784D01*
X64082108Y-98892723D01*
X64209281Y-98824760D01*
X64263568Y-98798126D01*
X64838793Y-98532199D01*
X65391813Y-98300196D01*
X65924904Y-98101504D01*
X66440338Y-97935507D01*
X66940390Y-97801591D01*
X67427334Y-97699142D01*
X67903442Y-97627545D01*
X68370990Y-97586186D01*
X68791761Y-97574309D01*
X69307142Y-97588928D01*
G36*
X93327007Y-96064582D02*
G01*
X93448732Y-96114112D01*
X93595056Y-96209356D01*
X93728206Y-96344036D01*
X93847867Y-96517259D01*
X93953725Y-96728127D01*
X94045467Y-96975747D01*
X94122778Y-97259222D01*
X94185343Y-97577656D01*
X94232849Y-97930155D01*
X94264982Y-98315823D01*
X94272741Y-98462939D01*
X94286917Y-98777090D01*
X94432509Y-98413720D01*
X94576338Y-98070943D01*
X94716733Y-97769033D01*
X94853581Y-97508150D01*
X94986769Y-97288455D01*
X95116182Y-97110108D01*
X95241708Y-96973270D01*
X95363231Y-96878102D01*
X95480639Y-96824763D01*
X95567492Y-96812298D01*
X95679174Y-96829245D01*
X95777617Y-96881114D01*
X95863122Y-96968674D01*
X95935991Y-97092692D01*
X95996526Y-97253937D01*
X96045027Y-97453177D01*
X96081797Y-97691179D01*
X96107137Y-97968713D01*
X96119321Y-98217881D01*
X96132650Y-98618246D01*
X96245966Y-98313131D01*
X96367393Y-97999615D01*
X96488392Y-97713483D01*
X96607814Y-97456868D01*
X96724507Y-97231902D01*
X96837323Y-97040718D01*
X96945111Y-96885446D01*
X97046722Y-96768220D01*
X97108625Y-96713654D01*
X97204656Y-96663489D01*
X97303169Y-96653069D01*
X97397279Y-96680855D01*
X97480100Y-96745307D01*
X97524976Y-96806743D01*
X97538048Y-96828712D01*
X97547184Y-96848087D01*
X97551519Y-96870628D01*
X97550186Y-96902096D01*
X97542322Y-96948251D01*
X97527059Y-97014853D01*
X97503532Y-97107664D01*
X97470877Y-97232444D01*
X97447842Y-97320100D01*
X97397894Y-97525748D01*
X97352170Y-97747634D01*
X97309113Y-97994072D01*
X97267164Y-98273377D01*
X97261379Y-98314933D01*
X97251558Y-98413708D01*
X97243747Y-98551477D01*
X97238055Y-98724944D01*
X97234594Y-98930813D01*
X97233472Y-99151016D01*
X97233666Y-99336838D01*
X97234587Y-99486767D01*
X97236594Y-99607245D01*
X97240042Y-99704710D01*
X97245289Y-99785603D01*
X97252693Y-99856364D01*
X97262611Y-99923432D01*
X97275401Y-99993247D01*
X97282053Y-100026612D01*
X97352051Y-100302505D01*
X97443071Y-100543765D01*
X97554705Y-100749714D01*
X97686541Y-100919676D01*
X97838169Y-101052970D01*
X97942569Y-101117235D01*
X98049219Y-101179511D01*
X98117440Y-101234467D01*
X98149986Y-101284595D01*
X98153742Y-101308414D01*
X98135702Y-101374091D01*
X98086179Y-101418049D01*
X98010383Y-101439688D01*
X97913523Y-101438404D01*
X97800807Y-101413596D01*
X97677444Y-101364661D01*
X97675446Y-101363695D01*
X97478769Y-101245176D01*
X97306573Y-101092432D01*
X97159110Y-100905953D01*
X97036636Y-100686232D01*
X96939404Y-100433757D01*
X96867668Y-100149021D01*
X96821682Y-99832515D01*
X96810142Y-99690766D01*
X96804950Y-99507606D01*
X96809915Y-99290579D01*
X96824346Y-99046740D01*
X96847551Y-98783144D01*
X96878841Y-98506843D01*
X96917524Y-98224891D01*
X96962909Y-97944344D01*
X97001690Y-97735230D01*
X97025104Y-97613355D01*
X97044762Y-97505563D01*
X97059479Y-97418819D01*
X97068069Y-97360088D01*
X97069510Y-97336680D01*
X97056076Y-97337731D01*
X97029125Y-97373289D01*
X96990885Y-97438563D01*
X96943583Y-97528764D01*
X96889448Y-97639100D01*
X96830706Y-97764782D01*
X96769586Y-97901020D01*
X96708316Y-98043023D01*
X96649123Y-98186002D01*
X96594235Y-98325167D01*
X96545879Y-98455726D01*
X96535940Y-98483965D01*
X96478137Y-98663162D01*
X96419534Y-98868979D01*
X96361489Y-99094590D01*
X96305364Y-99333167D01*
X96252518Y-99577883D01*
X96204312Y-99821910D01*
X96162105Y-100058421D01*
X96127257Y-100280588D01*
X96101128Y-100481585D01*
X96085079Y-100654583D01*
X96080393Y-100770848D01*
X96072986Y-100857761D01*
X96053893Y-100922616D01*
X96046698Y-100935011D01*
X95989693Y-100989797D01*
X95913993Y-101030294D01*
X95842659Y-101045354D01*
X95773289Y-101028267D01*
X95700952Y-100984565D01*
X95642036Y-100925284D01*
X95625677Y-100899253D01*
X95611113Y-100856277D01*
X95600957Y-100790368D01*
X95595233Y-100698813D01*
X95593961Y-100578901D01*
X95597165Y-100427920D01*
X95604865Y-100243159D01*
X95617084Y-100021905D01*
X95633844Y-99761447D01*
X95635051Y-99743683D01*
X95647438Y-99536621D01*
X95657778Y-99312618D01*
X95666015Y-99077890D01*
X95672092Y-98838650D01*
X95675951Y-98601114D01*
X95677536Y-98371496D01*
X95676789Y-98156010D01*
X95673654Y-97960871D01*
X95668072Y-97792294D01*
X95659989Y-97656493D01*
X95654723Y-97600406D01*
X95631486Y-97434614D01*
X95603187Y-97310263D01*
X95569485Y-97226724D01*
X95530037Y-97183369D01*
X95484501Y-97179568D01*
X95440584Y-97207119D01*
X95373793Y-97281845D01*
X95297941Y-97392361D01*
X95215408Y-97533699D01*
X95128577Y-97700892D01*
X95039829Y-97888972D01*
X94951546Y-98092972D01*
X94866109Y-98307925D01*
X94785899Y-98528862D01*
X94737786Y-98673043D01*
X94673543Y-98883079D01*
X94609448Y-99111872D01*
X94546707Y-99353608D01*
X94486528Y-99602476D01*
X94430119Y-99852661D01*
X94378689Y-100098352D01*
X94333444Y-100333734D01*
X94295594Y-100552996D01*
X94266345Y-100750324D01*
X94246906Y-100919904D01*
X94238484Y-101055925D01*
X94238229Y-101077183D01*
X94229845Y-101210864D01*
X94202540Y-101316329D01*
X94152257Y-101404997D01*
X94100998Y-101463405D01*
X94043283Y-101516307D01*
X93997007Y-101543446D01*
X93947534Y-101552411D01*
X93928810Y-101552683D01*
X93860351Y-101544851D01*
X93801501Y-101526687D01*
X93796063Y-101523895D01*
X93748407Y-101486736D01*
X93715085Y-101433264D01*
X93695673Y-101359094D01*
X93689747Y-101259839D01*
X93696882Y-101131114D01*
X93716654Y-100968533D01*
X93732373Y-100865516D01*
X93749290Y-100730806D01*
X93763285Y-100559441D01*
X93774384Y-100356999D01*
X93782611Y-100129054D01*
X93787991Y-99881184D01*
X93790549Y-99618966D01*
X93790310Y-99347974D01*
X93787299Y-99073786D01*
X93781541Y-98801978D01*
X93773061Y-98538126D01*
X93761883Y-98287807D01*
X93748033Y-98056597D01*
X93731536Y-97850072D01*
X93718320Y-97722266D01*
X93675203Y-97407491D01*
X93623454Y-97132256D01*
X93563194Y-96896906D01*
X93494542Y-96701782D01*
X93417620Y-96547229D01*
X93332546Y-96433589D01*
X93243400Y-96363351D01*
X93148729Y-96334201D01*
X93035501Y-96337672D01*
X92911387Y-96373155D01*
X92866411Y-96393212D01*
X92753064Y-96465376D01*
X92631264Y-96573366D01*
X92504736Y-96712464D01*
X92377206Y-96877954D01*
X92252399Y-97065117D01*
X92134043Y-97269237D01*
X92059130Y-97415350D01*
X91970313Y-97606942D01*
X91901128Y-97778693D01*
X91846505Y-97945139D01*
X91801374Y-98120819D01*
X91782330Y-98209100D01*
X91764112Y-98304902D01*
X91751995Y-98390494D01*
X91745220Y-98477702D01*
X91743031Y-98578351D01*
X91744668Y-98704268D01*
X91746386Y-98770016D01*
X91754183Y-98943205D01*
X91767634Y-99082006D01*
X91788364Y-99194175D01*
X91818001Y-99287465D01*
X91858170Y-99369631D01*
X91879291Y-99403788D01*
X91903025Y-99452826D01*
X91898236Y-99497041D01*
X91891721Y-99512744D01*
X91851747Y-99560716D01*
X91790020Y-99597643D01*
X91724970Y-99614187D01*
X91696372Y-99611746D01*
X91654649Y-99584854D01*
X91601362Y-99527198D01*
X91542309Y-99446624D01*
X91483286Y-99350976D01*
X91434200Y-99256850D01*
X91349972Y-99032747D01*
X91303941Y-98795297D01*
X91296182Y-98543830D01*
X91326766Y-98277675D01*
X91395768Y-97996161D01*
X91503260Y-97698618D01*
X91635524Y-97411506D01*
X91768541Y-97162819D01*
X91901610Y-96946489D01*
X92041362Y-96753053D01*
X92194428Y-96573049D01*
X92300793Y-96462172D01*
X92484484Y-96295053D01*
X92661052Y-96168900D01*
X92832041Y-96083246D01*
X92998999Y-96037620D01*
X93163472Y-96031555D01*
X93327007Y-96064582D01*
G37*
X93327007Y-96064582D02*
X93448732Y-96114112D01*
X93595056Y-96209356D01*
X93728206Y-96344036D01*
X93847867Y-96517259D01*
X93953725Y-96728127D01*
X94045467Y-96975747D01*
X94122778Y-97259222D01*
X94185343Y-97577656D01*
X94232849Y-97930155D01*
X94264982Y-98315823D01*
X94272741Y-98462939D01*
X94286917Y-98777090D01*
X94432509Y-98413720D01*
X94576338Y-98070943D01*
X94716733Y-97769033D01*
X94853581Y-97508150D01*
X94986769Y-97288455D01*
X95116182Y-97110108D01*
X95241708Y-96973270D01*
X95363231Y-96878102D01*
X95480639Y-96824763D01*
X95567492Y-96812298D01*
X95679174Y-96829245D01*
X95777617Y-96881114D01*
X95863122Y-96968674D01*
X95935991Y-97092692D01*
X95996526Y-97253937D01*
X96045027Y-97453177D01*
X96081797Y-97691179D01*
X96107137Y-97968713D01*
X96119321Y-98217881D01*
X96132650Y-98618246D01*
X96245966Y-98313131D01*
X96367393Y-97999615D01*
X96488392Y-97713483D01*
X96607814Y-97456868D01*
X96724507Y-97231902D01*
X96837323Y-97040718D01*
X96945111Y-96885446D01*
X97046722Y-96768220D01*
X97108625Y-96713654D01*
X97204656Y-96663489D01*
X97303169Y-96653069D01*
X97397279Y-96680855D01*
X97480100Y-96745307D01*
X97524976Y-96806743D01*
X97538048Y-96828712D01*
X97547184Y-96848087D01*
X97551519Y-96870628D01*
X97550186Y-96902096D01*
X97542322Y-96948251D01*
X97527059Y-97014853D01*
X97503532Y-97107664D01*
X97470877Y-97232444D01*
X97447842Y-97320100D01*
X97397894Y-97525748D01*
X97352170Y-97747634D01*
X97309113Y-97994072D01*
X97267164Y-98273377D01*
X97261379Y-98314933D01*
X97251558Y-98413708D01*
X97243747Y-98551477D01*
X97238055Y-98724944D01*
X97234594Y-98930813D01*
X97233472Y-99151016D01*
X97233666Y-99336838D01*
X97234587Y-99486767D01*
X97236594Y-99607245D01*
X97240042Y-99704710D01*
X97245289Y-99785603D01*
X97252693Y-99856364D01*
X97262611Y-99923432D01*
X97275401Y-99993247D01*
X97282053Y-100026612D01*
X97352051Y-100302505D01*
X97443071Y-100543765D01*
X97554705Y-100749714D01*
X97686541Y-100919676D01*
X97838169Y-101052970D01*
X97942569Y-101117235D01*
X98049219Y-101179511D01*
X98117440Y-101234467D01*
X98149986Y-101284595D01*
X98153742Y-101308414D01*
X98135702Y-101374091D01*
X98086179Y-101418049D01*
X98010383Y-101439688D01*
X97913523Y-101438404D01*
X97800807Y-101413596D01*
X97677444Y-101364661D01*
X97675446Y-101363695D01*
X97478769Y-101245176D01*
X97306573Y-101092432D01*
X97159110Y-100905953D01*
X97036636Y-100686232D01*
X96939404Y-100433757D01*
X96867668Y-100149021D01*
X96821682Y-99832515D01*
X96810142Y-99690766D01*
X96804950Y-99507606D01*
X96809915Y-99290579D01*
X96824346Y-99046740D01*
X96847551Y-98783144D01*
X96878841Y-98506843D01*
X96917524Y-98224891D01*
X96962909Y-97944344D01*
X97001690Y-97735230D01*
X97025104Y-97613355D01*
X97044762Y-97505563D01*
X97059479Y-97418819D01*
X97068069Y-97360088D01*
X97069510Y-97336680D01*
X97056076Y-97337731D01*
X97029125Y-97373289D01*
X96990885Y-97438563D01*
X96943583Y-97528764D01*
X96889448Y-97639100D01*
X96830706Y-97764782D01*
X96769586Y-97901020D01*
X96708316Y-98043023D01*
X96649123Y-98186002D01*
X96594235Y-98325167D01*
X96545879Y-98455726D01*
X96535940Y-98483965D01*
X96478137Y-98663162D01*
X96419534Y-98868979D01*
X96361489Y-99094590D01*
X96305364Y-99333167D01*
X96252518Y-99577883D01*
X96204312Y-99821910D01*
X96162105Y-100058421D01*
X96127257Y-100280588D01*
X96101128Y-100481585D01*
X96085079Y-100654583D01*
X96080393Y-100770848D01*
X96072986Y-100857761D01*
X96053893Y-100922616D01*
X96046698Y-100935011D01*
X95989693Y-100989797D01*
X95913993Y-101030294D01*
X95842659Y-101045354D01*
X95773289Y-101028267D01*
X95700952Y-100984565D01*
X95642036Y-100925284D01*
X95625677Y-100899253D01*
X95611113Y-100856277D01*
X95600957Y-100790368D01*
X95595233Y-100698813D01*
X95593961Y-100578901D01*
X95597165Y-100427920D01*
X95604865Y-100243159D01*
X95617084Y-100021905D01*
X95633844Y-99761447D01*
X95635051Y-99743683D01*
X95647438Y-99536621D01*
X95657778Y-99312618D01*
X95666015Y-99077890D01*
X95672092Y-98838650D01*
X95675951Y-98601114D01*
X95677536Y-98371496D01*
X95676789Y-98156010D01*
X95673654Y-97960871D01*
X95668072Y-97792294D01*
X95659989Y-97656493D01*
X95654723Y-97600406D01*
X95631486Y-97434614D01*
X95603187Y-97310263D01*
X95569485Y-97226724D01*
X95530037Y-97183369D01*
X95484501Y-97179568D01*
X95440584Y-97207119D01*
X95373793Y-97281845D01*
X95297941Y-97392361D01*
X95215408Y-97533699D01*
X95128577Y-97700892D01*
X95039829Y-97888972D01*
X94951546Y-98092972D01*
X94866109Y-98307925D01*
X94785899Y-98528862D01*
X94737786Y-98673043D01*
X94673543Y-98883079D01*
X94609448Y-99111872D01*
X94546707Y-99353608D01*
X94486528Y-99602476D01*
X94430119Y-99852661D01*
X94378689Y-100098352D01*
X94333444Y-100333734D01*
X94295594Y-100552996D01*
X94266345Y-100750324D01*
X94246906Y-100919904D01*
X94238484Y-101055925D01*
X94238229Y-101077183D01*
X94229845Y-101210864D01*
X94202540Y-101316329D01*
X94152257Y-101404997D01*
X94100998Y-101463405D01*
X94043283Y-101516307D01*
X93997007Y-101543446D01*
X93947534Y-101552411D01*
X93928810Y-101552683D01*
X93860351Y-101544851D01*
X93801501Y-101526687D01*
X93796063Y-101523895D01*
X93748407Y-101486736D01*
X93715085Y-101433264D01*
X93695673Y-101359094D01*
X93689747Y-101259839D01*
X93696882Y-101131114D01*
X93716654Y-100968533D01*
X93732373Y-100865516D01*
X93749290Y-100730806D01*
X93763285Y-100559441D01*
X93774384Y-100356999D01*
X93782611Y-100129054D01*
X93787991Y-99881184D01*
X93790549Y-99618966D01*
X93790310Y-99347974D01*
X93787299Y-99073786D01*
X93781541Y-98801978D01*
X93773061Y-98538126D01*
X93761883Y-98287807D01*
X93748033Y-98056597D01*
X93731536Y-97850072D01*
X93718320Y-97722266D01*
X93675203Y-97407491D01*
X93623454Y-97132256D01*
X93563194Y-96896906D01*
X93494542Y-96701782D01*
X93417620Y-96547229D01*
X93332546Y-96433589D01*
X93243400Y-96363351D01*
X93148729Y-96334201D01*
X93035501Y-96337672D01*
X92911387Y-96373155D01*
X92866411Y-96393212D01*
X92753064Y-96465376D01*
X92631264Y-96573366D01*
X92504736Y-96712464D01*
X92377206Y-96877954D01*
X92252399Y-97065117D01*
X92134043Y-97269237D01*
X92059130Y-97415350D01*
X91970313Y-97606942D01*
X91901128Y-97778693D01*
X91846505Y-97945139D01*
X91801374Y-98120819D01*
X91782330Y-98209100D01*
X91764112Y-98304902D01*
X91751995Y-98390494D01*
X91745220Y-98477702D01*
X91743031Y-98578351D01*
X91744668Y-98704268D01*
X91746386Y-98770016D01*
X91754183Y-98943205D01*
X91767634Y-99082006D01*
X91788364Y-99194175D01*
X91818001Y-99287465D01*
X91858170Y-99369631D01*
X91879291Y-99403788D01*
X91903025Y-99452826D01*
X91898236Y-99497041D01*
X91891721Y-99512744D01*
X91851747Y-99560716D01*
X91790020Y-99597643D01*
X91724970Y-99614187D01*
X91696372Y-99611746D01*
X91654649Y-99584854D01*
X91601362Y-99527198D01*
X91542309Y-99446624D01*
X91483286Y-99350976D01*
X91434200Y-99256850D01*
X91349972Y-99032747D01*
X91303941Y-98795297D01*
X91296182Y-98543830D01*
X91326766Y-98277675D01*
X91395768Y-97996161D01*
X91503260Y-97698618D01*
X91635524Y-97411506D01*
X91768541Y-97162819D01*
X91901610Y-96946489D01*
X92041362Y-96753053D01*
X92194428Y-96573049D01*
X92300793Y-96462172D01*
X92484484Y-96295053D01*
X92661052Y-96168900D01*
X92832041Y-96083246D01*
X92998999Y-96037620D01*
X93163472Y-96031555D01*
X93327007Y-96064582D01*
G36*
X100914961Y-98430549D02*
G01*
X100989021Y-98475555D01*
X101047513Y-98554343D01*
X101071847Y-98630069D01*
X101083114Y-98729283D01*
X101081368Y-98835221D01*
X101066662Y-98931123D01*
X101046122Y-98988380D01*
X101022679Y-99051279D01*
X101015183Y-99110644D01*
X101015588Y-99115380D01*
X101034159Y-99158630D01*
X101079288Y-99178487D01*
X101154187Y-99175412D01*
X101260315Y-99150377D01*
X101335235Y-99123194D01*
X101400771Y-99084540D01*
X101471160Y-99025186D01*
X101506947Y-98990524D01*
X101569596Y-98931213D01*
X101625051Y-98883941D01*
X101663627Y-98856817D01*
X101670138Y-98853920D01*
X101721194Y-98856049D01*
X101783698Y-98882487D01*
X101841824Y-98925166D01*
X101867531Y-98954522D01*
X101891123Y-99002180D01*
X101897941Y-99059651D01*
X101887165Y-99134478D01*
X101857980Y-99234210D01*
X101828204Y-99317421D01*
X101767401Y-99486242D01*
X101722683Y-99628269D01*
X101691830Y-99754881D01*
X101672623Y-99877453D01*
X101662841Y-100007363D01*
X101660263Y-100155988D01*
X101660343Y-100177600D01*
X101662657Y-100319397D01*
X101668568Y-100430479D01*
X101679220Y-100522393D01*
X101695754Y-100606687D01*
X101707333Y-100652365D01*
X101766029Y-100827625D01*
X101835674Y-100962571D01*
X101914805Y-101057361D01*
X102001959Y-101112153D01*
X102095674Y-101127106D01*
X102194487Y-101102378D01*
X102296935Y-101038126D01*
X102401555Y-100934511D01*
X102506885Y-100791689D01*
X102611461Y-100609820D01*
X102640705Y-100551311D01*
X102758734Y-100292024D01*
X102861143Y-100030438D01*
X102954192Y-99750005D01*
X102991900Y-99622923D01*
X103065322Y-99367833D01*
X103001527Y-99240169D01*
X102961852Y-99149222D01*
X102942527Y-99067812D01*
X102937733Y-98979096D01*
X102950947Y-98840655D01*
X102987804Y-98714446D01*
X103044124Y-98605247D01*
X103115727Y-98517836D01*
X103198434Y-98456993D01*
X103288065Y-98427496D01*
X103380442Y-98434125D01*
X103406434Y-98443190D01*
X103468209Y-98490210D01*
X103514204Y-98567781D01*
X103542689Y-98666518D01*
X103551931Y-98777038D01*
X103540199Y-98889955D01*
X103507669Y-98991740D01*
X103477162Y-99080315D01*
X103478628Y-99141348D01*
X103512147Y-99175133D01*
X103558711Y-99182766D01*
X103619519Y-99176602D01*
X103698021Y-99160854D01*
X103743516Y-99148753D01*
X103810814Y-99123979D01*
X103870192Y-99088550D01*
X103934018Y-99033907D01*
X103988178Y-98979420D01*
X104048844Y-98918838D01*
X104100431Y-98872270D01*
X104134870Y-98846801D01*
X104142316Y-98844100D01*
X104215682Y-98861729D01*
X104288108Y-98906977D01*
X104342376Y-98968384D01*
X104349836Y-98982221D01*
X104368737Y-99025629D01*
X104375031Y-99060983D01*
X104367815Y-99102661D01*
X104346187Y-99165038D01*
X104336819Y-99189766D01*
X104236754Y-99479307D01*
X104167002Y-99745202D01*
X104126988Y-99992755D01*
X104116138Y-100227270D01*
X104133879Y-100454051D01*
X104176786Y-100667531D01*
X104233359Y-100839788D01*
X104302363Y-100971873D01*
X104382188Y-101063549D01*
X104471224Y-101114582D01*
X104567862Y-101124735D01*
X104670490Y-101093774D01*
X104777500Y-101021463D01*
X104887280Y-100907566D01*
X104977149Y-100784631D01*
X105091077Y-100611516D01*
X105060731Y-100389266D01*
X105049474Y-100278326D01*
X105041749Y-100142107D01*
X105037409Y-99988323D01*
X105036307Y-99824683D01*
X105038297Y-99658899D01*
X105043233Y-99498682D01*
X105050967Y-99351743D01*
X105061354Y-99225795D01*
X105074247Y-99128547D01*
X105085633Y-99078574D01*
X105111291Y-99005708D01*
X105137945Y-98943374D01*
X105151851Y-98917794D01*
X105213267Y-98859924D01*
X105296934Y-98828883D01*
X105390542Y-98827055D01*
X105477798Y-98854717D01*
X105516985Y-98882689D01*
X105545263Y-98923867D01*
X105563725Y-98983963D01*
X105573461Y-99068689D01*
X105575564Y-99183757D01*
X105571125Y-99334879D01*
X105570838Y-99341516D01*
X105567857Y-99466912D01*
X105568207Y-99618855D01*
X105571500Y-99788336D01*
X105577349Y-99966344D01*
X105585367Y-100143869D01*
X105595166Y-100311899D01*
X105606359Y-100461424D01*
X105618560Y-100583435D01*
X105626774Y-100643266D01*
X105664872Y-100824998D01*
X105713878Y-100965952D01*
X105773767Y-101066065D01*
X105786950Y-101081075D01*
X105830459Y-101122256D01*
X105871709Y-101143215D01*
X105928169Y-101150592D01*
X105971621Y-101151266D01*
X106047499Y-101147599D01*
X106100227Y-101132445D01*
X106148662Y-101099575D01*
X106161567Y-101088512D01*
X106242630Y-100994967D01*
X106317243Y-100864651D01*
X106383264Y-100702905D01*
X106438549Y-100515073D01*
X106480953Y-100306495D01*
X106484598Y-100283433D01*
X106495048Y-100202986D01*
X106502261Y-100114673D01*
X106506406Y-100011552D01*
X106507653Y-99886681D01*
X106506170Y-99733119D01*
X106502356Y-99553183D01*
X106498486Y-99347753D01*
X106498524Y-99178539D01*
X106503103Y-99039548D01*
X106512858Y-98924789D01*
X106528420Y-98828271D01*
X106550424Y-98744002D01*
X106579503Y-98665991D01*
X106601162Y-98618553D01*
X106662405Y-98531902D01*
X106740219Y-98479749D01*
X106826612Y-98462114D01*
X106913593Y-98479014D01*
X106993170Y-98530468D01*
X107057352Y-98616496D01*
X107057861Y-98617477D01*
X107077114Y-98688051D01*
X107081719Y-98793378D01*
X107071960Y-98928597D01*
X107048121Y-99088850D01*
X107022946Y-99214516D01*
X106982026Y-99404885D01*
X106950561Y-99563654D01*
X106927560Y-99700246D01*
X106912030Y-99824087D01*
X106902979Y-99944598D01*
X106899415Y-100071205D01*
X106900346Y-100213330D01*
X106903733Y-100346933D01*
X106909059Y-100493690D01*
X106916039Y-100643891D01*
X106924227Y-100791328D01*
X106933180Y-100929794D01*
X106942453Y-101053080D01*
X106951601Y-101154978D01*
X106960180Y-101229281D01*
X106967745Y-101269779D01*
X106970191Y-101274947D01*
X106993674Y-101271190D01*
X107043265Y-101248091D01*
X107110472Y-101210698D01*
X107186804Y-101164057D01*
X107263767Y-101113216D01*
X107332870Y-101063224D01*
X107352761Y-101047563D01*
X107454101Y-100956770D01*
X107546537Y-100853601D01*
X107635543Y-100730637D01*
X107726594Y-100580462D01*
X107805301Y-100434361D01*
X107861829Y-100326865D01*
X107904132Y-100251759D01*
X107936306Y-100203266D01*
X107962443Y-100175612D01*
X107986639Y-100163021D01*
X107999402Y-100160556D01*
X108056267Y-100173225D01*
X108105100Y-100217546D01*
X108137085Y-100282845D01*
X108144733Y-100336517D01*
X108134399Y-100386701D01*
X108106046Y-100465026D01*
X108063648Y-100563460D01*
X108011178Y-100673972D01*
X107952611Y-100788531D01*
X107891919Y-100899105D01*
X107833076Y-100997662D01*
X107780057Y-101076172D01*
X107776289Y-101081210D01*
X107613138Y-101262579D01*
X107421099Y-101413653D01*
X107202693Y-101532512D01*
X107156810Y-101551950D01*
X107012316Y-101610484D01*
X107012143Y-102052917D01*
X107011941Y-102200767D01*
X107010935Y-102313872D01*
X107008329Y-102399822D01*
X107003326Y-102466204D01*
X106995132Y-102520608D01*
X106982950Y-102570623D01*
X106965983Y-102623836D01*
X106946424Y-102679447D01*
X106849575Y-102904912D01*
X106729824Y-103104965D01*
X106590406Y-103275558D01*
X106434558Y-103412640D01*
X106290417Y-103500364D01*
X106201951Y-103540312D01*
X106125897Y-103563442D01*
X106041449Y-103574905D01*
X105975150Y-103578435D01*
X105836757Y-103576028D01*
X105732289Y-103557031D01*
X105715505Y-103551377D01*
X105618354Y-103499731D01*
X105518989Y-103420371D01*
X105429862Y-103325296D01*
X105363422Y-103226506D01*
X105350474Y-103199567D01*
X105301135Y-103032872D01*
X105296125Y-102941184D01*
X105669798Y-102941184D01*
X105672787Y-103001218D01*
X105684062Y-103044928D01*
X105705802Y-103085227D01*
X105714492Y-103098291D01*
X105790739Y-103178187D01*
X105883032Y-103219373D01*
X105989226Y-103221363D01*
X106102150Y-103185996D01*
X106181257Y-103135697D01*
X106265810Y-103059171D01*
X106343839Y-102968779D01*
X106403372Y-102876878D01*
X106405424Y-102872906D01*
X106453910Y-102757520D01*
X106498188Y-102614172D01*
X106534352Y-102457231D01*
X106556766Y-102315988D01*
X106568651Y-102196305D01*
X106575587Y-102080627D01*
X106577573Y-101976902D01*
X106574603Y-101893081D01*
X106566676Y-101837111D01*
X106556977Y-101817858D01*
X106521347Y-101818552D01*
X106461398Y-101844086D01*
X106383312Y-101889946D01*
X106293272Y-101951615D01*
X106197459Y-102024577D01*
X106102054Y-102104315D01*
X106013240Y-102186314D01*
X105937198Y-102266057D01*
X105926483Y-102278477D01*
X105813752Y-102427320D01*
X105736403Y-102569219D01*
X105690536Y-102712998D01*
X105672915Y-102851912D01*
X105669798Y-102941184D01*
X105296125Y-102941184D01*
X105291465Y-102855935D01*
X105320817Y-102671426D01*
X105388545Y-102482018D01*
X105494003Y-102290383D01*
X105608507Y-102133050D01*
X105739659Y-101990708D01*
X105901510Y-101846430D01*
X106083627Y-101708307D01*
X106275581Y-101584428D01*
X106412725Y-101509253D01*
X106536066Y-101446990D01*
X106535396Y-101304420D01*
X106534725Y-101161850D01*
X106488917Y-101225350D01*
X106368737Y-101362075D01*
X106234167Y-101461423D01*
X106088560Y-101522359D01*
X105935269Y-101543853D01*
X105777646Y-101524872D01*
X105655313Y-101481970D01*
X105515989Y-101397816D01*
X105389594Y-101280954D01*
X105286057Y-101140903D01*
X105269701Y-101112296D01*
X105208008Y-100999243D01*
X105112864Y-101122880D01*
X104976481Y-101281890D01*
X104842820Y-101399665D01*
X104709784Y-101477029D01*
X104575274Y-101514803D01*
X104437193Y-101513811D01*
X104293443Y-101474876D01*
X104255875Y-101459086D01*
X104113806Y-101373195D01*
X103985254Y-101251545D01*
X103874370Y-101099658D01*
X103785304Y-100923058D01*
X103730392Y-100759683D01*
X103698523Y-100590201D01*
X103683565Y-100394216D01*
X103685137Y-100183867D01*
X103702860Y-99971294D01*
X103736353Y-99768634D01*
X103765051Y-99652658D01*
X103784227Y-99582868D01*
X103796744Y-99531913D01*
X103799979Y-99510498D01*
X103799897Y-99510419D01*
X103778085Y-99509952D01*
X103723150Y-99511241D01*
X103644255Y-99514025D01*
X103580602Y-99516682D01*
X103366221Y-99526149D01*
X103319843Y-99687833D01*
X103266581Y-99854725D01*
X103198315Y-100039648D01*
X103118773Y-100234573D01*
X103031678Y-100431472D01*
X102940759Y-100622320D01*
X102849741Y-100799088D01*
X102762349Y-100953749D01*
X102682311Y-101078275D01*
X102660539Y-101108226D01*
X102528911Y-101266171D01*
X102401190Y-101384182D01*
X102274539Y-101464117D01*
X102146118Y-101507834D01*
X102034857Y-101517928D01*
X101877528Y-101495204D01*
X101730480Y-101433510D01*
X101596349Y-101335512D01*
X101477768Y-101203876D01*
X101377371Y-101041270D01*
X101297791Y-100850358D01*
X101264931Y-100738516D01*
X101231589Y-100550664D01*
X101218761Y-100337664D01*
X101226016Y-100111161D01*
X101252925Y-99882797D01*
X101299059Y-99664215D01*
X101305441Y-99640724D01*
X101345889Y-99495432D01*
X101268686Y-99508200D01*
X101206036Y-99514984D01*
X101121311Y-99519704D01*
X101047944Y-99521200D01*
X100957313Y-99525218D01*
X100907469Y-99537011D01*
X100896781Y-99547891D01*
X100824130Y-99781384D01*
X100741374Y-100015002D01*
X100651140Y-100243156D01*
X100556060Y-100460259D01*
X100458762Y-100660722D01*
X100361877Y-100838956D01*
X100268034Y-100989374D01*
X100179862Y-101106387D01*
X100146006Y-101143364D01*
X99976485Y-101293540D01*
X99800570Y-101404277D01*
X99611987Y-101478468D01*
X99404461Y-101519008D01*
X99315436Y-101526411D01*
X99154169Y-101528594D01*
X99015935Y-101513326D01*
X98883929Y-101477475D01*
X98746733Y-101420446D01*
X98590281Y-101324597D01*
X98449583Y-101193635D01*
X98328522Y-101033082D01*
X98230984Y-100848463D01*
X98160852Y-100645298D01*
X98141261Y-100559658D01*
X98113634Y-100331084D01*
X98113873Y-100082237D01*
X98132213Y-99900661D01*
X98631772Y-99900661D01*
X98633110Y-99942758D01*
X98642156Y-99967980D01*
X98658815Y-99982498D01*
X98669190Y-99987354D01*
X98747825Y-99997826D01*
X98836719Y-99973552D01*
X98916066Y-99925053D01*
X98991388Y-99846274D01*
X99055656Y-99741030D01*
X99107971Y-99616406D01*
X99147430Y-99479488D01*
X99173133Y-99337363D01*
X99184178Y-99197116D01*
X99179664Y-99065835D01*
X99158691Y-98950604D01*
X99120356Y-98858511D01*
X99063759Y-98796640D01*
X99059892Y-98794126D01*
X99015277Y-98788160D01*
X98966104Y-98820090D01*
X98914231Y-98885970D01*
X98861518Y-98981851D01*
X98809824Y-99103788D01*
X98761008Y-99247831D01*
X98716930Y-99410033D01*
X98679449Y-99586448D01*
X98674945Y-99611427D01*
X98652595Y-99741166D01*
X98638235Y-99835521D01*
X98631772Y-99900661D01*
X98132213Y-99900661D01*
X98140065Y-99822935D01*
X98190297Y-99562991D01*
X98262654Y-99312222D01*
X98355225Y-99080443D01*
X98466094Y-98877470D01*
X98470564Y-98870575D01*
X98585696Y-98719154D01*
X98708798Y-98602161D01*
X98836353Y-98519992D01*
X98964848Y-98473040D01*
X99090765Y-98461701D01*
X99210590Y-98486371D01*
X99320807Y-98547444D01*
X99417901Y-98645315D01*
X99486812Y-98756385D01*
X99554688Y-98937764D01*
X99586490Y-99135023D01*
X99582451Y-99342273D01*
X99542805Y-99553627D01*
X99467785Y-99763195D01*
X99444950Y-99811745D01*
X99338695Y-99989966D01*
X99214370Y-100130699D01*
X99072626Y-100233457D01*
X98914115Y-100297753D01*
X98762608Y-100322051D01*
X98690093Y-100327057D01*
X98645617Y-100336955D01*
X98624972Y-100359740D01*
X98623948Y-100403411D01*
X98638338Y-100475966D01*
X98651705Y-100532808D01*
X98697532Y-100682658D01*
X98762202Y-100808583D01*
X98855035Y-100927907D01*
X98877091Y-100951754D01*
X98989622Y-101052256D01*
X99108061Y-101117532D01*
X99243063Y-101152085D01*
X99371150Y-101160641D01*
X99509630Y-101150818D01*
X99632907Y-101116762D01*
X99749921Y-101054266D01*
X99869612Y-100959124D01*
X99936616Y-100894607D01*
X100007803Y-100818209D01*
X100065774Y-100743665D01*
X100119035Y-100658354D01*
X100176091Y-100549659D01*
X100194607Y-100511869D01*
X100282322Y-100317639D01*
X100369021Y-100101550D01*
X100448797Y-99879665D01*
X100515743Y-99668050D01*
X100547354Y-99552465D01*
X100595822Y-99361248D01*
X100540664Y-99245549D01*
X100507178Y-99164821D01*
X100480969Y-99082950D01*
X100471670Y-99040847D01*
X100469867Y-98919038D01*
X100496174Y-98787370D01*
X100546376Y-98663319D01*
X100573815Y-98617332D01*
X100656889Y-98516805D01*
X100744421Y-98451769D01*
X100831936Y-98422818D01*
X100914961Y-98430549D01*
G37*
X100914961Y-98430549D02*
X100989021Y-98475555D01*
X101047513Y-98554343D01*
X101071847Y-98630069D01*
X101083114Y-98729283D01*
X101081368Y-98835221D01*
X101066662Y-98931123D01*
X101046122Y-98988380D01*
X101022679Y-99051279D01*
X101015183Y-99110644D01*
X101015588Y-99115380D01*
X101034159Y-99158630D01*
X101079288Y-99178487D01*
X101154187Y-99175412D01*
X101260315Y-99150377D01*
X101335235Y-99123194D01*
X101400771Y-99084540D01*
X101471160Y-99025186D01*
X101506947Y-98990524D01*
X101569596Y-98931213D01*
X101625051Y-98883941D01*
X101663627Y-98856817D01*
X101670138Y-98853920D01*
X101721194Y-98856049D01*
X101783698Y-98882487D01*
X101841824Y-98925166D01*
X101867531Y-98954522D01*
X101891123Y-99002180D01*
X101897941Y-99059651D01*
X101887165Y-99134478D01*
X101857980Y-99234210D01*
X101828204Y-99317421D01*
X101767401Y-99486242D01*
X101722683Y-99628269D01*
X101691830Y-99754881D01*
X101672623Y-99877453D01*
X101662841Y-100007363D01*
X101660263Y-100155988D01*
X101660343Y-100177600D01*
X101662657Y-100319397D01*
X101668568Y-100430479D01*
X101679220Y-100522393D01*
X101695754Y-100606687D01*
X101707333Y-100652365D01*
X101766029Y-100827625D01*
X101835674Y-100962571D01*
X101914805Y-101057361D01*
X102001959Y-101112153D01*
X102095674Y-101127106D01*
X102194487Y-101102378D01*
X102296935Y-101038126D01*
X102401555Y-100934511D01*
X102506885Y-100791689D01*
X102611461Y-100609820D01*
X102640705Y-100551311D01*
X102758734Y-100292024D01*
X102861143Y-100030438D01*
X102954192Y-99750005D01*
X102991900Y-99622923D01*
X103065322Y-99367833D01*
X103001527Y-99240169D01*
X102961852Y-99149222D01*
X102942527Y-99067812D01*
X102937733Y-98979096D01*
X102950947Y-98840655D01*
X102987804Y-98714446D01*
X103044124Y-98605247D01*
X103115727Y-98517836D01*
X103198434Y-98456993D01*
X103288065Y-98427496D01*
X103380442Y-98434125D01*
X103406434Y-98443190D01*
X103468209Y-98490210D01*
X103514204Y-98567781D01*
X103542689Y-98666518D01*
X103551931Y-98777038D01*
X103540199Y-98889955D01*
X103507669Y-98991740D01*
X103477162Y-99080315D01*
X103478628Y-99141348D01*
X103512147Y-99175133D01*
X103558711Y-99182766D01*
X103619519Y-99176602D01*
X103698021Y-99160854D01*
X103743516Y-99148753D01*
X103810814Y-99123979D01*
X103870192Y-99088550D01*
X103934018Y-99033907D01*
X103988178Y-98979420D01*
X104048844Y-98918838D01*
X104100431Y-98872270D01*
X104134870Y-98846801D01*
X104142316Y-98844100D01*
X104215682Y-98861729D01*
X104288108Y-98906977D01*
X104342376Y-98968384D01*
X104349836Y-98982221D01*
X104368737Y-99025629D01*
X104375031Y-99060983D01*
X104367815Y-99102661D01*
X104346187Y-99165038D01*
X104336819Y-99189766D01*
X104236754Y-99479307D01*
X104167002Y-99745202D01*
X104126988Y-99992755D01*
X104116138Y-100227270D01*
X104133879Y-100454051D01*
X104176786Y-100667531D01*
X104233359Y-100839788D01*
X104302363Y-100971873D01*
X104382188Y-101063549D01*
X104471224Y-101114582D01*
X104567862Y-101124735D01*
X104670490Y-101093774D01*
X104777500Y-101021463D01*
X104887280Y-100907566D01*
X104977149Y-100784631D01*
X105091077Y-100611516D01*
X105060731Y-100389266D01*
X105049474Y-100278326D01*
X105041749Y-100142107D01*
X105037409Y-99988323D01*
X105036307Y-99824683D01*
X105038297Y-99658899D01*
X105043233Y-99498682D01*
X105050967Y-99351743D01*
X105061354Y-99225795D01*
X105074247Y-99128547D01*
X105085633Y-99078574D01*
X105111291Y-99005708D01*
X105137945Y-98943374D01*
X105151851Y-98917794D01*
X105213267Y-98859924D01*
X105296934Y-98828883D01*
X105390542Y-98827055D01*
X105477798Y-98854717D01*
X105516985Y-98882689D01*
X105545263Y-98923867D01*
X105563725Y-98983963D01*
X105573461Y-99068689D01*
X105575564Y-99183757D01*
X105571125Y-99334879D01*
X105570838Y-99341516D01*
X105567857Y-99466912D01*
X105568207Y-99618855D01*
X105571500Y-99788336D01*
X105577349Y-99966344D01*
X105585367Y-100143869D01*
X105595166Y-100311899D01*
X105606359Y-100461424D01*
X105618560Y-100583435D01*
X105626774Y-100643266D01*
X105664872Y-100824998D01*
X105713878Y-100965952D01*
X105773767Y-101066065D01*
X105786950Y-101081075D01*
X105830459Y-101122256D01*
X105871709Y-101143215D01*
X105928169Y-101150592D01*
X105971621Y-101151266D01*
X106047499Y-101147599D01*
X106100227Y-101132445D01*
X106148662Y-101099575D01*
X106161567Y-101088512D01*
X106242630Y-100994967D01*
X106317243Y-100864651D01*
X106383264Y-100702905D01*
X106438549Y-100515073D01*
X106480953Y-100306495D01*
X106484598Y-100283433D01*
X106495048Y-100202986D01*
X106502261Y-100114673D01*
X106506406Y-100011552D01*
X106507653Y-99886681D01*
X106506170Y-99733119D01*
X106502356Y-99553183D01*
X106498486Y-99347753D01*
X106498524Y-99178539D01*
X106503103Y-99039548D01*
X106512858Y-98924789D01*
X106528420Y-98828271D01*
X106550424Y-98744002D01*
X106579503Y-98665991D01*
X106601162Y-98618553D01*
X106662405Y-98531902D01*
X106740219Y-98479749D01*
X106826612Y-98462114D01*
X106913593Y-98479014D01*
X106993170Y-98530468D01*
X107057352Y-98616496D01*
X107057861Y-98617477D01*
X107077114Y-98688051D01*
X107081719Y-98793378D01*
X107071960Y-98928597D01*
X107048121Y-99088850D01*
X107022946Y-99214516D01*
X106982026Y-99404885D01*
X106950561Y-99563654D01*
X106927560Y-99700246D01*
X106912030Y-99824087D01*
X106902979Y-99944598D01*
X106899415Y-100071205D01*
X106900346Y-100213330D01*
X106903733Y-100346933D01*
X106909059Y-100493690D01*
X106916039Y-100643891D01*
X106924227Y-100791328D01*
X106933180Y-100929794D01*
X106942453Y-101053080D01*
X106951601Y-101154978D01*
X106960180Y-101229281D01*
X106967745Y-101269779D01*
X106970191Y-101274947D01*
X106993674Y-101271190D01*
X107043265Y-101248091D01*
X107110472Y-101210698D01*
X107186804Y-101164057D01*
X107263767Y-101113216D01*
X107332870Y-101063224D01*
X107352761Y-101047563D01*
X107454101Y-100956770D01*
X107546537Y-100853601D01*
X107635543Y-100730637D01*
X107726594Y-100580462D01*
X107805301Y-100434361D01*
X107861829Y-100326865D01*
X107904132Y-100251759D01*
X107936306Y-100203266D01*
X107962443Y-100175612D01*
X107986639Y-100163021D01*
X107999402Y-100160556D01*
X108056267Y-100173225D01*
X108105100Y-100217546D01*
X108137085Y-100282845D01*
X108144733Y-100336517D01*
X108134399Y-100386701D01*
X108106046Y-100465026D01*
X108063648Y-100563460D01*
X108011178Y-100673972D01*
X107952611Y-100788531D01*
X107891919Y-100899105D01*
X107833076Y-100997662D01*
X107780057Y-101076172D01*
X107776289Y-101081210D01*
X107613138Y-101262579D01*
X107421099Y-101413653D01*
X107202693Y-101532512D01*
X107156810Y-101551950D01*
X107012316Y-101610484D01*
X107012143Y-102052917D01*
X107011941Y-102200767D01*
X107010935Y-102313872D01*
X107008329Y-102399822D01*
X107003326Y-102466204D01*
X106995132Y-102520608D01*
X106982950Y-102570623D01*
X106965983Y-102623836D01*
X106946424Y-102679447D01*
X106849575Y-102904912D01*
X106729824Y-103104965D01*
X106590406Y-103275558D01*
X106434558Y-103412640D01*
X106290417Y-103500364D01*
X106201951Y-103540312D01*
X106125897Y-103563442D01*
X106041449Y-103574905D01*
X105975150Y-103578435D01*
X105836757Y-103576028D01*
X105732289Y-103557031D01*
X105715505Y-103551377D01*
X105618354Y-103499731D01*
X105518989Y-103420371D01*
X105429862Y-103325296D01*
X105363422Y-103226506D01*
X105350474Y-103199567D01*
X105301135Y-103032872D01*
X105296125Y-102941184D01*
X105669798Y-102941184D01*
X105672787Y-103001218D01*
X105684062Y-103044928D01*
X105705802Y-103085227D01*
X105714492Y-103098291D01*
X105790739Y-103178187D01*
X105883032Y-103219373D01*
X105989226Y-103221363D01*
X106102150Y-103185996D01*
X106181257Y-103135697D01*
X106265810Y-103059171D01*
X106343839Y-102968779D01*
X106403372Y-102876878D01*
X106405424Y-102872906D01*
X106453910Y-102757520D01*
X106498188Y-102614172D01*
X106534352Y-102457231D01*
X106556766Y-102315988D01*
X106568651Y-102196305D01*
X106575587Y-102080627D01*
X106577573Y-101976902D01*
X106574603Y-101893081D01*
X106566676Y-101837111D01*
X106556977Y-101817858D01*
X106521347Y-101818552D01*
X106461398Y-101844086D01*
X106383312Y-101889946D01*
X106293272Y-101951615D01*
X106197459Y-102024577D01*
X106102054Y-102104315D01*
X106013240Y-102186314D01*
X105937198Y-102266057D01*
X105926483Y-102278477D01*
X105813752Y-102427320D01*
X105736403Y-102569219D01*
X105690536Y-102712998D01*
X105672915Y-102851912D01*
X105669798Y-102941184D01*
X105296125Y-102941184D01*
X105291465Y-102855935D01*
X105320817Y-102671426D01*
X105388545Y-102482018D01*
X105494003Y-102290383D01*
X105608507Y-102133050D01*
X105739659Y-101990708D01*
X105901510Y-101846430D01*
X106083627Y-101708307D01*
X106275581Y-101584428D01*
X106412725Y-101509253D01*
X106536066Y-101446990D01*
X106535396Y-101304420D01*
X106534725Y-101161850D01*
X106488917Y-101225350D01*
X106368737Y-101362075D01*
X106234167Y-101461423D01*
X106088560Y-101522359D01*
X105935269Y-101543853D01*
X105777646Y-101524872D01*
X105655313Y-101481970D01*
X105515989Y-101397816D01*
X105389594Y-101280954D01*
X105286057Y-101140903D01*
X105269701Y-101112296D01*
X105208008Y-100999243D01*
X105112864Y-101122880D01*
X104976481Y-101281890D01*
X104842820Y-101399665D01*
X104709784Y-101477029D01*
X104575274Y-101514803D01*
X104437193Y-101513811D01*
X104293443Y-101474876D01*
X104255875Y-101459086D01*
X104113806Y-101373195D01*
X103985254Y-101251545D01*
X103874370Y-101099658D01*
X103785304Y-100923058D01*
X103730392Y-100759683D01*
X103698523Y-100590201D01*
X103683565Y-100394216D01*
X103685137Y-100183867D01*
X103702860Y-99971294D01*
X103736353Y-99768634D01*
X103765051Y-99652658D01*
X103784227Y-99582868D01*
X103796744Y-99531913D01*
X103799979Y-99510498D01*
X103799897Y-99510419D01*
X103778085Y-99509952D01*
X103723150Y-99511241D01*
X103644255Y-99514025D01*
X103580602Y-99516682D01*
X103366221Y-99526149D01*
X103319843Y-99687833D01*
X103266581Y-99854725D01*
X103198315Y-100039648D01*
X103118773Y-100234573D01*
X103031678Y-100431472D01*
X102940759Y-100622320D01*
X102849741Y-100799088D01*
X102762349Y-100953749D01*
X102682311Y-101078275D01*
X102660539Y-101108226D01*
X102528911Y-101266171D01*
X102401190Y-101384182D01*
X102274539Y-101464117D01*
X102146118Y-101507834D01*
X102034857Y-101517928D01*
X101877528Y-101495204D01*
X101730480Y-101433510D01*
X101596349Y-101335512D01*
X101477768Y-101203876D01*
X101377371Y-101041270D01*
X101297791Y-100850358D01*
X101264931Y-100738516D01*
X101231589Y-100550664D01*
X101218761Y-100337664D01*
X101226016Y-100111161D01*
X101252925Y-99882797D01*
X101299059Y-99664215D01*
X101305441Y-99640724D01*
X101345889Y-99495432D01*
X101268686Y-99508200D01*
X101206036Y-99514984D01*
X101121311Y-99519704D01*
X101047944Y-99521200D01*
X100957313Y-99525218D01*
X100907469Y-99537011D01*
X100896781Y-99547891D01*
X100824130Y-99781384D01*
X100741374Y-100015002D01*
X100651140Y-100243156D01*
X100556060Y-100460259D01*
X100458762Y-100660722D01*
X100361877Y-100838956D01*
X100268034Y-100989374D01*
X100179862Y-101106387D01*
X100146006Y-101143364D01*
X99976485Y-101293540D01*
X99800570Y-101404277D01*
X99611987Y-101478468D01*
X99404461Y-101519008D01*
X99315436Y-101526411D01*
X99154169Y-101528594D01*
X99015935Y-101513326D01*
X98883929Y-101477475D01*
X98746733Y-101420446D01*
X98590281Y-101324597D01*
X98449583Y-101193635D01*
X98328522Y-101033082D01*
X98230984Y-100848463D01*
X98160852Y-100645298D01*
X98141261Y-100559658D01*
X98113634Y-100331084D01*
X98113873Y-100082237D01*
X98132213Y-99900661D01*
X98631772Y-99900661D01*
X98633110Y-99942758D01*
X98642156Y-99967980D01*
X98658815Y-99982498D01*
X98669190Y-99987354D01*
X98747825Y-99997826D01*
X98836719Y-99973552D01*
X98916066Y-99925053D01*
X98991388Y-99846274D01*
X99055656Y-99741030D01*
X99107971Y-99616406D01*
X99147430Y-99479488D01*
X99173133Y-99337363D01*
X99184178Y-99197116D01*
X99179664Y-99065835D01*
X99158691Y-98950604D01*
X99120356Y-98858511D01*
X99063759Y-98796640D01*
X99059892Y-98794126D01*
X99015277Y-98788160D01*
X98966104Y-98820090D01*
X98914231Y-98885970D01*
X98861518Y-98981851D01*
X98809824Y-99103788D01*
X98761008Y-99247831D01*
X98716930Y-99410033D01*
X98679449Y-99586448D01*
X98674945Y-99611427D01*
X98652595Y-99741166D01*
X98638235Y-99835521D01*
X98631772Y-99900661D01*
X98132213Y-99900661D01*
X98140065Y-99822935D01*
X98190297Y-99562991D01*
X98262654Y-99312222D01*
X98355225Y-99080443D01*
X98466094Y-98877470D01*
X98470564Y-98870575D01*
X98585696Y-98719154D01*
X98708798Y-98602161D01*
X98836353Y-98519992D01*
X98964848Y-98473040D01*
X99090765Y-98461701D01*
X99210590Y-98486371D01*
X99320807Y-98547444D01*
X99417901Y-98645315D01*
X99486812Y-98756385D01*
X99554688Y-98937764D01*
X99586490Y-99135023D01*
X99582451Y-99342273D01*
X99542805Y-99553627D01*
X99467785Y-99763195D01*
X99444950Y-99811745D01*
X99338695Y-99989966D01*
X99214370Y-100130699D01*
X99072626Y-100233457D01*
X98914115Y-100297753D01*
X98762608Y-100322051D01*
X98690093Y-100327057D01*
X98645617Y-100336955D01*
X98624972Y-100359740D01*
X98623948Y-100403411D01*
X98638338Y-100475966D01*
X98651705Y-100532808D01*
X98697532Y-100682658D01*
X98762202Y-100808583D01*
X98855035Y-100927907D01*
X98877091Y-100951754D01*
X98989622Y-101052256D01*
X99108061Y-101117532D01*
X99243063Y-101152085D01*
X99371150Y-101160641D01*
X99509630Y-101150818D01*
X99632907Y-101116762D01*
X99749921Y-101054266D01*
X99869612Y-100959124D01*
X99936616Y-100894607D01*
X100007803Y-100818209D01*
X100065774Y-100743665D01*
X100119035Y-100658354D01*
X100176091Y-100549659D01*
X100194607Y-100511869D01*
X100282322Y-100317639D01*
X100369021Y-100101550D01*
X100448797Y-99879665D01*
X100515743Y-99668050D01*
X100547354Y-99552465D01*
X100595822Y-99361248D01*
X100540664Y-99245549D01*
X100507178Y-99164821D01*
X100480969Y-99082950D01*
X100471670Y-99040847D01*
X100469867Y-98919038D01*
X100496174Y-98787370D01*
X100546376Y-98663319D01*
X100573815Y-98617332D01*
X100656889Y-98516805D01*
X100744421Y-98451769D01*
X100831936Y-98422818D01*
X100914961Y-98430549D01*
G36*
X112390963Y-96050017D02*
G01*
X112534007Y-96117979D01*
X112664936Y-96222768D01*
X112782767Y-96362884D01*
X112886518Y-96536827D01*
X112975208Y-96743096D01*
X113047856Y-96980191D01*
X113103478Y-97246611D01*
X113141094Y-97540857D01*
X113151761Y-97679933D01*
X113156666Y-97888386D01*
X113145767Y-98083531D01*
X113120357Y-98261477D01*
X113081730Y-98418332D01*
X113031180Y-98550208D01*
X112970002Y-98653213D01*
X112899489Y-98723458D01*
X112820936Y-98757051D01*
X112792702Y-98759433D01*
X112702688Y-98747958D01*
X112639644Y-98710023D01*
X112601109Y-98655133D01*
X112549977Y-98513242D01*
X112536235Y-98356652D01*
X112559991Y-98184100D01*
X112621355Y-97994324D01*
X112666421Y-97892061D01*
X112722258Y-97765183D01*
X112757439Y-97655899D01*
X112773721Y-97550707D01*
X112772861Y-97436100D01*
X112756615Y-97298575D01*
X112749465Y-97253619D01*
X112705358Y-97038063D01*
X112648841Y-96845733D01*
X112581798Y-96681087D01*
X112506116Y-96548582D01*
X112423681Y-96452678D01*
X112403632Y-96436010D01*
X112306670Y-96386688D01*
X112194191Y-96370542D01*
X112078245Y-96388626D01*
X112037270Y-96404030D01*
X111892980Y-96487614D01*
X111747063Y-96609296D01*
X111601643Y-96765006D01*
X111458842Y-96950673D01*
X111320786Y-97162229D01*
X111189598Y-97395603D01*
X111067402Y-97646727D01*
X110956322Y-97911531D01*
X110858482Y-98185945D01*
X110776006Y-98465899D01*
X110711017Y-98747324D01*
X110665641Y-99026151D01*
X110664653Y-99034044D01*
X110642616Y-99342490D01*
X110653415Y-99640034D01*
X110696028Y-99923051D01*
X110769435Y-100187913D01*
X110872613Y-100430993D01*
X111004543Y-100648663D01*
X111164202Y-100837297D01*
X111175448Y-100848401D01*
X111352542Y-100994376D01*
X111543561Y-101100572D01*
X111747559Y-101166846D01*
X111963587Y-101193053D01*
X112190697Y-101179049D01*
X112427943Y-101124690D01*
X112595385Y-101064269D01*
X112778872Y-100972463D01*
X112968489Y-100848297D01*
X113155506Y-100699050D01*
X113331191Y-100531999D01*
X113486812Y-100354424D01*
X113552816Y-100266173D01*
X113606449Y-100192446D01*
X113645362Y-100147443D01*
X113677629Y-100124213D01*
X113711322Y-100115807D01*
X113728403Y-100115016D01*
X113793225Y-100129641D01*
X113852408Y-100167893D01*
X113892524Y-100218844D01*
X113902066Y-100256295D01*
X113887750Y-100304016D01*
X113848030Y-100375334D01*
X113787744Y-100464224D01*
X113711733Y-100564662D01*
X113624837Y-100670626D01*
X113531896Y-100776090D01*
X113437750Y-100875031D01*
X113347239Y-100961426D01*
X113308619Y-100994910D01*
X113063493Y-101180619D01*
X112819893Y-101326279D01*
X112573737Y-101433798D01*
X112320943Y-101505086D01*
X112161506Y-101531626D01*
X112049978Y-101544243D01*
X111962769Y-101549577D01*
X111882482Y-101547560D01*
X111791723Y-101538124D01*
X111732483Y-101529956D01*
X111464419Y-101470222D01*
X111210103Y-101371034D01*
X110972672Y-101233922D01*
X110755264Y-101060414D01*
X110740459Y-101046550D01*
X110560961Y-100847860D01*
X110411007Y-100620812D01*
X110291517Y-100368236D01*
X110203410Y-100092962D01*
X110147607Y-99797821D01*
X110125026Y-99485644D01*
X110134665Y-99182312D01*
X110175425Y-98822630D01*
X110239963Y-98484112D01*
X110331276Y-98156155D01*
X110452359Y-97828157D01*
X110606209Y-97489514D01*
X110621999Y-97457683D01*
X110781715Y-97164009D01*
X110952482Y-96899226D01*
X111132321Y-96665282D01*
X111319254Y-96464122D01*
X111511302Y-96297694D01*
X111706488Y-96167942D01*
X111902833Y-96076815D01*
X112072454Y-96030575D01*
X112236785Y-96020382D01*
X112390963Y-96050017D01*
G37*
X112390963Y-96050017D02*
X112534007Y-96117979D01*
X112664936Y-96222768D01*
X112782767Y-96362884D01*
X112886518Y-96536827D01*
X112975208Y-96743096D01*
X113047856Y-96980191D01*
X113103478Y-97246611D01*
X113141094Y-97540857D01*
X113151761Y-97679933D01*
X113156666Y-97888386D01*
X113145767Y-98083531D01*
X113120357Y-98261477D01*
X113081730Y-98418332D01*
X113031180Y-98550208D01*
X112970002Y-98653213D01*
X112899489Y-98723458D01*
X112820936Y-98757051D01*
X112792702Y-98759433D01*
X112702688Y-98747958D01*
X112639644Y-98710023D01*
X112601109Y-98655133D01*
X112549977Y-98513242D01*
X112536235Y-98356652D01*
X112559991Y-98184100D01*
X112621355Y-97994324D01*
X112666421Y-97892061D01*
X112722258Y-97765183D01*
X112757439Y-97655899D01*
X112773721Y-97550707D01*
X112772861Y-97436100D01*
X112756615Y-97298575D01*
X112749465Y-97253619D01*
X112705358Y-97038063D01*
X112648841Y-96845733D01*
X112581798Y-96681087D01*
X112506116Y-96548582D01*
X112423681Y-96452678D01*
X112403632Y-96436010D01*
X112306670Y-96386688D01*
X112194191Y-96370542D01*
X112078245Y-96388626D01*
X112037270Y-96404030D01*
X111892980Y-96487614D01*
X111747063Y-96609296D01*
X111601643Y-96765006D01*
X111458842Y-96950673D01*
X111320786Y-97162229D01*
X111189598Y-97395603D01*
X111067402Y-97646727D01*
X110956322Y-97911531D01*
X110858482Y-98185945D01*
X110776006Y-98465899D01*
X110711017Y-98747324D01*
X110665641Y-99026151D01*
X110664653Y-99034044D01*
X110642616Y-99342490D01*
X110653415Y-99640034D01*
X110696028Y-99923051D01*
X110769435Y-100187913D01*
X110872613Y-100430993D01*
X111004543Y-100648663D01*
X111164202Y-100837297D01*
X111175448Y-100848401D01*
X111352542Y-100994376D01*
X111543561Y-101100572D01*
X111747559Y-101166846D01*
X111963587Y-101193053D01*
X112190697Y-101179049D01*
X112427943Y-101124690D01*
X112595385Y-101064269D01*
X112778872Y-100972463D01*
X112968489Y-100848297D01*
X113155506Y-100699050D01*
X113331191Y-100531999D01*
X113486812Y-100354424D01*
X113552816Y-100266173D01*
X113606449Y-100192446D01*
X113645362Y-100147443D01*
X113677629Y-100124213D01*
X113711322Y-100115807D01*
X113728403Y-100115016D01*
X113793225Y-100129641D01*
X113852408Y-100167893D01*
X113892524Y-100218844D01*
X113902066Y-100256295D01*
X113887750Y-100304016D01*
X113848030Y-100375334D01*
X113787744Y-100464224D01*
X113711733Y-100564662D01*
X113624837Y-100670626D01*
X113531896Y-100776090D01*
X113437750Y-100875031D01*
X113347239Y-100961426D01*
X113308619Y-100994910D01*
X113063493Y-101180619D01*
X112819893Y-101326279D01*
X112573737Y-101433798D01*
X112320943Y-101505086D01*
X112161506Y-101531626D01*
X112049978Y-101544243D01*
X111962769Y-101549577D01*
X111882482Y-101547560D01*
X111791723Y-101538124D01*
X111732483Y-101529956D01*
X111464419Y-101470222D01*
X111210103Y-101371034D01*
X110972672Y-101233922D01*
X110755264Y-101060414D01*
X110740459Y-101046550D01*
X110560961Y-100847860D01*
X110411007Y-100620812D01*
X110291517Y-100368236D01*
X110203410Y-100092962D01*
X110147607Y-99797821D01*
X110125026Y-99485644D01*
X110134665Y-99182312D01*
X110175425Y-98822630D01*
X110239963Y-98484112D01*
X110331276Y-98156155D01*
X110452359Y-97828157D01*
X110606209Y-97489514D01*
X110621999Y-97457683D01*
X110781715Y-97164009D01*
X110952482Y-96899226D01*
X111132321Y-96665282D01*
X111319254Y-96464122D01*
X111511302Y-96297694D01*
X111706488Y-96167942D01*
X111902833Y-96076815D01*
X112072454Y-96030575D01*
X112236785Y-96020382D01*
X112390963Y-96050017D01*
G36*
X114938733Y-96197811D02*
G01*
X115020184Y-96257429D01*
X115089017Y-96352994D01*
X115104700Y-96384030D01*
X115125774Y-96430914D01*
X115140834Y-96472927D01*
X115150855Y-96518330D01*
X115156813Y-96575383D01*
X115159681Y-96652346D01*
X115160436Y-96757477D01*
X115160220Y-96854433D01*
X115149128Y-97128827D01*
X115117629Y-97435511D01*
X115065586Y-97775169D01*
X114992862Y-98148481D01*
X114899322Y-98556130D01*
X114784826Y-98998798D01*
X114649240Y-99477167D01*
X114601389Y-99637850D01*
X114567487Y-99752958D01*
X114545078Y-99838067D01*
X114532509Y-99903421D01*
X114528130Y-99959263D01*
X114530289Y-100015835D01*
X114534120Y-100055149D01*
X114543427Y-100128342D01*
X114552814Y-100183220D01*
X114560195Y-100207784D01*
X114572846Y-100195134D01*
X114596615Y-100152072D01*
X114626717Y-100087416D01*
X114631554Y-100076234D01*
X114743276Y-99827014D01*
X114857156Y-99594828D01*
X114971117Y-99382957D01*
X115083079Y-99194682D01*
X115190967Y-99033285D01*
X115292701Y-98902045D01*
X115386206Y-98804243D01*
X115469402Y-98743161D01*
X115478788Y-98738360D01*
X115585945Y-98706669D01*
X115694977Y-98709266D01*
X115796058Y-98743157D01*
X115879361Y-98805347D01*
X115927373Y-98875068D01*
X115941850Y-98908382D01*
X115948973Y-98939533D01*
X115947826Y-98977622D01*
X115937496Y-99031751D01*
X115917065Y-99111021D01*
X115895964Y-99187421D01*
X115849138Y-99374528D01*
X115816555Y-99553616D01*
X115796462Y-99738701D01*
X115787105Y-99943802D01*
X115785900Y-100067156D01*
X115794014Y-100317206D01*
X115818047Y-100533764D01*
X115857535Y-100715827D01*
X115912013Y-100862388D01*
X115981016Y-100972443D01*
X116064080Y-101044986D01*
X116160740Y-101079012D01*
X116252603Y-101077008D01*
X116353073Y-101043565D01*
X116457217Y-100981304D01*
X116550757Y-100899744D01*
X116592105Y-100850659D01*
X116657119Y-100749846D01*
X116729553Y-100615893D01*
X116806155Y-100456627D01*
X116883677Y-100279874D01*
X116958867Y-100093463D01*
X117028474Y-99905218D01*
X117089250Y-99722968D01*
X117137942Y-99554539D01*
X117149650Y-99508116D01*
X117186206Y-99357217D01*
X117126878Y-99243533D01*
X117078474Y-99108669D01*
X117063858Y-98963018D01*
X117081379Y-98816461D01*
X117129384Y-98678877D01*
X117206223Y-98560144D01*
X117248396Y-98516730D01*
X117334341Y-98452810D01*
X117414031Y-98425483D01*
X117496464Y-98431853D01*
X117504964Y-98434163D01*
X117575068Y-98468166D01*
X117623505Y-98526705D01*
X117653062Y-98615008D01*
X117666474Y-98737131D01*
X117667998Y-98835913D01*
X117660429Y-98909443D01*
X117641483Y-98974248D01*
X117629839Y-99002265D01*
X117602228Y-99085441D01*
X117605432Y-99142463D01*
X117640483Y-99173986D01*
X117708413Y-99180664D01*
X117810255Y-99163151D01*
X117861683Y-99149238D01*
X117931307Y-99123690D01*
X117992470Y-99086709D01*
X118058353Y-99029331D01*
X118100292Y-98986960D01*
X118182257Y-98909765D01*
X118250059Y-98867212D01*
X118310757Y-98857314D01*
X118371414Y-98878085D01*
X118406085Y-98900942D01*
X118447725Y-98935401D01*
X118475683Y-98970779D01*
X118489684Y-99013155D01*
X118489450Y-99068605D01*
X118474707Y-99143208D01*
X118445178Y-99243040D01*
X118400587Y-99374179D01*
X118382228Y-99426183D01*
X118319108Y-99619512D01*
X118276560Y-99790550D01*
X118252397Y-99952700D01*
X118244430Y-100119366D01*
X118247563Y-100251120D01*
X118261383Y-100434802D01*
X118285461Y-100589097D01*
X118322547Y-100726279D01*
X118375391Y-100858624D01*
X118391132Y-100891870D01*
X118463717Y-101011157D01*
X118544869Y-101089081D01*
X118633977Y-101125604D01*
X118730430Y-101120687D01*
X118833619Y-101074295D01*
X118942931Y-100986390D01*
X118997784Y-100929005D01*
X119053793Y-100857755D01*
X119117920Y-100763215D01*
X119180290Y-100660419D01*
X119211109Y-100604204D01*
X119319248Y-100397420D01*
X119306604Y-100218257D01*
X119303623Y-100091148D01*
X119309184Y-99932260D01*
X119322162Y-99751027D01*
X119341432Y-99556886D01*
X119365868Y-99359272D01*
X119394346Y-99167619D01*
X119425741Y-98991364D01*
X119458927Y-98839941D01*
X119480339Y-98761242D01*
X119528763Y-98646448D01*
X119593458Y-98570271D01*
X119675268Y-98531909D01*
X119726563Y-98526632D01*
X119824324Y-98539489D01*
X119908333Y-98574278D01*
X119967712Y-98625440D01*
X119986200Y-98659316D01*
X119995080Y-98725395D01*
X119986640Y-98825117D01*
X119979153Y-98870983D01*
X119945510Y-99060687D01*
X119918719Y-99216179D01*
X119897647Y-99344821D01*
X119881162Y-99453973D01*
X119868130Y-99550998D01*
X119857419Y-99643256D01*
X119851600Y-99699734D01*
X119833345Y-99978847D01*
X119835602Y-100234223D01*
X119857797Y-100463606D01*
X119899354Y-100664740D01*
X119959698Y-100835369D01*
X120038253Y-100973236D01*
X120134445Y-101076084D01*
X120215667Y-101127849D01*
X120330121Y-101164691D01*
X120444319Y-101162951D01*
X120560827Y-101121872D01*
X120682209Y-101040699D01*
X120765036Y-100965979D01*
X120886423Y-100846311D01*
X120881382Y-100803415D01*
X121320042Y-100803415D01*
X121321186Y-100813238D01*
X121348625Y-100854385D01*
X121403023Y-100906234D01*
X121473779Y-100959957D01*
X121550293Y-101006727D01*
X121558926Y-101011232D01*
X121685935Y-101059779D01*
X121836156Y-101091611D01*
X121994193Y-101105251D01*
X122144651Y-101099226D01*
X122254135Y-101077825D01*
X122370253Y-101022930D01*
X122462122Y-100938437D01*
X122524833Y-100831838D01*
X122553472Y-100710627D01*
X122551123Y-100624746D01*
X122532502Y-100533046D01*
X122499672Y-100443494D01*
X122449119Y-100350769D01*
X122377329Y-100249551D01*
X122280786Y-100134517D01*
X122155976Y-100000348D01*
X122102102Y-99944967D01*
X122000497Y-99841746D01*
X121924383Y-99765646D01*
X121869700Y-99713473D01*
X121832389Y-99682034D01*
X121808391Y-99668135D01*
X121793649Y-99668584D01*
X121784101Y-99680186D01*
X121779263Y-99690967D01*
X121764130Y-99728636D01*
X121736847Y-99797419D01*
X121700695Y-99889008D01*
X121658956Y-99995097D01*
X121637168Y-100050600D01*
X121585179Y-100179022D01*
X121527725Y-100314234D01*
X121471110Y-100441778D01*
X121421643Y-100547194D01*
X121412638Y-100565397D01*
X121362611Y-100671567D01*
X121331193Y-100752404D01*
X121320042Y-100803415D01*
X120881382Y-100803415D01*
X120873382Y-100735356D01*
X120867741Y-100667803D01*
X120874354Y-100624420D01*
X120898384Y-100587640D01*
X120924992Y-100559750D01*
X120975595Y-100519228D01*
X121023272Y-100496726D01*
X121034995Y-100495100D01*
X121055467Y-100489075D01*
X121078314Y-100467570D01*
X121106781Y-100425434D01*
X121144115Y-100357517D01*
X121193559Y-100258670D01*
X121225067Y-100193475D01*
X121286218Y-100062854D01*
X121350826Y-99919523D01*
X121411869Y-99779374D01*
X121462326Y-99658301D01*
X121469872Y-99639430D01*
X121511073Y-99534108D01*
X121538151Y-99458909D01*
X121553093Y-99404807D01*
X121557884Y-99362777D01*
X121554512Y-99323793D01*
X121547163Y-99288264D01*
X121538085Y-99184207D01*
X121552086Y-99065586D01*
X121585580Y-98939227D01*
X121634981Y-98811961D01*
X121696704Y-98690616D01*
X121767164Y-98582022D01*
X121842774Y-98493006D01*
X121919950Y-98430399D01*
X121995106Y-98401028D01*
X122013718Y-98399679D01*
X122102917Y-98418547D01*
X122186276Y-98468147D01*
X122247194Y-98538270D01*
X122251289Y-98545779D01*
X122275328Y-98603147D01*
X122282334Y-98657453D01*
X122270045Y-98716496D01*
X122236195Y-98788072D01*
X122178523Y-98879979D01*
X122136594Y-98940927D01*
X122089184Y-99014461D01*
X122049436Y-99086438D01*
X122028575Y-99134368D01*
X122019391Y-99168083D01*
X122018147Y-99199149D01*
X122028208Y-99231829D01*
X122052939Y-99270386D01*
X122095703Y-99319082D01*
X122159865Y-99382181D01*
X122248790Y-99463944D01*
X122365841Y-99568636D01*
X122384178Y-99584933D01*
X122514769Y-99702036D01*
X122618125Y-99797732D01*
X122699562Y-99877677D01*
X122764396Y-99947528D01*
X122817943Y-100012941D01*
X122865522Y-100079574D01*
X122901431Y-100135266D01*
X123004733Y-100329700D01*
X123067247Y-100515832D01*
X123088939Y-100693118D01*
X123069773Y-100861016D01*
X123009714Y-101018983D01*
X122963274Y-101095625D01*
X122929651Y-101148353D01*
X122912107Y-101183841D01*
X122912758Y-101193401D01*
X122938947Y-101183488D01*
X122989340Y-101158029D01*
X123037664Y-101131249D01*
X123162897Y-101040247D01*
X123286412Y-100914364D01*
X123402095Y-100760825D01*
X123503834Y-100586853D01*
X123512056Y-100570525D01*
X123619486Y-100354350D01*
X123594897Y-100112516D01*
X123588268Y-100015855D01*
X123583980Y-99886276D01*
X123581921Y-99733125D01*
X123581981Y-99565746D01*
X123584045Y-99393485D01*
X123588003Y-99225686D01*
X123593741Y-99071694D01*
X123601148Y-98940854D01*
X123610112Y-98842511D01*
X123610152Y-98842183D01*
X123622124Y-98745017D01*
X123365209Y-98731203D01*
X123202752Y-98719732D01*
X123077355Y-98704246D01*
X122983844Y-98683667D01*
X122917046Y-98656912D01*
X122878506Y-98629542D01*
X122842544Y-98569850D01*
X122837465Y-98497482D01*
X122864293Y-98430308D01*
X122881136Y-98412917D01*
X122906093Y-98400689D01*
X122944799Y-98393381D01*
X123002890Y-98390750D01*
X123086002Y-98392550D01*
X123199768Y-98398540D01*
X123349824Y-98408475D01*
X123357306Y-98408996D01*
X123615630Y-98427008D01*
X123636087Y-98376262D01*
X123646891Y-98334330D01*
X123659689Y-98261783D01*
X123672605Y-98170164D01*
X123680454Y-98103266D01*
X123697868Y-97955853D01*
X123717960Y-97809406D01*
X123739266Y-97672960D01*
X123760324Y-97555551D01*
X123779670Y-97466211D01*
X123789176Y-97431917D01*
X123827469Y-97361428D01*
X123887471Y-97301723D01*
X123955890Y-97264015D01*
X123997060Y-97256600D01*
X124079455Y-97276032D01*
X124153983Y-97327811D01*
X124208573Y-97402161D01*
X124223255Y-97439810D01*
X124232198Y-97481152D01*
X124236236Y-97531852D01*
X124235131Y-97599186D01*
X124228645Y-97690426D01*
X124216542Y-97812847D01*
X124208754Y-97884042D01*
X124191889Y-98036734D01*
X124179867Y-98152481D01*
X124172682Y-98236393D01*
X124170332Y-98293580D01*
X124172809Y-98329150D01*
X124180109Y-98348215D01*
X124192228Y-98355883D01*
X124208293Y-98357266D01*
X124242005Y-98353484D01*
X124309361Y-98343025D01*
X124402438Y-98327221D01*
X124513311Y-98307404D01*
X124594585Y-98292360D01*
X124783813Y-98259930D01*
X124961389Y-98235413D01*
X125121718Y-98219219D01*
X125259204Y-98211758D01*
X125368250Y-98213438D01*
X125443261Y-98224668D01*
X125456762Y-98229312D01*
X125516598Y-98274369D01*
X125541791Y-98318462D01*
X125552669Y-98367576D01*
X125537949Y-98404766D01*
X125513950Y-98431307D01*
X125451069Y-98472591D01*
X125346993Y-98512460D01*
X125202846Y-98550671D01*
X125019750Y-98586979D01*
X124798829Y-98621143D01*
X124541205Y-98652917D01*
X124445578Y-98663119D01*
X124336850Y-98674835D01*
X124244008Y-98685843D01*
X124174768Y-98695151D01*
X124136846Y-98701766D01*
X124132168Y-98703442D01*
X124127453Y-98726442D01*
X124119970Y-98784639D01*
X124110493Y-98871043D01*
X124099795Y-98978667D01*
X124090472Y-99079899D01*
X124075647Y-99292670D01*
X124067652Y-99513824D01*
X124066292Y-99734890D01*
X124071371Y-99947401D01*
X124082696Y-100142884D01*
X124100071Y-100312871D01*
X124121819Y-100442183D01*
X124180516Y-100662042D01*
X124252549Y-100841900D01*
X124338203Y-100982028D01*
X124437762Y-101082695D01*
X124551510Y-101144171D01*
X124679732Y-101166728D01*
X124822711Y-101150634D01*
X124857893Y-101141442D01*
X124975470Y-101087726D01*
X125093002Y-100996144D01*
X125206313Y-100870960D01*
X125311227Y-100716440D01*
X125359329Y-100629321D01*
X125459066Y-100435458D01*
X125459066Y-99675976D01*
X125459536Y-99450409D01*
X125461210Y-99262823D01*
X125464486Y-99108874D01*
X125469760Y-98984217D01*
X125477428Y-98884509D01*
X125487889Y-98805405D01*
X125501539Y-98742560D01*
X125518774Y-98691631D01*
X125539992Y-98648272D01*
X125555223Y-98623435D01*
X125615870Y-98566196D01*
X125697007Y-98535678D01*
X125774281Y-98536681D01*
X125840676Y-98568952D01*
X125905067Y-98628952D01*
X125955538Y-98703253D01*
X125978438Y-98766777D01*
X125979909Y-98809967D01*
X125975929Y-98887174D01*
X125967169Y-98990528D01*
X125954299Y-99112157D01*
X125937989Y-99244191D01*
X125937382Y-99248772D01*
X125919163Y-99390642D01*
X125902149Y-99531917D01*
X125887540Y-99661956D01*
X125876538Y-99770113D01*
X125870781Y-99838933D01*
X125858696Y-100018850D01*
X125931465Y-99860100D01*
X126044047Y-99633626D01*
X126154981Y-99449220D01*
X126264516Y-99306662D01*
X126372901Y-99205727D01*
X126480385Y-99146196D01*
X126587216Y-99127844D01*
X126693644Y-99150451D01*
X126715676Y-99160241D01*
X126813273Y-99230810D01*
X126896133Y-99340923D01*
X126964301Y-99490649D01*
X127003764Y-99620879D01*
X127026441Y-99709741D01*
X127144455Y-99483295D01*
X127266161Y-99262110D01*
X127387496Y-99065310D01*
X127506414Y-98895307D01*
X127620866Y-98754514D01*
X127728803Y-98645343D01*
X127828179Y-98570208D01*
X127916944Y-98531521D01*
X127956569Y-98526600D01*
X128042077Y-98543394D01*
X128120521Y-98587401D01*
X128175633Y-98649058D01*
X128180369Y-98658151D01*
X128193513Y-98689154D01*
X128200136Y-98720042D01*
X128199447Y-98759171D01*
X128190654Y-98814900D01*
X128172966Y-98895587D01*
X128148057Y-98999460D01*
X128098827Y-99213080D01*
X128062494Y-99400321D01*
X128037388Y-99574553D01*
X128021836Y-99749142D01*
X128014164Y-99937459D01*
X128012592Y-100082350D01*
X128014535Y-100268438D01*
X128022074Y-100420979D01*
X128036656Y-100548554D01*
X128059723Y-100659744D01*
X128092722Y-100763132D01*
X128137096Y-100867298D01*
X128148869Y-100891870D01*
X128221847Y-101010793D01*
X128303896Y-101088724D01*
X128393501Y-101125659D01*
X128489147Y-101121593D01*
X128589318Y-101076521D01*
X128692501Y-100990441D01*
X128775041Y-100893582D01*
X128844883Y-100799509D01*
X128892858Y-100726946D01*
X128923051Y-100663961D01*
X128939553Y-100598621D01*
X128946448Y-100518994D01*
X128947163Y-100464084D01*
X129441507Y-100464084D01*
X129463312Y-100666778D01*
X129472729Y-100713171D01*
X129503925Y-100833771D01*
X129538481Y-100924631D01*
X129582247Y-100998272D01*
X129635421Y-101061308D01*
X129700928Y-101114950D01*
X129762509Y-101129460D01*
X129825787Y-101104423D01*
X129893896Y-101042188D01*
X129967548Y-100940057D01*
X130039469Y-100801271D01*
X130108114Y-100631507D01*
X130171934Y-100436443D01*
X130229384Y-100221757D01*
X130278918Y-99993125D01*
X130318987Y-99756226D01*
X130348046Y-99516738D01*
X130362613Y-99321632D01*
X130369568Y-99216877D01*
X130378542Y-99123348D01*
X130388346Y-99051609D01*
X130397278Y-99013433D01*
X130413822Y-98931928D01*
X130391030Y-98865542D01*
X130366114Y-98838808D01*
X130297171Y-98805336D01*
X130215836Y-98807968D01*
X130125512Y-98843533D01*
X130029599Y-98908857D01*
X129931498Y-99000767D01*
X129834610Y-99116091D01*
X129742335Y-99251655D01*
X129658074Y-99404287D01*
X129587309Y-99565406D01*
X129518104Y-99781231D01*
X129470002Y-100010296D01*
X129444103Y-100241585D01*
X129441507Y-100464084D01*
X128947163Y-100464084D01*
X128947827Y-100413148D01*
X128947803Y-100389266D01*
X128968070Y-100069505D01*
X129029595Y-99758306D01*
X129131868Y-99457345D01*
X129274377Y-99168298D01*
X129364560Y-99022736D01*
X129504580Y-98839451D01*
X129655588Y-98692837D01*
X129815528Y-98584310D01*
X129982343Y-98515282D01*
X130142366Y-98487745D01*
X130292499Y-98497092D01*
X130422160Y-98543373D01*
X130530758Y-98626147D01*
X130617704Y-98744976D01*
X130678699Y-98887716D01*
X130714037Y-98974983D01*
X130761646Y-99066469D01*
X130786273Y-99105766D01*
X130824523Y-99167482D01*
X130850053Y-99219619D01*
X130856566Y-99243928D01*
X130853596Y-99276696D01*
X130845433Y-99342834D01*
X130833195Y-99433850D01*
X130818001Y-99541255D01*
X130811551Y-99585511D01*
X130783317Y-99820106D01*
X130768008Y-100046717D01*
X130765631Y-100257901D01*
X130776192Y-100446218D01*
X130799694Y-100604227D01*
X130810746Y-100650135D01*
X130869266Y-100827234D01*
X130937496Y-100964169D01*
X131014724Y-101060670D01*
X131100235Y-101116466D01*
X131193316Y-101131288D01*
X131293252Y-101104864D01*
X131399329Y-101036924D01*
X131510834Y-100927197D01*
X131518478Y-100918348D01*
X131563393Y-100860811D01*
X131581151Y-100821715D01*
X131578127Y-100803428D01*
X131999566Y-100803428D01*
X132015929Y-100832639D01*
X132058576Y-100876117D01*
X132117843Y-100925769D01*
X132184063Y-100973505D01*
X132247574Y-101011233D01*
X132248092Y-101011496D01*
X132375772Y-101060012D01*
X132526372Y-101091760D01*
X132684540Y-101105277D01*
X132834927Y-101099097D01*
X132943302Y-101077825D01*
X133055861Y-101024436D01*
X133148221Y-100941342D01*
X133211593Y-100837486D01*
X133227824Y-100788344D01*
X133239206Y-100658329D01*
X133213268Y-100516705D01*
X133151204Y-100369436D01*
X133139789Y-100348862D01*
X133111323Y-100308478D01*
X133061337Y-100246991D01*
X132994942Y-100169899D01*
X132917255Y-100082699D01*
X132833389Y-99990887D01*
X132748459Y-99899960D01*
X132667578Y-99815416D01*
X132595861Y-99742751D01*
X132538421Y-99687462D01*
X132500374Y-99655045D01*
X132488507Y-99648843D01*
X132477133Y-99667759D01*
X132454427Y-99719508D01*
X132423275Y-99797048D01*
X132386563Y-99893335D01*
X132370508Y-99936779D01*
X132317662Y-100073873D01*
X132253828Y-100228639D01*
X132187428Y-100381147D01*
X132132383Y-100500114D01*
X132084967Y-100600400D01*
X132045030Y-100688342D01*
X132015893Y-100756352D01*
X132000878Y-100796846D01*
X131999566Y-100803428D01*
X131578127Y-100803428D01*
X131576111Y-100791237D01*
X131575436Y-100789945D01*
X131552603Y-100707857D01*
X131565126Y-100626650D01*
X131607941Y-100557352D01*
X131675979Y-100510988D01*
X131707949Y-100501565D01*
X131734094Y-100493719D01*
X131757589Y-100477792D01*
X131782330Y-100447943D01*
X131812213Y-100398327D01*
X131851133Y-100323103D01*
X131902985Y-100216426D01*
X131915533Y-100190209D01*
X131976243Y-100060136D01*
X132040471Y-99917395D01*
X132101146Y-99778007D01*
X132151193Y-99657990D01*
X132157658Y-99641864D01*
X132198684Y-99537549D01*
X132225619Y-99463305D01*
X132240418Y-99410027D01*
X132245032Y-99368611D01*
X132241414Y-99329951D01*
X132232931Y-99290817D01*
X132223452Y-99176089D01*
X132241614Y-99042305D01*
X132283912Y-98899079D01*
X132346838Y-98756025D01*
X132426887Y-98622757D01*
X132516610Y-98512929D01*
X132590252Y-98444179D01*
X132652260Y-98407748D01*
X132714066Y-98400461D01*
X132787104Y-98419140D01*
X132814699Y-98430076D01*
X132884499Y-98477690D01*
X132940074Y-98548898D01*
X132970476Y-98628079D01*
X132973154Y-98656175D01*
X132961666Y-98699118D01*
X132930596Y-98765749D01*
X132885153Y-98845440D01*
X132864228Y-98878425D01*
X132788238Y-98999656D01*
X132737716Y-99092747D01*
X132710777Y-99161869D01*
X132705538Y-99211195D01*
X132708236Y-99223797D01*
X132731834Y-99259849D01*
X132785948Y-99319434D01*
X132867833Y-99399892D01*
X132974748Y-99498564D01*
X133103950Y-99612790D01*
X133153725Y-99655777D01*
X133360489Y-99851347D01*
X133525978Y-100047358D01*
X133649868Y-100243357D01*
X133731837Y-100438892D01*
X133745215Y-100485623D01*
X133774914Y-100645947D01*
X133772701Y-100788514D01*
X133736913Y-100925182D01*
X133665888Y-101067808D01*
X133662920Y-101072761D01*
X133628398Y-101133289D01*
X133607386Y-101176575D01*
X133604352Y-101193397D01*
X133604485Y-101193401D01*
X133629218Y-101183525D01*
X133678527Y-101158155D01*
X133726830Y-101131249D01*
X133856905Y-101036474D01*
X133983377Y-100905562D01*
X134101080Y-100744681D01*
X134204099Y-100561525D01*
X134267326Y-100435882D01*
X134317381Y-100346345D01*
X134357443Y-100289972D01*
X134390692Y-100263821D01*
X134420307Y-100264951D01*
X134449467Y-100290420D01*
X134468529Y-100316861D01*
X134486376Y-100350103D01*
X134493973Y-100387201D01*
X134491949Y-100440345D01*
X134480931Y-100521728D01*
X134479545Y-100530694D01*
X134428978Y-100725504D01*
X134342226Y-100910690D01*
X134224471Y-101080684D01*
X134080897Y-101229917D01*
X133916687Y-101352819D01*
X133737023Y-101443823D01*
X133587066Y-101489609D01*
X133503956Y-101502426D01*
X133389085Y-101512979D01*
X133252607Y-101521036D01*
X133104675Y-101526361D01*
X132955443Y-101528721D01*
X132815062Y-101527882D01*
X132693687Y-101523610D01*
X132601470Y-101515671D01*
X132582302Y-101512766D01*
X132421885Y-101471659D01*
X132254403Y-101405832D01*
X132092465Y-101321763D01*
X131948674Y-101225929D01*
X131843434Y-101133129D01*
X131782551Y-101069284D01*
X131690781Y-101181942D01*
X131553508Y-101327566D01*
X131412445Y-101432731D01*
X131268737Y-101497048D01*
X131123527Y-101520130D01*
X130977957Y-101501586D01*
X130870673Y-101460834D01*
X130745274Y-101378101D01*
X130629281Y-101259589D01*
X130528475Y-101111698D01*
X130491389Y-101040980D01*
X130457080Y-100972442D01*
X130429279Y-100921777D01*
X130413231Y-100898447D01*
X130412066Y-100897880D01*
X130397971Y-100915017D01*
X130370517Y-100960680D01*
X130335271Y-101025526D01*
X130330039Y-101035589D01*
X130228274Y-101199898D01*
X130111628Y-101330830D01*
X129983197Y-101426635D01*
X129846080Y-101485566D01*
X129703373Y-101505875D01*
X129558173Y-101485813D01*
X129541201Y-101480758D01*
X129387114Y-101410443D01*
X129253221Y-101304134D01*
X129150152Y-101175432D01*
X129108148Y-101112701D01*
X129074319Y-101066784D01*
X129055438Y-101046823D01*
X129054682Y-101046610D01*
X129036209Y-101061562D01*
X128999978Y-101102047D01*
X128953490Y-101159630D01*
X128948849Y-101165637D01*
X128846153Y-101279172D01*
X128726492Y-101379398D01*
X128601641Y-101457609D01*
X128493463Y-101502305D01*
X128353068Y-101522485D01*
X128215513Y-101502702D01*
X128083638Y-101445326D01*
X127960284Y-101352729D01*
X127848292Y-101227280D01*
X127750501Y-101071350D01*
X127669751Y-100887309D01*
X127637330Y-100787806D01*
X127614407Y-100681028D01*
X127596782Y-100541326D01*
X127584701Y-100377808D01*
X127578405Y-100199579D01*
X127578139Y-100015748D01*
X127584145Y-99835419D01*
X127596667Y-99667700D01*
X127605382Y-99591917D01*
X127618453Y-99490200D01*
X127629166Y-99402564D01*
X127636429Y-99338232D01*
X127639153Y-99306429D01*
X127639154Y-99306167D01*
X127631185Y-99299469D01*
X127608885Y-99327785D01*
X127574449Y-99387151D01*
X127530074Y-99473608D01*
X127477954Y-99583193D01*
X127443603Y-99659016D01*
X127324581Y-99949388D01*
X127226069Y-100238106D01*
X127150176Y-100517543D01*
X127099008Y-100780071D01*
X127076277Y-100988260D01*
X127068461Y-101082250D01*
X127057877Y-101166436D01*
X127046359Y-101227302D01*
X127041850Y-101242223D01*
X126999808Y-101301945D01*
X126933822Y-101342900D01*
X126856760Y-101362075D01*
X126781491Y-101356456D01*
X126720884Y-101323029D01*
X126716472Y-101318426D01*
X126706113Y-101304802D01*
X126697582Y-101286223D01*
X126690628Y-101258520D01*
X126685000Y-101217527D01*
X126680446Y-101159075D01*
X126676715Y-101078996D01*
X126673557Y-100973122D01*
X126670718Y-100837285D01*
X126667948Y-100667317D01*
X126665098Y-100466467D01*
X126661998Y-100255150D01*
X126658895Y-100081919D01*
X126655565Y-99942532D01*
X126651785Y-99832743D01*
X126647334Y-99748307D01*
X126641988Y-99684978D01*
X126635524Y-99638513D01*
X126627720Y-99604666D01*
X126618553Y-99579641D01*
X126580750Y-99519421D01*
X126541839Y-99500266D01*
X126491503Y-99519907D01*
X126433259Y-99575364D01*
X126369679Y-99661435D01*
X126303333Y-99772921D01*
X126236794Y-99904622D01*
X126172633Y-100051335D01*
X126113420Y-100207862D01*
X126061728Y-100369002D01*
X126020127Y-100529553D01*
X126010321Y-100575245D01*
X125991594Y-100684333D01*
X125973802Y-100818389D01*
X125959008Y-100960059D01*
X125949571Y-101086559D01*
X125939420Y-101231078D01*
X125927347Y-101334248D01*
X125913221Y-101397017D01*
X125903919Y-101415424D01*
X125857711Y-101454235D01*
X125790869Y-101492690D01*
X125721535Y-101521708D01*
X125670525Y-101532266D01*
X125586255Y-101512659D01*
X125515992Y-101457893D01*
X125464195Y-101374052D01*
X125435322Y-101267220D01*
X125430855Y-101205270D01*
X125429787Y-101098350D01*
X125287702Y-101241389D01*
X125130103Y-101375333D01*
X124965060Y-101467776D01*
X124793352Y-101518580D01*
X124615758Y-101527609D01*
X124433056Y-101494725D01*
X124253468Y-101423542D01*
X124131208Y-101344021D01*
X124010907Y-101231936D01*
X123901138Y-101096538D01*
X123810469Y-100947078D01*
X123808612Y-100943420D01*
X123731344Y-100790555D01*
X123631697Y-100947857D01*
X123492317Y-101132667D01*
X123330675Y-101283632D01*
X123149317Y-101398887D01*
X122950793Y-101476568D01*
X122887316Y-101492476D01*
X122806823Y-101504131D01*
X122686499Y-101512804D01*
X122528746Y-101518379D01*
X122335969Y-101520738D01*
X122305233Y-101520806D01*
X122154775Y-101520809D01*
X122039535Y-101519996D01*
X121952396Y-101517679D01*
X121886241Y-101513169D01*
X121833955Y-101505778D01*
X121788422Y-101494816D01*
X121742526Y-101479596D01*
X121695269Y-101461780D01*
X121486352Y-101367178D01*
X121304306Y-101255397D01*
X121195283Y-101167669D01*
X121096071Y-101077183D01*
X120933360Y-101237397D01*
X120810378Y-101349824D01*
X120699385Y-101429981D01*
X120591169Y-101482240D01*
X120476520Y-101510972D01*
X120346228Y-101520551D01*
X120336733Y-101520615D01*
X120240132Y-101518953D01*
X120168133Y-101510752D01*
X120103102Y-101492350D01*
X120027404Y-101460084D01*
X120013145Y-101453400D01*
X119862000Y-101362376D01*
X119717993Y-101238531D01*
X119591049Y-101091284D01*
X119522559Y-100987779D01*
X119432892Y-100834875D01*
X119325512Y-100999737D01*
X119189792Y-101185413D01*
X119051056Y-101330724D01*
X118909962Y-101435251D01*
X118767168Y-101498577D01*
X118623332Y-101520283D01*
X118521109Y-101510235D01*
X118364925Y-101457955D01*
X118225232Y-101369819D01*
X118103303Y-101249477D01*
X118000410Y-101100575D01*
X117917825Y-100926762D01*
X117856819Y-100731685D01*
X117818665Y-100518993D01*
X117804635Y-100292332D01*
X117816000Y-100055351D01*
X117854033Y-99811698D01*
X117884515Y-99684522D01*
X117904183Y-99607322D01*
X117917290Y-99547785D01*
X117921688Y-99515980D01*
X117921017Y-99513372D01*
X117897898Y-99511655D01*
X117841893Y-99511963D01*
X117762395Y-99514157D01*
X117701483Y-99516579D01*
X117489816Y-99525943D01*
X117441286Y-99698313D01*
X117388448Y-99865247D01*
X117319657Y-100051081D01*
X117238859Y-100247367D01*
X117149997Y-100445657D01*
X117057019Y-100637503D01*
X116963867Y-100814457D01*
X116874488Y-100968069D01*
X116792827Y-101089892D01*
X116789189Y-101094768D01*
X116652204Y-101250738D01*
X116507920Y-101366482D01*
X116359318Y-101442842D01*
X116209378Y-101480656D01*
X116061081Y-101480766D01*
X115917407Y-101444011D01*
X115781337Y-101371233D01*
X115655852Y-101263272D01*
X115543932Y-101120969D01*
X115448558Y-100945163D01*
X115372710Y-100736695D01*
X115360332Y-100691863D01*
X115332168Y-100548986D01*
X115313041Y-100375060D01*
X115303399Y-100180490D01*
X115303692Y-99975679D01*
X115314367Y-99771032D01*
X115318542Y-99722904D01*
X115327460Y-99620979D01*
X115333690Y-99535385D01*
X115336726Y-99474327D01*
X115336064Y-99446010D01*
X115335639Y-99445117D01*
X115321144Y-99457213D01*
X115291730Y-99500818D01*
X115250943Y-99569347D01*
X115202329Y-99656213D01*
X115149435Y-99754833D01*
X115095807Y-99858621D01*
X115044991Y-99960992D01*
X115000534Y-100055361D01*
X114972276Y-100119839D01*
X114888121Y-100335945D01*
X114804598Y-100577495D01*
X114727107Y-100827870D01*
X114661049Y-101070451D01*
X114653548Y-101100686D01*
X114615997Y-101240307D01*
X114579722Y-101343488D01*
X114541905Y-101415923D01*
X114499724Y-101463307D01*
X114462507Y-101486298D01*
X114364453Y-101511615D01*
X114274514Y-101496240D01*
X114195497Y-101441482D01*
X114130214Y-101348650D01*
X114119459Y-101326521D01*
X114097473Y-101275416D01*
X114082524Y-101228818D01*
X114073383Y-101176976D01*
X114068818Y-101110141D01*
X114067597Y-101018562D01*
X114068206Y-100920568D01*
X114071124Y-100787740D01*
X114076930Y-100644876D01*
X114084753Y-100510032D01*
X114092800Y-100410433D01*
X114098411Y-100324680D01*
X114102470Y-100199471D01*
X114104956Y-100037655D01*
X114105848Y-99842080D01*
X114105127Y-99615595D01*
X114102772Y-99361050D01*
X114101139Y-99235683D01*
X114097987Y-98995436D01*
X114095949Y-98792379D01*
X114095251Y-98649908D01*
X114460970Y-98649908D01*
X114462844Y-98741407D01*
X114468191Y-98806201D01*
X114477226Y-98838565D01*
X114485814Y-98838907D01*
X114493673Y-98816408D01*
X114510085Y-98759140D01*
X114533347Y-98673408D01*
X114561754Y-98565516D01*
X114593603Y-98441768D01*
X114600578Y-98414322D01*
X114672285Y-98117407D01*
X114732603Y-97838141D01*
X114780965Y-97580199D01*
X114816804Y-97347260D01*
X114839555Y-97143001D01*
X114848649Y-96971097D01*
X114843663Y-96836559D01*
X114835131Y-96765626D01*
X114826803Y-96730761D01*
X114815991Y-96725797D01*
X114802175Y-96741426D01*
X114766518Y-96808347D01*
X114726784Y-96910344D01*
X114684852Y-97040581D01*
X114642603Y-97192223D01*
X114601914Y-97358432D01*
X114564664Y-97532373D01*
X114532734Y-97707210D01*
X114527041Y-97742385D01*
X114510624Y-97860579D01*
X114496175Y-97992130D01*
X114483909Y-98131313D01*
X114474040Y-98272405D01*
X114466784Y-98409684D01*
X114462355Y-98537426D01*
X114460970Y-98649908D01*
X114095251Y-98649908D01*
X114095111Y-98621379D01*
X114095556Y-98477306D01*
X114097372Y-98355027D01*
X114100642Y-98249412D01*
X114105453Y-98155329D01*
X114111889Y-98067646D01*
X114120037Y-97981232D01*
X114122350Y-97959230D01*
X114164027Y-97629764D01*
X114215399Y-97326902D01*
X114275733Y-97053305D01*
X114344294Y-96811637D01*
X114420348Y-96604560D01*
X114503160Y-96434735D01*
X114571580Y-96330362D01*
X114638540Y-96264787D01*
X114723268Y-96212153D01*
X114809476Y-96181471D01*
X114848431Y-96177179D01*
X114938733Y-96197811D01*
G37*
X114938733Y-96197811D02*
X115020184Y-96257429D01*
X115089017Y-96352994D01*
X115104700Y-96384030D01*
X115125774Y-96430914D01*
X115140834Y-96472927D01*
X115150855Y-96518330D01*
X115156813Y-96575383D01*
X115159681Y-96652346D01*
X115160436Y-96757477D01*
X115160220Y-96854433D01*
X115149128Y-97128827D01*
X115117629Y-97435511D01*
X115065586Y-97775169D01*
X114992862Y-98148481D01*
X114899322Y-98556130D01*
X114784826Y-98998798D01*
X114649240Y-99477167D01*
X114601389Y-99637850D01*
X114567487Y-99752958D01*
X114545078Y-99838067D01*
X114532509Y-99903421D01*
X114528130Y-99959263D01*
X114530289Y-100015835D01*
X114534120Y-100055149D01*
X114543427Y-100128342D01*
X114552814Y-100183220D01*
X114560195Y-100207784D01*
X114572846Y-100195134D01*
X114596615Y-100152072D01*
X114626717Y-100087416D01*
X114631554Y-100076234D01*
X114743276Y-99827014D01*
X114857156Y-99594828D01*
X114971117Y-99382957D01*
X115083079Y-99194682D01*
X115190967Y-99033285D01*
X115292701Y-98902045D01*
X115386206Y-98804243D01*
X115469402Y-98743161D01*
X115478788Y-98738360D01*
X115585945Y-98706669D01*
X115694977Y-98709266D01*
X115796058Y-98743157D01*
X115879361Y-98805347D01*
X115927373Y-98875068D01*
X115941850Y-98908382D01*
X115948973Y-98939533D01*
X115947826Y-98977622D01*
X115937496Y-99031751D01*
X115917065Y-99111021D01*
X115895964Y-99187421D01*
X115849138Y-99374528D01*
X115816555Y-99553616D01*
X115796462Y-99738701D01*
X115787105Y-99943802D01*
X115785900Y-100067156D01*
X115794014Y-100317206D01*
X115818047Y-100533764D01*
X115857535Y-100715827D01*
X115912013Y-100862388D01*
X115981016Y-100972443D01*
X116064080Y-101044986D01*
X116160740Y-101079012D01*
X116252603Y-101077008D01*
X116353073Y-101043565D01*
X116457217Y-100981304D01*
X116550757Y-100899744D01*
X116592105Y-100850659D01*
X116657119Y-100749846D01*
X116729553Y-100615893D01*
X116806155Y-100456627D01*
X116883677Y-100279874D01*
X116958867Y-100093463D01*
X117028474Y-99905218D01*
X117089250Y-99722968D01*
X117137942Y-99554539D01*
X117149650Y-99508116D01*
X117186206Y-99357217D01*
X117126878Y-99243533D01*
X117078474Y-99108669D01*
X117063858Y-98963018D01*
X117081379Y-98816461D01*
X117129384Y-98678877D01*
X117206223Y-98560144D01*
X117248396Y-98516730D01*
X117334341Y-98452810D01*
X117414031Y-98425483D01*
X117496464Y-98431853D01*
X117504964Y-98434163D01*
X117575068Y-98468166D01*
X117623505Y-98526705D01*
X117653062Y-98615008D01*
X117666474Y-98737131D01*
X117667998Y-98835913D01*
X117660429Y-98909443D01*
X117641483Y-98974248D01*
X117629839Y-99002265D01*
X117602228Y-99085441D01*
X117605432Y-99142463D01*
X117640483Y-99173986D01*
X117708413Y-99180664D01*
X117810255Y-99163151D01*
X117861683Y-99149238D01*
X117931307Y-99123690D01*
X117992470Y-99086709D01*
X118058353Y-99029331D01*
X118100292Y-98986960D01*
X118182257Y-98909765D01*
X118250059Y-98867212D01*
X118310757Y-98857314D01*
X118371414Y-98878085D01*
X118406085Y-98900942D01*
X118447725Y-98935401D01*
X118475683Y-98970779D01*
X118489684Y-99013155D01*
X118489450Y-99068605D01*
X118474707Y-99143208D01*
X118445178Y-99243040D01*
X118400587Y-99374179D01*
X118382228Y-99426183D01*
X118319108Y-99619512D01*
X118276560Y-99790550D01*
X118252397Y-99952700D01*
X118244430Y-100119366D01*
X118247563Y-100251120D01*
X118261383Y-100434802D01*
X118285461Y-100589097D01*
X118322547Y-100726279D01*
X118375391Y-100858624D01*
X118391132Y-100891870D01*
X118463717Y-101011157D01*
X118544869Y-101089081D01*
X118633977Y-101125604D01*
X118730430Y-101120687D01*
X118833619Y-101074295D01*
X118942931Y-100986390D01*
X118997784Y-100929005D01*
X119053793Y-100857755D01*
X119117920Y-100763215D01*
X119180290Y-100660419D01*
X119211109Y-100604204D01*
X119319248Y-100397420D01*
X119306604Y-100218257D01*
X119303623Y-100091148D01*
X119309184Y-99932260D01*
X119322162Y-99751027D01*
X119341432Y-99556886D01*
X119365868Y-99359272D01*
X119394346Y-99167619D01*
X119425741Y-98991364D01*
X119458927Y-98839941D01*
X119480339Y-98761242D01*
X119528763Y-98646448D01*
X119593458Y-98570271D01*
X119675268Y-98531909D01*
X119726563Y-98526632D01*
X119824324Y-98539489D01*
X119908333Y-98574278D01*
X119967712Y-98625440D01*
X119986200Y-98659316D01*
X119995080Y-98725395D01*
X119986640Y-98825117D01*
X119979153Y-98870983D01*
X119945510Y-99060687D01*
X119918719Y-99216179D01*
X119897647Y-99344821D01*
X119881162Y-99453973D01*
X119868130Y-99550998D01*
X119857419Y-99643256D01*
X119851600Y-99699734D01*
X119833345Y-99978847D01*
X119835602Y-100234223D01*
X119857797Y-100463606D01*
X119899354Y-100664740D01*
X119959698Y-100835369D01*
X120038253Y-100973236D01*
X120134445Y-101076084D01*
X120215667Y-101127849D01*
X120330121Y-101164691D01*
X120444319Y-101162951D01*
X120560827Y-101121872D01*
X120682209Y-101040699D01*
X120765036Y-100965979D01*
X120886423Y-100846311D01*
X120881382Y-100803415D01*
X121320042Y-100803415D01*
X121321186Y-100813238D01*
X121348625Y-100854385D01*
X121403023Y-100906234D01*
X121473779Y-100959957D01*
X121550293Y-101006727D01*
X121558926Y-101011232D01*
X121685935Y-101059779D01*
X121836156Y-101091611D01*
X121994193Y-101105251D01*
X122144651Y-101099226D01*
X122254135Y-101077825D01*
X122370253Y-101022930D01*
X122462122Y-100938437D01*
X122524833Y-100831838D01*
X122553472Y-100710627D01*
X122551123Y-100624746D01*
X122532502Y-100533046D01*
X122499672Y-100443494D01*
X122449119Y-100350769D01*
X122377329Y-100249551D01*
X122280786Y-100134517D01*
X122155976Y-100000348D01*
X122102102Y-99944967D01*
X122000497Y-99841746D01*
X121924383Y-99765646D01*
X121869700Y-99713473D01*
X121832389Y-99682034D01*
X121808391Y-99668135D01*
X121793649Y-99668584D01*
X121784101Y-99680186D01*
X121779263Y-99690967D01*
X121764130Y-99728636D01*
X121736847Y-99797419D01*
X121700695Y-99889008D01*
X121658956Y-99995097D01*
X121637168Y-100050600D01*
X121585179Y-100179022D01*
X121527725Y-100314234D01*
X121471110Y-100441778D01*
X121421643Y-100547194D01*
X121412638Y-100565397D01*
X121362611Y-100671567D01*
X121331193Y-100752404D01*
X121320042Y-100803415D01*
X120881382Y-100803415D01*
X120873382Y-100735356D01*
X120867741Y-100667803D01*
X120874354Y-100624420D01*
X120898384Y-100587640D01*
X120924992Y-100559750D01*
X120975595Y-100519228D01*
X121023272Y-100496726D01*
X121034995Y-100495100D01*
X121055467Y-100489075D01*
X121078314Y-100467570D01*
X121106781Y-100425434D01*
X121144115Y-100357517D01*
X121193559Y-100258670D01*
X121225067Y-100193475D01*
X121286218Y-100062854D01*
X121350826Y-99919523D01*
X121411869Y-99779374D01*
X121462326Y-99658301D01*
X121469872Y-99639430D01*
X121511073Y-99534108D01*
X121538151Y-99458909D01*
X121553093Y-99404807D01*
X121557884Y-99362777D01*
X121554512Y-99323793D01*
X121547163Y-99288264D01*
X121538085Y-99184207D01*
X121552086Y-99065586D01*
X121585580Y-98939227D01*
X121634981Y-98811961D01*
X121696704Y-98690616D01*
X121767164Y-98582022D01*
X121842774Y-98493006D01*
X121919950Y-98430399D01*
X121995106Y-98401028D01*
X122013718Y-98399679D01*
X122102917Y-98418547D01*
X122186276Y-98468147D01*
X122247194Y-98538270D01*
X122251289Y-98545779D01*
X122275328Y-98603147D01*
X122282334Y-98657453D01*
X122270045Y-98716496D01*
X122236195Y-98788072D01*
X122178523Y-98879979D01*
X122136594Y-98940927D01*
X122089184Y-99014461D01*
X122049436Y-99086438D01*
X122028575Y-99134368D01*
X122019391Y-99168083D01*
X122018147Y-99199149D01*
X122028208Y-99231829D01*
X122052939Y-99270386D01*
X122095703Y-99319082D01*
X122159865Y-99382181D01*
X122248790Y-99463944D01*
X122365841Y-99568636D01*
X122384178Y-99584933D01*
X122514769Y-99702036D01*
X122618125Y-99797732D01*
X122699562Y-99877677D01*
X122764396Y-99947528D01*
X122817943Y-100012941D01*
X122865522Y-100079574D01*
X122901431Y-100135266D01*
X123004733Y-100329700D01*
X123067247Y-100515832D01*
X123088939Y-100693118D01*
X123069773Y-100861016D01*
X123009714Y-101018983D01*
X122963274Y-101095625D01*
X122929651Y-101148353D01*
X122912107Y-101183841D01*
X122912758Y-101193401D01*
X122938947Y-101183488D01*
X122989340Y-101158029D01*
X123037664Y-101131249D01*
X123162897Y-101040247D01*
X123286412Y-100914364D01*
X123402095Y-100760825D01*
X123503834Y-100586853D01*
X123512056Y-100570525D01*
X123619486Y-100354350D01*
X123594897Y-100112516D01*
X123588268Y-100015855D01*
X123583980Y-99886276D01*
X123581921Y-99733125D01*
X123581981Y-99565746D01*
X123584045Y-99393485D01*
X123588003Y-99225686D01*
X123593741Y-99071694D01*
X123601148Y-98940854D01*
X123610112Y-98842511D01*
X123610152Y-98842183D01*
X123622124Y-98745017D01*
X123365209Y-98731203D01*
X123202752Y-98719732D01*
X123077355Y-98704246D01*
X122983844Y-98683667D01*
X122917046Y-98656912D01*
X122878506Y-98629542D01*
X122842544Y-98569850D01*
X122837465Y-98497482D01*
X122864293Y-98430308D01*
X122881136Y-98412917D01*
X122906093Y-98400689D01*
X122944799Y-98393381D01*
X123002890Y-98390750D01*
X123086002Y-98392550D01*
X123199768Y-98398540D01*
X123349824Y-98408475D01*
X123357306Y-98408996D01*
X123615630Y-98427008D01*
X123636087Y-98376262D01*
X123646891Y-98334330D01*
X123659689Y-98261783D01*
X123672605Y-98170164D01*
X123680454Y-98103266D01*
X123697868Y-97955853D01*
X123717960Y-97809406D01*
X123739266Y-97672960D01*
X123760324Y-97555551D01*
X123779670Y-97466211D01*
X123789176Y-97431917D01*
X123827469Y-97361428D01*
X123887471Y-97301723D01*
X123955890Y-97264015D01*
X123997060Y-97256600D01*
X124079455Y-97276032D01*
X124153983Y-97327811D01*
X124208573Y-97402161D01*
X124223255Y-97439810D01*
X124232198Y-97481152D01*
X124236236Y-97531852D01*
X124235131Y-97599186D01*
X124228645Y-97690426D01*
X124216542Y-97812847D01*
X124208754Y-97884042D01*
X124191889Y-98036734D01*
X124179867Y-98152481D01*
X124172682Y-98236393D01*
X124170332Y-98293580D01*
X124172809Y-98329150D01*
X124180109Y-98348215D01*
X124192228Y-98355883D01*
X124208293Y-98357266D01*
X124242005Y-98353484D01*
X124309361Y-98343025D01*
X124402438Y-98327221D01*
X124513311Y-98307404D01*
X124594585Y-98292360D01*
X124783813Y-98259930D01*
X124961389Y-98235413D01*
X125121718Y-98219219D01*
X125259204Y-98211758D01*
X125368250Y-98213438D01*
X125443261Y-98224668D01*
X125456762Y-98229312D01*
X125516598Y-98274369D01*
X125541791Y-98318462D01*
X125552669Y-98367576D01*
X125537949Y-98404766D01*
X125513950Y-98431307D01*
X125451069Y-98472591D01*
X125346993Y-98512460D01*
X125202846Y-98550671D01*
X125019750Y-98586979D01*
X124798829Y-98621143D01*
X124541205Y-98652917D01*
X124445578Y-98663119D01*
X124336850Y-98674835D01*
X124244008Y-98685843D01*
X124174768Y-98695151D01*
X124136846Y-98701766D01*
X124132168Y-98703442D01*
X124127453Y-98726442D01*
X124119970Y-98784639D01*
X124110493Y-98871043D01*
X124099795Y-98978667D01*
X124090472Y-99079899D01*
X124075647Y-99292670D01*
X124067652Y-99513824D01*
X124066292Y-99734890D01*
X124071371Y-99947401D01*
X124082696Y-100142884D01*
X124100071Y-100312871D01*
X124121819Y-100442183D01*
X124180516Y-100662042D01*
X124252549Y-100841900D01*
X124338203Y-100982028D01*
X124437762Y-101082695D01*
X124551510Y-101144171D01*
X124679732Y-101166728D01*
X124822711Y-101150634D01*
X124857893Y-101141442D01*
X124975470Y-101087726D01*
X125093002Y-100996144D01*
X125206313Y-100870960D01*
X125311227Y-100716440D01*
X125359329Y-100629321D01*
X125459066Y-100435458D01*
X125459066Y-99675976D01*
X125459536Y-99450409D01*
X125461210Y-99262823D01*
X125464486Y-99108874D01*
X125469760Y-98984217D01*
X125477428Y-98884509D01*
X125487889Y-98805405D01*
X125501539Y-98742560D01*
X125518774Y-98691631D01*
X125539992Y-98648272D01*
X125555223Y-98623435D01*
X125615870Y-98566196D01*
X125697007Y-98535678D01*
X125774281Y-98536681D01*
X125840676Y-98568952D01*
X125905067Y-98628952D01*
X125955538Y-98703253D01*
X125978438Y-98766777D01*
X125979909Y-98809967D01*
X125975929Y-98887174D01*
X125967169Y-98990528D01*
X125954299Y-99112157D01*
X125937989Y-99244191D01*
X125937382Y-99248772D01*
X125919163Y-99390642D01*
X125902149Y-99531917D01*
X125887540Y-99661956D01*
X125876538Y-99770113D01*
X125870781Y-99838933D01*
X125858696Y-100018850D01*
X125931465Y-99860100D01*
X126044047Y-99633626D01*
X126154981Y-99449220D01*
X126264516Y-99306662D01*
X126372901Y-99205727D01*
X126480385Y-99146196D01*
X126587216Y-99127844D01*
X126693644Y-99150451D01*
X126715676Y-99160241D01*
X126813273Y-99230810D01*
X126896133Y-99340923D01*
X126964301Y-99490649D01*
X127003764Y-99620879D01*
X127026441Y-99709741D01*
X127144455Y-99483295D01*
X127266161Y-99262110D01*
X127387496Y-99065310D01*
X127506414Y-98895307D01*
X127620866Y-98754514D01*
X127728803Y-98645343D01*
X127828179Y-98570208D01*
X127916944Y-98531521D01*
X127956569Y-98526600D01*
X128042077Y-98543394D01*
X128120521Y-98587401D01*
X128175633Y-98649058D01*
X128180369Y-98658151D01*
X128193513Y-98689154D01*
X128200136Y-98720042D01*
X128199447Y-98759171D01*
X128190654Y-98814900D01*
X128172966Y-98895587D01*
X128148057Y-98999460D01*
X128098827Y-99213080D01*
X128062494Y-99400321D01*
X128037388Y-99574553D01*
X128021836Y-99749142D01*
X128014164Y-99937459D01*
X128012592Y-100082350D01*
X128014535Y-100268438D01*
X128022074Y-100420979D01*
X128036656Y-100548554D01*
X128059723Y-100659744D01*
X128092722Y-100763132D01*
X128137096Y-100867298D01*
X128148869Y-100891870D01*
X128221847Y-101010793D01*
X128303896Y-101088724D01*
X128393501Y-101125659D01*
X128489147Y-101121593D01*
X128589318Y-101076521D01*
X128692501Y-100990441D01*
X128775041Y-100893582D01*
X128844883Y-100799509D01*
X128892858Y-100726946D01*
X128923051Y-100663961D01*
X128939553Y-100598621D01*
X128946448Y-100518994D01*
X128947163Y-100464084D01*
X129441507Y-100464084D01*
X129463312Y-100666778D01*
X129472729Y-100713171D01*
X129503925Y-100833771D01*
X129538481Y-100924631D01*
X129582247Y-100998272D01*
X129635421Y-101061308D01*
X129700928Y-101114950D01*
X129762509Y-101129460D01*
X129825787Y-101104423D01*
X129893896Y-101042188D01*
X129967548Y-100940057D01*
X130039469Y-100801271D01*
X130108114Y-100631507D01*
X130171934Y-100436443D01*
X130229384Y-100221757D01*
X130278918Y-99993125D01*
X130318987Y-99756226D01*
X130348046Y-99516738D01*
X130362613Y-99321632D01*
X130369568Y-99216877D01*
X130378542Y-99123348D01*
X130388346Y-99051609D01*
X130397278Y-99013433D01*
X130413822Y-98931928D01*
X130391030Y-98865542D01*
X130366114Y-98838808D01*
X130297171Y-98805336D01*
X130215836Y-98807968D01*
X130125512Y-98843533D01*
X130029599Y-98908857D01*
X129931498Y-99000767D01*
X129834610Y-99116091D01*
X129742335Y-99251655D01*
X129658074Y-99404287D01*
X129587309Y-99565406D01*
X129518104Y-99781231D01*
X129470002Y-100010296D01*
X129444103Y-100241585D01*
X129441507Y-100464084D01*
X128947163Y-100464084D01*
X128947827Y-100413148D01*
X128947803Y-100389266D01*
X128968070Y-100069505D01*
X129029595Y-99758306D01*
X129131868Y-99457345D01*
X129274377Y-99168298D01*
X129364560Y-99022736D01*
X129504580Y-98839451D01*
X129655588Y-98692837D01*
X129815528Y-98584310D01*
X129982343Y-98515282D01*
X130142366Y-98487745D01*
X130292499Y-98497092D01*
X130422160Y-98543373D01*
X130530758Y-98626147D01*
X130617704Y-98744976D01*
X130678699Y-98887716D01*
X130714037Y-98974983D01*
X130761646Y-99066469D01*
X130786273Y-99105766D01*
X130824523Y-99167482D01*
X130850053Y-99219619D01*
X130856566Y-99243928D01*
X130853596Y-99276696D01*
X130845433Y-99342834D01*
X130833195Y-99433850D01*
X130818001Y-99541255D01*
X130811551Y-99585511D01*
X130783317Y-99820106D01*
X130768008Y-100046717D01*
X130765631Y-100257901D01*
X130776192Y-100446218D01*
X130799694Y-100604227D01*
X130810746Y-100650135D01*
X130869266Y-100827234D01*
X130937496Y-100964169D01*
X131014724Y-101060670D01*
X131100235Y-101116466D01*
X131193316Y-101131288D01*
X131293252Y-101104864D01*
X131399329Y-101036924D01*
X131510834Y-100927197D01*
X131518478Y-100918348D01*
X131563393Y-100860811D01*
X131581151Y-100821715D01*
X131578127Y-100803428D01*
X131999566Y-100803428D01*
X132015929Y-100832639D01*
X132058576Y-100876117D01*
X132117843Y-100925769D01*
X132184063Y-100973505D01*
X132247574Y-101011233D01*
X132248092Y-101011496D01*
X132375772Y-101060012D01*
X132526372Y-101091760D01*
X132684540Y-101105277D01*
X132834927Y-101099097D01*
X132943302Y-101077825D01*
X133055861Y-101024436D01*
X133148221Y-100941342D01*
X133211593Y-100837486D01*
X133227824Y-100788344D01*
X133239206Y-100658329D01*
X133213268Y-100516705D01*
X133151204Y-100369436D01*
X133139789Y-100348862D01*
X133111323Y-100308478D01*
X133061337Y-100246991D01*
X132994942Y-100169899D01*
X132917255Y-100082699D01*
X132833389Y-99990887D01*
X132748459Y-99899960D01*
X132667578Y-99815416D01*
X132595861Y-99742751D01*
X132538421Y-99687462D01*
X132500374Y-99655045D01*
X132488507Y-99648843D01*
X132477133Y-99667759D01*
X132454427Y-99719508D01*
X132423275Y-99797048D01*
X132386563Y-99893335D01*
X132370508Y-99936779D01*
X132317662Y-100073873D01*
X132253828Y-100228639D01*
X132187428Y-100381147D01*
X132132383Y-100500114D01*
X132084967Y-100600400D01*
X132045030Y-100688342D01*
X132015893Y-100756352D01*
X132000878Y-100796846D01*
X131999566Y-100803428D01*
X131578127Y-100803428D01*
X131576111Y-100791237D01*
X131575436Y-100789945D01*
X131552603Y-100707857D01*
X131565126Y-100626650D01*
X131607941Y-100557352D01*
X131675979Y-100510988D01*
X131707949Y-100501565D01*
X131734094Y-100493719D01*
X131757589Y-100477792D01*
X131782330Y-100447943D01*
X131812213Y-100398327D01*
X131851133Y-100323103D01*
X131902985Y-100216426D01*
X131915533Y-100190209D01*
X131976243Y-100060136D01*
X132040471Y-99917395D01*
X132101146Y-99778007D01*
X132151193Y-99657990D01*
X132157658Y-99641864D01*
X132198684Y-99537549D01*
X132225619Y-99463305D01*
X132240418Y-99410027D01*
X132245032Y-99368611D01*
X132241414Y-99329951D01*
X132232931Y-99290817D01*
X132223452Y-99176089D01*
X132241614Y-99042305D01*
X132283912Y-98899079D01*
X132346838Y-98756025D01*
X132426887Y-98622757D01*
X132516610Y-98512929D01*
X132590252Y-98444179D01*
X132652260Y-98407748D01*
X132714066Y-98400461D01*
X132787104Y-98419140D01*
X132814699Y-98430076D01*
X132884499Y-98477690D01*
X132940074Y-98548898D01*
X132970476Y-98628079D01*
X132973154Y-98656175D01*
X132961666Y-98699118D01*
X132930596Y-98765749D01*
X132885153Y-98845440D01*
X132864228Y-98878425D01*
X132788238Y-98999656D01*
X132737716Y-99092747D01*
X132710777Y-99161869D01*
X132705538Y-99211195D01*
X132708236Y-99223797D01*
X132731834Y-99259849D01*
X132785948Y-99319434D01*
X132867833Y-99399892D01*
X132974748Y-99498564D01*
X133103950Y-99612790D01*
X133153725Y-99655777D01*
X133360489Y-99851347D01*
X133525978Y-100047358D01*
X133649868Y-100243357D01*
X133731837Y-100438892D01*
X133745215Y-100485623D01*
X133774914Y-100645947D01*
X133772701Y-100788514D01*
X133736913Y-100925182D01*
X133665888Y-101067808D01*
X133662920Y-101072761D01*
X133628398Y-101133289D01*
X133607386Y-101176575D01*
X133604352Y-101193397D01*
X133604485Y-101193401D01*
X133629218Y-101183525D01*
X133678527Y-101158155D01*
X133726830Y-101131249D01*
X133856905Y-101036474D01*
X133983377Y-100905562D01*
X134101080Y-100744681D01*
X134204099Y-100561525D01*
X134267326Y-100435882D01*
X134317381Y-100346345D01*
X134357443Y-100289972D01*
X134390692Y-100263821D01*
X134420307Y-100264951D01*
X134449467Y-100290420D01*
X134468529Y-100316861D01*
X134486376Y-100350103D01*
X134493973Y-100387201D01*
X134491949Y-100440345D01*
X134480931Y-100521728D01*
X134479545Y-100530694D01*
X134428978Y-100725504D01*
X134342226Y-100910690D01*
X134224471Y-101080684D01*
X134080897Y-101229917D01*
X133916687Y-101352819D01*
X133737023Y-101443823D01*
X133587066Y-101489609D01*
X133503956Y-101502426D01*
X133389085Y-101512979D01*
X133252607Y-101521036D01*
X133104675Y-101526361D01*
X132955443Y-101528721D01*
X132815062Y-101527882D01*
X132693687Y-101523610D01*
X132601470Y-101515671D01*
X132582302Y-101512766D01*
X132421885Y-101471659D01*
X132254403Y-101405832D01*
X132092465Y-101321763D01*
X131948674Y-101225929D01*
X131843434Y-101133129D01*
X131782551Y-101069284D01*
X131690781Y-101181942D01*
X131553508Y-101327566D01*
X131412445Y-101432731D01*
X131268737Y-101497048D01*
X131123527Y-101520130D01*
X130977957Y-101501586D01*
X130870673Y-101460834D01*
X130745274Y-101378101D01*
X130629281Y-101259589D01*
X130528475Y-101111698D01*
X130491389Y-101040980D01*
X130457080Y-100972442D01*
X130429279Y-100921777D01*
X130413231Y-100898447D01*
X130412066Y-100897880D01*
X130397971Y-100915017D01*
X130370517Y-100960680D01*
X130335271Y-101025526D01*
X130330039Y-101035589D01*
X130228274Y-101199898D01*
X130111628Y-101330830D01*
X129983197Y-101426635D01*
X129846080Y-101485566D01*
X129703373Y-101505875D01*
X129558173Y-101485813D01*
X129541201Y-101480758D01*
X129387114Y-101410443D01*
X129253221Y-101304134D01*
X129150152Y-101175432D01*
X129108148Y-101112701D01*
X129074319Y-101066784D01*
X129055438Y-101046823D01*
X129054682Y-101046610D01*
X129036209Y-101061562D01*
X128999978Y-101102047D01*
X128953490Y-101159630D01*
X128948849Y-101165637D01*
X128846153Y-101279172D01*
X128726492Y-101379398D01*
X128601641Y-101457609D01*
X128493463Y-101502305D01*
X128353068Y-101522485D01*
X128215513Y-101502702D01*
X128083638Y-101445326D01*
X127960284Y-101352729D01*
X127848292Y-101227280D01*
X127750501Y-101071350D01*
X127669751Y-100887309D01*
X127637330Y-100787806D01*
X127614407Y-100681028D01*
X127596782Y-100541326D01*
X127584701Y-100377808D01*
X127578405Y-100199579D01*
X127578139Y-100015748D01*
X127584145Y-99835419D01*
X127596667Y-99667700D01*
X127605382Y-99591917D01*
X127618453Y-99490200D01*
X127629166Y-99402564D01*
X127636429Y-99338232D01*
X127639153Y-99306429D01*
X127639154Y-99306167D01*
X127631185Y-99299469D01*
X127608885Y-99327785D01*
X127574449Y-99387151D01*
X127530074Y-99473608D01*
X127477954Y-99583193D01*
X127443603Y-99659016D01*
X127324581Y-99949388D01*
X127226069Y-100238106D01*
X127150176Y-100517543D01*
X127099008Y-100780071D01*
X127076277Y-100988260D01*
X127068461Y-101082250D01*
X127057877Y-101166436D01*
X127046359Y-101227302D01*
X127041850Y-101242223D01*
X126999808Y-101301945D01*
X126933822Y-101342900D01*
X126856760Y-101362075D01*
X126781491Y-101356456D01*
X126720884Y-101323029D01*
X126716472Y-101318426D01*
X126706113Y-101304802D01*
X126697582Y-101286223D01*
X126690628Y-101258520D01*
X126685000Y-101217527D01*
X126680446Y-101159075D01*
X126676715Y-101078996D01*
X126673557Y-100973122D01*
X126670718Y-100837285D01*
X126667948Y-100667317D01*
X126665098Y-100466467D01*
X126661998Y-100255150D01*
X126658895Y-100081919D01*
X126655565Y-99942532D01*
X126651785Y-99832743D01*
X126647334Y-99748307D01*
X126641988Y-99684978D01*
X126635524Y-99638513D01*
X126627720Y-99604666D01*
X126618553Y-99579641D01*
X126580750Y-99519421D01*
X126541839Y-99500266D01*
X126491503Y-99519907D01*
X126433259Y-99575364D01*
X126369679Y-99661435D01*
X126303333Y-99772921D01*
X126236794Y-99904622D01*
X126172633Y-100051335D01*
X126113420Y-100207862D01*
X126061728Y-100369002D01*
X126020127Y-100529553D01*
X126010321Y-100575245D01*
X125991594Y-100684333D01*
X125973802Y-100818389D01*
X125959008Y-100960059D01*
X125949571Y-101086559D01*
X125939420Y-101231078D01*
X125927347Y-101334248D01*
X125913221Y-101397017D01*
X125903919Y-101415424D01*
X125857711Y-101454235D01*
X125790869Y-101492690D01*
X125721535Y-101521708D01*
X125670525Y-101532266D01*
X125586255Y-101512659D01*
X125515992Y-101457893D01*
X125464195Y-101374052D01*
X125435322Y-101267220D01*
X125430855Y-101205270D01*
X125429787Y-101098350D01*
X125287702Y-101241389D01*
X125130103Y-101375333D01*
X124965060Y-101467776D01*
X124793352Y-101518580D01*
X124615758Y-101527609D01*
X124433056Y-101494725D01*
X124253468Y-101423542D01*
X124131208Y-101344021D01*
X124010907Y-101231936D01*
X123901138Y-101096538D01*
X123810469Y-100947078D01*
X123808612Y-100943420D01*
X123731344Y-100790555D01*
X123631697Y-100947857D01*
X123492317Y-101132667D01*
X123330675Y-101283632D01*
X123149317Y-101398887D01*
X122950793Y-101476568D01*
X122887316Y-101492476D01*
X122806823Y-101504131D01*
X122686499Y-101512804D01*
X122528746Y-101518379D01*
X122335969Y-101520738D01*
X122305233Y-101520806D01*
X122154775Y-101520809D01*
X122039535Y-101519996D01*
X121952396Y-101517679D01*
X121886241Y-101513169D01*
X121833955Y-101505778D01*
X121788422Y-101494816D01*
X121742526Y-101479596D01*
X121695269Y-101461780D01*
X121486352Y-101367178D01*
X121304306Y-101255397D01*
X121195283Y-101167669D01*
X121096071Y-101077183D01*
X120933360Y-101237397D01*
X120810378Y-101349824D01*
X120699385Y-101429981D01*
X120591169Y-101482240D01*
X120476520Y-101510972D01*
X120346228Y-101520551D01*
X120336733Y-101520615D01*
X120240132Y-101518953D01*
X120168133Y-101510752D01*
X120103102Y-101492350D01*
X120027404Y-101460084D01*
X120013145Y-101453400D01*
X119862000Y-101362376D01*
X119717993Y-101238531D01*
X119591049Y-101091284D01*
X119522559Y-100987779D01*
X119432892Y-100834875D01*
X119325512Y-100999737D01*
X119189792Y-101185413D01*
X119051056Y-101330724D01*
X118909962Y-101435251D01*
X118767168Y-101498577D01*
X118623332Y-101520283D01*
X118521109Y-101510235D01*
X118364925Y-101457955D01*
X118225232Y-101369819D01*
X118103303Y-101249477D01*
X118000410Y-101100575D01*
X117917825Y-100926762D01*
X117856819Y-100731685D01*
X117818665Y-100518993D01*
X117804635Y-100292332D01*
X117816000Y-100055351D01*
X117854033Y-99811698D01*
X117884515Y-99684522D01*
X117904183Y-99607322D01*
X117917290Y-99547785D01*
X117921688Y-99515980D01*
X117921017Y-99513372D01*
X117897898Y-99511655D01*
X117841893Y-99511963D01*
X117762395Y-99514157D01*
X117701483Y-99516579D01*
X117489816Y-99525943D01*
X117441286Y-99698313D01*
X117388448Y-99865247D01*
X117319657Y-100051081D01*
X117238859Y-100247367D01*
X117149997Y-100445657D01*
X117057019Y-100637503D01*
X116963867Y-100814457D01*
X116874488Y-100968069D01*
X116792827Y-101089892D01*
X116789189Y-101094768D01*
X116652204Y-101250738D01*
X116507920Y-101366482D01*
X116359318Y-101442842D01*
X116209378Y-101480656D01*
X116061081Y-101480766D01*
X115917407Y-101444011D01*
X115781337Y-101371233D01*
X115655852Y-101263272D01*
X115543932Y-101120969D01*
X115448558Y-100945163D01*
X115372710Y-100736695D01*
X115360332Y-100691863D01*
X115332168Y-100548986D01*
X115313041Y-100375060D01*
X115303399Y-100180490D01*
X115303692Y-99975679D01*
X115314367Y-99771032D01*
X115318542Y-99722904D01*
X115327460Y-99620979D01*
X115333690Y-99535385D01*
X115336726Y-99474327D01*
X115336064Y-99446010D01*
X115335639Y-99445117D01*
X115321144Y-99457213D01*
X115291730Y-99500818D01*
X115250943Y-99569347D01*
X115202329Y-99656213D01*
X115149435Y-99754833D01*
X115095807Y-99858621D01*
X115044991Y-99960992D01*
X115000534Y-100055361D01*
X114972276Y-100119839D01*
X114888121Y-100335945D01*
X114804598Y-100577495D01*
X114727107Y-100827870D01*
X114661049Y-101070451D01*
X114653548Y-101100686D01*
X114615997Y-101240307D01*
X114579722Y-101343488D01*
X114541905Y-101415923D01*
X114499724Y-101463307D01*
X114462507Y-101486298D01*
X114364453Y-101511615D01*
X114274514Y-101496240D01*
X114195497Y-101441482D01*
X114130214Y-101348650D01*
X114119459Y-101326521D01*
X114097473Y-101275416D01*
X114082524Y-101228818D01*
X114073383Y-101176976D01*
X114068818Y-101110141D01*
X114067597Y-101018562D01*
X114068206Y-100920568D01*
X114071124Y-100787740D01*
X114076930Y-100644876D01*
X114084753Y-100510032D01*
X114092800Y-100410433D01*
X114098411Y-100324680D01*
X114102470Y-100199471D01*
X114104956Y-100037655D01*
X114105848Y-99842080D01*
X114105127Y-99615595D01*
X114102772Y-99361050D01*
X114101139Y-99235683D01*
X114097987Y-98995436D01*
X114095949Y-98792379D01*
X114095251Y-98649908D01*
X114460970Y-98649908D01*
X114462844Y-98741407D01*
X114468191Y-98806201D01*
X114477226Y-98838565D01*
X114485814Y-98838907D01*
X114493673Y-98816408D01*
X114510085Y-98759140D01*
X114533347Y-98673408D01*
X114561754Y-98565516D01*
X114593603Y-98441768D01*
X114600578Y-98414322D01*
X114672285Y-98117407D01*
X114732603Y-97838141D01*
X114780965Y-97580199D01*
X114816804Y-97347260D01*
X114839555Y-97143001D01*
X114848649Y-96971097D01*
X114843663Y-96836559D01*
X114835131Y-96765626D01*
X114826803Y-96730761D01*
X114815991Y-96725797D01*
X114802175Y-96741426D01*
X114766518Y-96808347D01*
X114726784Y-96910344D01*
X114684852Y-97040581D01*
X114642603Y-97192223D01*
X114601914Y-97358432D01*
X114564664Y-97532373D01*
X114532734Y-97707210D01*
X114527041Y-97742385D01*
X114510624Y-97860579D01*
X114496175Y-97992130D01*
X114483909Y-98131313D01*
X114474040Y-98272405D01*
X114466784Y-98409684D01*
X114462355Y-98537426D01*
X114460970Y-98649908D01*
X114095251Y-98649908D01*
X114095111Y-98621379D01*
X114095556Y-98477306D01*
X114097372Y-98355027D01*
X114100642Y-98249412D01*
X114105453Y-98155329D01*
X114111889Y-98067646D01*
X114120037Y-97981232D01*
X114122350Y-97959230D01*
X114164027Y-97629764D01*
X114215399Y-97326902D01*
X114275733Y-97053305D01*
X114344294Y-96811637D01*
X114420348Y-96604560D01*
X114503160Y-96434735D01*
X114571580Y-96330362D01*
X114638540Y-96264787D01*
X114723268Y-96212153D01*
X114809476Y-96181471D01*
X114848431Y-96177179D01*
X114938733Y-96197811D01*
G36*
X119942362Y-97757866D02*
G01*
X120033364Y-97801703D01*
X120100639Y-97870256D01*
X120103479Y-97874789D01*
X120136756Y-97962265D01*
X120133255Y-98046335D01*
X120098526Y-98122738D01*
X120038114Y-98187211D01*
X119957569Y-98235490D01*
X119862437Y-98263312D01*
X119758267Y-98266416D01*
X119650606Y-98240538D01*
X119635544Y-98234348D01*
X119538132Y-98175799D01*
X119474918Y-98102148D01*
X119448306Y-98018457D01*
X119460701Y-97929791D01*
X119475422Y-97897168D01*
X119537641Y-97822677D01*
X119625273Y-97771150D01*
X119728489Y-97742940D01*
X119837461Y-97738395D01*
X119942362Y-97757866D01*
G37*
X119942362Y-97757866D02*
X120033364Y-97801703D01*
X120100639Y-97870256D01*
X120103479Y-97874789D01*
X120136756Y-97962265D01*
X120133255Y-98046335D01*
X120098526Y-98122738D01*
X120038114Y-98187211D01*
X119957569Y-98235490D01*
X119862437Y-98263312D01*
X119758267Y-98266416D01*
X119650606Y-98240538D01*
X119635544Y-98234348D01*
X119538132Y-98175799D01*
X119474918Y-98102148D01*
X119448306Y-98018457D01*
X119460701Y-97929791D01*
X119475422Y-97897168D01*
X119537641Y-97822677D01*
X119625273Y-97771150D01*
X119728489Y-97742940D01*
X119837461Y-97738395D01*
X119942362Y-97757866D01*
G36*
X141396346Y-97468668D02*
G01*
X141403676Y-97469108D01*
X141972838Y-97514009D01*
X142507031Y-97577775D01*
X143005475Y-97660276D01*
X143467391Y-97761379D01*
X143891999Y-97880956D01*
X143929368Y-97892947D01*
X144091718Y-97946741D01*
X144242105Y-97999399D01*
X144384837Y-98053051D01*
X144524220Y-98109828D01*
X144664558Y-98171862D01*
X144810157Y-98241282D01*
X144965324Y-98320221D01*
X145134364Y-98410809D01*
X145321582Y-98515177D01*
X145531286Y-98635456D01*
X145767779Y-98773776D01*
X146035369Y-98932270D01*
X146064816Y-98949794D01*
X146376503Y-99134145D01*
X146657122Y-99297340D01*
X146910940Y-99441541D01*
X147142222Y-99568911D01*
X147355232Y-99681613D01*
X147554237Y-99781810D01*
X147743501Y-99871663D01*
X147927289Y-99953336D01*
X148109867Y-100028992D01*
X148295500Y-100100792D01*
X148437140Y-100152640D01*
X149046631Y-100354664D01*
X149660009Y-100524658D01*
X150284123Y-100664086D01*
X150925818Y-100774415D01*
X151591940Y-100857112D01*
X151832733Y-100879853D01*
X151987418Y-100890257D01*
X152176117Y-100897993D01*
X152390598Y-100903104D01*
X152622629Y-100905634D01*
X152863977Y-100905628D01*
X153106409Y-100903131D01*
X153341695Y-100898186D01*
X153561601Y-100890839D01*
X153757895Y-100881132D01*
X153922345Y-100869111D01*
X153928233Y-100868574D01*
X154673290Y-100780072D01*
X155400961Y-100653119D01*
X156111943Y-100487543D01*
X156806931Y-100283171D01*
X157486621Y-100039830D01*
X157833483Y-99898160D01*
X157931217Y-99854871D01*
X158058374Y-99796040D01*
X158206782Y-99725588D01*
X158368271Y-99647435D01*
X158534669Y-99565504D01*
X158697805Y-99483716D01*
X158711900Y-99476572D01*
X158890947Y-99386385D01*
X159037546Y-99314189D01*
X159156499Y-99257857D01*
X159252605Y-99215263D01*
X159330667Y-99184280D01*
X159395483Y-99162783D01*
X159451856Y-99148645D01*
X159452733Y-99148464D01*
X159609025Y-99129005D01*
X159737179Y-99140915D01*
X159837057Y-99184170D01*
X159887359Y-99229802D01*
X159922739Y-99285647D01*
X159931467Y-99340836D01*
X159911390Y-99397945D01*
X159860357Y-99459553D01*
X159776215Y-99528234D01*
X159656813Y-99606568D01*
X159499998Y-99697129D01*
X159494588Y-99700120D01*
X158821525Y-100047783D01*
X158127780Y-100359309D01*
X157415633Y-100634129D01*
X156687366Y-100871671D01*
X155945258Y-101071364D01*
X155191590Y-101232638D01*
X154428642Y-101354921D01*
X153658694Y-101437643D01*
X152884026Y-101480232D01*
X152361900Y-101486019D01*
X152205718Y-101484769D01*
X152057997Y-101483185D01*
X151925713Y-101481372D01*
X151815844Y-101479437D01*
X151735367Y-101477486D01*
X151695150Y-101475886D01*
X151014635Y-101422560D01*
X150365021Y-101346558D01*
X149740884Y-101246947D01*
X149136798Y-101122791D01*
X148547339Y-100973154D01*
X148214630Y-100875738D01*
X147725922Y-100711348D01*
X147219486Y-100513374D01*
X146700102Y-100284084D01*
X146172553Y-100025748D01*
X145641620Y-99740632D01*
X145112085Y-99431007D01*
X144922478Y-99313830D01*
X144698455Y-99175327D01*
X144499730Y-99057160D01*
X144317469Y-98954616D01*
X144142840Y-98862986D01*
X143967010Y-98777558D01*
X143781147Y-98693622D01*
X143669529Y-98645573D01*
X143126058Y-98437642D01*
X142563931Y-98267172D01*
X141982419Y-98133965D01*
X141449820Y-98046840D01*
X141329827Y-98034474D01*
X141176061Y-98024373D01*
X140996625Y-98016585D01*
X140799623Y-98011163D01*
X140593156Y-98008158D01*
X140385328Y-98007619D01*
X140184243Y-98009598D01*
X139998002Y-98014146D01*
X139834709Y-98021313D01*
X139702467Y-98031151D01*
X139661900Y-98035618D01*
X139174464Y-98113683D01*
X138700936Y-98224449D01*
X138244533Y-98366570D01*
X137808470Y-98538699D01*
X137395963Y-98739491D01*
X137010229Y-98967598D01*
X136654483Y-99221674D01*
X136475507Y-99369612D01*
X136332897Y-99489543D01*
X136210519Y-99581381D01*
X136100712Y-99648878D01*
X135995816Y-99695789D01*
X135888171Y-99725865D01*
X135770115Y-99742858D01*
X135703733Y-99747680D01*
X135610311Y-99751270D01*
X135545121Y-99748419D01*
X135494294Y-99737129D01*
X135443963Y-99715404D01*
X135430151Y-99708276D01*
X135362216Y-99663342D01*
X135324800Y-99613773D01*
X135318935Y-99556703D01*
X135345657Y-99489264D01*
X135405999Y-99408590D01*
X135500996Y-99311814D01*
X135607439Y-99216747D01*
X136025336Y-98885711D01*
X136468592Y-98587988D01*
X136935980Y-98323947D01*
X137426269Y-98093960D01*
X137938232Y-97898397D01*
X138470640Y-97737629D01*
X139022264Y-97612025D01*
X139591875Y-97521957D01*
X140178245Y-97467794D01*
X140780145Y-97449908D01*
X141396346Y-97468668D01*
G37*
X141396346Y-97468668D02*
X141403676Y-97469108D01*
X141972838Y-97514009D01*
X142507031Y-97577775D01*
X143005475Y-97660276D01*
X143467391Y-97761379D01*
X143891999Y-97880956D01*
X143929368Y-97892947D01*
X144091718Y-97946741D01*
X144242105Y-97999399D01*
X144384837Y-98053051D01*
X144524220Y-98109828D01*
X144664558Y-98171862D01*
X144810157Y-98241282D01*
X144965324Y-98320221D01*
X145134364Y-98410809D01*
X145321582Y-98515177D01*
X145531286Y-98635456D01*
X145767779Y-98773776D01*
X146035369Y-98932270D01*
X146064816Y-98949794D01*
X146376503Y-99134145D01*
X146657122Y-99297340D01*
X146910940Y-99441541D01*
X147142222Y-99568911D01*
X147355232Y-99681613D01*
X147554237Y-99781810D01*
X147743501Y-99871663D01*
X147927289Y-99953336D01*
X148109867Y-100028992D01*
X148295500Y-100100792D01*
X148437140Y-100152640D01*
X149046631Y-100354664D01*
X149660009Y-100524658D01*
X150284123Y-100664086D01*
X150925818Y-100774415D01*
X151591940Y-100857112D01*
X151832733Y-100879853D01*
X151987418Y-100890257D01*
X152176117Y-100897993D01*
X152390598Y-100903104D01*
X152622629Y-100905634D01*
X152863977Y-100905628D01*
X153106409Y-100903131D01*
X153341695Y-100898186D01*
X153561601Y-100890839D01*
X153757895Y-100881132D01*
X153922345Y-100869111D01*
X153928233Y-100868574D01*
X154673290Y-100780072D01*
X155400961Y-100653119D01*
X156111943Y-100487543D01*
X156806931Y-100283171D01*
X157486621Y-100039830D01*
X157833483Y-99898160D01*
X157931217Y-99854871D01*
X158058374Y-99796040D01*
X158206782Y-99725588D01*
X158368271Y-99647435D01*
X158534669Y-99565504D01*
X158697805Y-99483716D01*
X158711900Y-99476572D01*
X158890947Y-99386385D01*
X159037546Y-99314189D01*
X159156499Y-99257857D01*
X159252605Y-99215263D01*
X159330667Y-99184280D01*
X159395483Y-99162783D01*
X159451856Y-99148645D01*
X159452733Y-99148464D01*
X159609025Y-99129005D01*
X159737179Y-99140915D01*
X159837057Y-99184170D01*
X159887359Y-99229802D01*
X159922739Y-99285647D01*
X159931467Y-99340836D01*
X159911390Y-99397945D01*
X159860357Y-99459553D01*
X159776215Y-99528234D01*
X159656813Y-99606568D01*
X159499998Y-99697129D01*
X159494588Y-99700120D01*
X158821525Y-100047783D01*
X158127780Y-100359309D01*
X157415633Y-100634129D01*
X156687366Y-100871671D01*
X155945258Y-101071364D01*
X155191590Y-101232638D01*
X154428642Y-101354921D01*
X153658694Y-101437643D01*
X152884026Y-101480232D01*
X152361900Y-101486019D01*
X152205718Y-101484769D01*
X152057997Y-101483185D01*
X151925713Y-101481372D01*
X151815844Y-101479437D01*
X151735367Y-101477486D01*
X151695150Y-101475886D01*
X151014635Y-101422560D01*
X150365021Y-101346558D01*
X149740884Y-101246947D01*
X149136798Y-101122791D01*
X148547339Y-100973154D01*
X148214630Y-100875738D01*
X147725922Y-100711348D01*
X147219486Y-100513374D01*
X146700102Y-100284084D01*
X146172553Y-100025748D01*
X145641620Y-99740632D01*
X145112085Y-99431007D01*
X144922478Y-99313830D01*
X144698455Y-99175327D01*
X144499730Y-99057160D01*
X144317469Y-98954616D01*
X144142840Y-98862986D01*
X143967010Y-98777558D01*
X143781147Y-98693622D01*
X143669529Y-98645573D01*
X143126058Y-98437642D01*
X142563931Y-98267172D01*
X141982419Y-98133965D01*
X141449820Y-98046840D01*
X141329827Y-98034474D01*
X141176061Y-98024373D01*
X140996625Y-98016585D01*
X140799623Y-98011163D01*
X140593156Y-98008158D01*
X140385328Y-98007619D01*
X140184243Y-98009598D01*
X139998002Y-98014146D01*
X139834709Y-98021313D01*
X139702467Y-98031151D01*
X139661900Y-98035618D01*
X139174464Y-98113683D01*
X138700936Y-98224449D01*
X138244533Y-98366570D01*
X137808470Y-98538699D01*
X137395963Y-98739491D01*
X137010229Y-98967598D01*
X136654483Y-99221674D01*
X136475507Y-99369612D01*
X136332897Y-99489543D01*
X136210519Y-99581381D01*
X136100712Y-99648878D01*
X135995816Y-99695789D01*
X135888171Y-99725865D01*
X135770115Y-99742858D01*
X135703733Y-99747680D01*
X135610311Y-99751270D01*
X135545121Y-99748419D01*
X135494294Y-99737129D01*
X135443963Y-99715404D01*
X135430151Y-99708276D01*
X135362216Y-99663342D01*
X135324800Y-99613773D01*
X135318935Y-99556703D01*
X135345657Y-99489264D01*
X135405999Y-99408590D01*
X135500996Y-99311814D01*
X135607439Y-99216747D01*
X136025336Y-98885711D01*
X136468592Y-98587988D01*
X136935980Y-98323947D01*
X137426269Y-98093960D01*
X137938232Y-97898397D01*
X138470640Y-97737629D01*
X139022264Y-97612025D01*
X139591875Y-97521957D01*
X140178245Y-97467794D01*
X140780145Y-97449908D01*
X141396346Y-97468668D01*
G36*
X66996574Y-114727085D02*
G01*
X67072408Y-114734536D01*
X67133925Y-114748074D01*
X67195133Y-114770883D01*
X67270039Y-114806144D01*
X67278253Y-114810196D01*
X67454631Y-114917297D01*
X67595340Y-115046215D01*
X67699724Y-115196007D01*
X67767126Y-115365730D01*
X67796891Y-115554438D01*
X67796983Y-115556156D01*
X67795642Y-115701322D01*
X67773304Y-115837511D01*
X67726764Y-115978184D01*
X67664022Y-116114835D01*
X67554498Y-116299678D01*
X67407704Y-116495478D01*
X67226390Y-116699387D01*
X67013304Y-116908554D01*
X66771196Y-117120131D01*
X66502814Y-117331268D01*
X66459117Y-117363715D01*
X66270750Y-117502516D01*
X66755450Y-117515497D01*
X66989777Y-117523833D01*
X67184799Y-117535509D01*
X67343444Y-117551014D01*
X67468646Y-117570837D01*
X67563333Y-117595467D01*
X67630438Y-117625393D01*
X67672891Y-117661102D01*
X67679034Y-117669511D01*
X67698089Y-117731093D01*
X67679165Y-117793548D01*
X67626214Y-117851929D01*
X67543188Y-117901285D01*
X67473802Y-117926522D01*
X67435471Y-117936573D01*
X67395025Y-117944040D01*
X67346988Y-117948990D01*
X67285885Y-117951491D01*
X67206241Y-117951612D01*
X67102580Y-117949419D01*
X66969426Y-117944980D01*
X66801304Y-117938365D01*
X66736070Y-117935668D01*
X66542849Y-117928003D01*
X66383502Y-117922912D01*
X66249631Y-117920637D01*
X66132841Y-117921422D01*
X66024737Y-117925510D01*
X65916921Y-117933144D01*
X65800998Y-117944566D01*
X65668572Y-117960020D01*
X65599733Y-117968559D01*
X65510795Y-117969419D01*
X65451918Y-117952728D01*
X65404859Y-117911935D01*
X65380085Y-117870164D01*
X65367410Y-117817711D01*
X65372514Y-117771244D01*
X65399586Y-117725053D01*
X65452816Y-117673429D01*
X65536392Y-117610662D01*
X65604714Y-117564030D01*
X65934317Y-117333651D01*
X66232331Y-117104696D01*
X66497716Y-116878376D01*
X66729436Y-116655900D01*
X66926454Y-116438478D01*
X67087733Y-116227320D01*
X67212234Y-116023635D01*
X67298920Y-115828634D01*
X67346754Y-115643527D01*
X67356566Y-115520969D01*
X67349256Y-115407908D01*
X67323776Y-115320430D01*
X67274803Y-115243779D01*
X67244143Y-115209370D01*
X67153007Y-115130458D01*
X67051894Y-115078817D01*
X66929570Y-115049813D01*
X66836049Y-115041050D01*
X66633131Y-115049971D01*
X66439739Y-115099728D01*
X66255300Y-115190560D01*
X66079243Y-115322707D01*
X66012483Y-115385740D01*
X65877245Y-115545097D01*
X65781245Y-115711901D01*
X65725055Y-115883589D01*
X65709251Y-116057595D01*
X65734409Y-116231355D01*
X65789704Y-116379591D01*
X65824091Y-116468123D01*
X65828456Y-116535161D01*
X65802819Y-116589037D01*
X65790233Y-116602933D01*
X65726811Y-116641935D01*
X65658504Y-116640291D01*
X65589588Y-116598684D01*
X65558511Y-116565891D01*
X65469217Y-116426042D01*
X65415424Y-116270277D01*
X65395418Y-116102862D01*
X65407488Y-115928064D01*
X65449921Y-115750147D01*
X65521004Y-115573377D01*
X65619024Y-115402021D01*
X65742269Y-115240343D01*
X65889026Y-115092610D01*
X66057583Y-114963088D01*
X66244694Y-114856773D01*
X66408476Y-114787407D01*
X66560920Y-114744320D01*
X66719121Y-114723969D01*
X66892416Y-114722539D01*
X66996574Y-114727085D01*
G37*
X66996574Y-114727085D02*
X67072408Y-114734536D01*
X67133925Y-114748074D01*
X67195133Y-114770883D01*
X67270039Y-114806144D01*
X67278253Y-114810196D01*
X67454631Y-114917297D01*
X67595340Y-115046215D01*
X67699724Y-115196007D01*
X67767126Y-115365730D01*
X67796891Y-115554438D01*
X67796983Y-115556156D01*
X67795642Y-115701322D01*
X67773304Y-115837511D01*
X67726764Y-115978184D01*
X67664022Y-116114835D01*
X67554498Y-116299678D01*
X67407704Y-116495478D01*
X67226390Y-116699387D01*
X67013304Y-116908554D01*
X66771196Y-117120131D01*
X66502814Y-117331268D01*
X66459117Y-117363715D01*
X66270750Y-117502516D01*
X66755450Y-117515497D01*
X66989777Y-117523833D01*
X67184799Y-117535509D01*
X67343444Y-117551014D01*
X67468646Y-117570837D01*
X67563333Y-117595467D01*
X67630438Y-117625393D01*
X67672891Y-117661102D01*
X67679034Y-117669511D01*
X67698089Y-117731093D01*
X67679165Y-117793548D01*
X67626214Y-117851929D01*
X67543188Y-117901285D01*
X67473802Y-117926522D01*
X67435471Y-117936573D01*
X67395025Y-117944040D01*
X67346988Y-117948990D01*
X67285885Y-117951491D01*
X67206241Y-117951612D01*
X67102580Y-117949419D01*
X66969426Y-117944980D01*
X66801304Y-117938365D01*
X66736070Y-117935668D01*
X66542849Y-117928003D01*
X66383502Y-117922912D01*
X66249631Y-117920637D01*
X66132841Y-117921422D01*
X66024737Y-117925510D01*
X65916921Y-117933144D01*
X65800998Y-117944566D01*
X65668572Y-117960020D01*
X65599733Y-117968559D01*
X65510795Y-117969419D01*
X65451918Y-117952728D01*
X65404859Y-117911935D01*
X65380085Y-117870164D01*
X65367410Y-117817711D01*
X65372514Y-117771244D01*
X65399586Y-117725053D01*
X65452816Y-117673429D01*
X65536392Y-117610662D01*
X65604714Y-117564030D01*
X65934317Y-117333651D01*
X66232331Y-117104696D01*
X66497716Y-116878376D01*
X66729436Y-116655900D01*
X66926454Y-116438478D01*
X67087733Y-116227320D01*
X67212234Y-116023635D01*
X67298920Y-115828634D01*
X67346754Y-115643527D01*
X67356566Y-115520969D01*
X67349256Y-115407908D01*
X67323776Y-115320430D01*
X67274803Y-115243779D01*
X67244143Y-115209370D01*
X67153007Y-115130458D01*
X67051894Y-115078817D01*
X66929570Y-115049813D01*
X66836049Y-115041050D01*
X66633131Y-115049971D01*
X66439739Y-115099728D01*
X66255300Y-115190560D01*
X66079243Y-115322707D01*
X66012483Y-115385740D01*
X65877245Y-115545097D01*
X65781245Y-115711901D01*
X65725055Y-115883589D01*
X65709251Y-116057595D01*
X65734409Y-116231355D01*
X65789704Y-116379591D01*
X65824091Y-116468123D01*
X65828456Y-116535161D01*
X65802819Y-116589037D01*
X65790233Y-116602933D01*
X65726811Y-116641935D01*
X65658504Y-116640291D01*
X65589588Y-116598684D01*
X65558511Y-116565891D01*
X65469217Y-116426042D01*
X65415424Y-116270277D01*
X65395418Y-116102862D01*
X65407488Y-115928064D01*
X65449921Y-115750147D01*
X65521004Y-115573377D01*
X65619024Y-115402021D01*
X65742269Y-115240343D01*
X65889026Y-115092610D01*
X66057583Y-114963088D01*
X66244694Y-114856773D01*
X66408476Y-114787407D01*
X66560920Y-114744320D01*
X66719121Y-114723969D01*
X66892416Y-114722539D01*
X66996574Y-114727085D01*
G36*
X69336839Y-114745371D02*
G01*
X69528337Y-114782989D01*
X69716523Y-114858203D01*
X69898536Y-114972117D01*
X70046931Y-115100864D01*
X70136666Y-115195219D01*
X70204786Y-115281906D01*
X70263813Y-115378293D01*
X70306432Y-115460848D01*
X70389959Y-115648954D01*
X70446197Y-115824090D01*
X70478861Y-116002108D01*
X70491665Y-116198863D01*
X70492199Y-116253683D01*
X70475502Y-116526813D01*
X70426443Y-116787599D01*
X70347079Y-117032146D01*
X70239467Y-117256562D01*
X70105664Y-117456952D01*
X69947728Y-117629424D01*
X69767716Y-117770084D01*
X69657274Y-117833895D01*
X69491242Y-117898830D01*
X69304128Y-117938575D01*
X69110196Y-117951234D01*
X68923711Y-117934913D01*
X68912316Y-117932829D01*
X68739268Y-117880312D01*
X68567765Y-117791480D01*
X68404764Y-117672004D01*
X68257218Y-117527556D01*
X68132082Y-117363805D01*
X68060157Y-117237933D01*
X67988693Y-117081088D01*
X67937667Y-116936519D01*
X67904252Y-116791349D01*
X67885616Y-116632697D01*
X67879661Y-116467890D01*
X68311758Y-116467890D01*
X68312117Y-116567549D01*
X68317452Y-116649655D01*
X68328625Y-116726533D01*
X68346499Y-116810511D01*
X68349396Y-116822748D01*
X68413629Y-117024622D01*
X68501567Y-117198821D01*
X68610113Y-117343437D01*
X68736168Y-117456558D01*
X68876634Y-117536275D01*
X69028413Y-117580676D01*
X69188408Y-117587851D01*
X69353521Y-117555889D01*
X69466008Y-117511369D01*
X69608932Y-117420442D01*
X69739200Y-117292860D01*
X69853542Y-117133245D01*
X69948689Y-116946223D01*
X70021372Y-116736416D01*
X70025970Y-116719350D01*
X70051348Y-116589937D01*
X70067557Y-116436873D01*
X70074439Y-116273038D01*
X70071836Y-116111311D01*
X70059591Y-115964572D01*
X70037545Y-115845701D01*
X70036710Y-115842625D01*
X69966839Y-115650112D01*
X69870015Y-115475899D01*
X69750932Y-115326281D01*
X69614284Y-115207551D01*
X69520959Y-115151275D01*
X69452508Y-115119562D01*
X69391945Y-115100934D01*
X69323058Y-115092085D01*
X69229639Y-115089706D01*
X69219233Y-115089696D01*
X69075315Y-115099631D01*
X68952357Y-115132542D01*
X68840054Y-115193215D01*
X68728099Y-115286436D01*
X68671560Y-115344041D01*
X68549531Y-115494551D01*
X68455286Y-115657931D01*
X68386694Y-115840136D01*
X68341622Y-116047122D01*
X68317937Y-116284844D01*
X68315513Y-116338350D01*
X68311758Y-116467890D01*
X67879661Y-116467890D01*
X67878930Y-116447686D01*
X67878778Y-116412433D01*
X67879517Y-116284694D01*
X67882811Y-116187738D01*
X67889995Y-116110031D01*
X67902401Y-116040040D01*
X67921363Y-115966232D01*
X67936136Y-115916321D01*
X68028761Y-115665294D01*
X68143811Y-115441920D01*
X68278426Y-115247303D01*
X68429746Y-115082548D01*
X68594913Y-114948760D01*
X68771065Y-114847043D01*
X68955343Y-114778503D01*
X69144888Y-114744244D01*
X69336839Y-114745371D01*
G37*
X69336839Y-114745371D02*
X69528337Y-114782989D01*
X69716523Y-114858203D01*
X69898536Y-114972117D01*
X70046931Y-115100864D01*
X70136666Y-115195219D01*
X70204786Y-115281906D01*
X70263813Y-115378293D01*
X70306432Y-115460848D01*
X70389959Y-115648954D01*
X70446197Y-115824090D01*
X70478861Y-116002108D01*
X70491665Y-116198863D01*
X70492199Y-116253683D01*
X70475502Y-116526813D01*
X70426443Y-116787599D01*
X70347079Y-117032146D01*
X70239467Y-117256562D01*
X70105664Y-117456952D01*
X69947728Y-117629424D01*
X69767716Y-117770084D01*
X69657274Y-117833895D01*
X69491242Y-117898830D01*
X69304128Y-117938575D01*
X69110196Y-117951234D01*
X68923711Y-117934913D01*
X68912316Y-117932829D01*
X68739268Y-117880312D01*
X68567765Y-117791480D01*
X68404764Y-117672004D01*
X68257218Y-117527556D01*
X68132082Y-117363805D01*
X68060157Y-117237933D01*
X67988693Y-117081088D01*
X67937667Y-116936519D01*
X67904252Y-116791349D01*
X67885616Y-116632697D01*
X67879661Y-116467890D01*
X68311758Y-116467890D01*
X68312117Y-116567549D01*
X68317452Y-116649655D01*
X68328625Y-116726533D01*
X68346499Y-116810511D01*
X68349396Y-116822748D01*
X68413629Y-117024622D01*
X68501567Y-117198821D01*
X68610113Y-117343437D01*
X68736168Y-117456558D01*
X68876634Y-117536275D01*
X69028413Y-117580676D01*
X69188408Y-117587851D01*
X69353521Y-117555889D01*
X69466008Y-117511369D01*
X69608932Y-117420442D01*
X69739200Y-117292860D01*
X69853542Y-117133245D01*
X69948689Y-116946223D01*
X70021372Y-116736416D01*
X70025970Y-116719350D01*
X70051348Y-116589937D01*
X70067557Y-116436873D01*
X70074439Y-116273038D01*
X70071836Y-116111311D01*
X70059591Y-115964572D01*
X70037545Y-115845701D01*
X70036710Y-115842625D01*
X69966839Y-115650112D01*
X69870015Y-115475899D01*
X69750932Y-115326281D01*
X69614284Y-115207551D01*
X69520959Y-115151275D01*
X69452508Y-115119562D01*
X69391945Y-115100934D01*
X69323058Y-115092085D01*
X69229639Y-115089706D01*
X69219233Y-115089696D01*
X69075315Y-115099631D01*
X68952357Y-115132542D01*
X68840054Y-115193215D01*
X68728099Y-115286436D01*
X68671560Y-115344041D01*
X68549531Y-115494551D01*
X68455286Y-115657931D01*
X68386694Y-115840136D01*
X68341622Y-116047122D01*
X68317937Y-116284844D01*
X68315513Y-116338350D01*
X68311758Y-116467890D01*
X67879661Y-116467890D01*
X67878930Y-116447686D01*
X67878778Y-116412433D01*
X67879517Y-116284694D01*
X67882811Y-116187738D01*
X67889995Y-116110031D01*
X67902401Y-116040040D01*
X67921363Y-115966232D01*
X67936136Y-115916321D01*
X68028761Y-115665294D01*
X68143811Y-115441920D01*
X68278426Y-115247303D01*
X68429746Y-115082548D01*
X68594913Y-114948760D01*
X68771065Y-114847043D01*
X68955343Y-114778503D01*
X69144888Y-114744244D01*
X69336839Y-114745371D01*
G36*
X72254746Y-114732852D02*
G01*
X72428040Y-114776079D01*
X72583771Y-114851733D01*
X72729655Y-114962767D01*
X72755472Y-114986747D01*
X72876362Y-115129923D01*
X72963794Y-115294167D01*
X73014058Y-115471809D01*
X73022389Y-115538169D01*
X73016925Y-115724323D01*
X72970238Y-115918831D01*
X72882546Y-116121394D01*
X72754065Y-116331711D01*
X72585012Y-116549483D01*
X72375604Y-116774408D01*
X72126057Y-117006188D01*
X71836589Y-117244521D01*
X71732097Y-117324742D01*
X71482712Y-117513100D01*
X71859097Y-117513466D01*
X72124149Y-117517151D01*
X72348663Y-117527857D01*
X72533901Y-117545896D01*
X72681124Y-117571581D01*
X72791592Y-117605224D01*
X72866567Y-117647139D01*
X72907310Y-117697637D01*
X72915081Y-117757030D01*
X72911767Y-117774327D01*
X72888004Y-117823293D01*
X72839453Y-117864787D01*
X72759329Y-117903653D01*
X72700062Y-117925418D01*
X72667574Y-117935454D01*
X72632602Y-117943047D01*
X72590012Y-117948268D01*
X72534671Y-117951184D01*
X72461444Y-117951865D01*
X72365197Y-117950381D01*
X72240798Y-117946799D01*
X72083111Y-117941190D01*
X71939150Y-117935665D01*
X71747328Y-117928455D01*
X71591315Y-117923403D01*
X71464638Y-117920570D01*
X71360825Y-117920018D01*
X71273403Y-117921810D01*
X71195900Y-117926006D01*
X71121842Y-117932670D01*
X71044758Y-117941863D01*
X71025383Y-117944414D01*
X70905815Y-117960295D01*
X70820690Y-117970646D01*
X70762454Y-117975257D01*
X70723552Y-117973919D01*
X70696431Y-117966424D01*
X70673535Y-117952563D01*
X70649738Y-117934032D01*
X70612288Y-117896664D01*
X70598456Y-117852958D01*
X70599258Y-117801988D01*
X70602686Y-117768590D01*
X70610872Y-117740846D01*
X70628993Y-117713700D01*
X70662229Y-117682094D01*
X70715758Y-117640972D01*
X70794757Y-117585278D01*
X70884010Y-117523931D01*
X71104540Y-117369625D01*
X71296461Y-117227791D01*
X71468640Y-117091210D01*
X71629942Y-116952663D01*
X71789235Y-116804933D01*
X71898041Y-116698428D01*
X72076469Y-116512734D01*
X72222124Y-116343047D01*
X72338843Y-116184120D01*
X72430463Y-116030706D01*
X72500823Y-115877557D01*
X72503688Y-115870235D01*
X72560681Y-115687347D01*
X72581250Y-115525906D01*
X72565380Y-115385756D01*
X72513054Y-115266743D01*
X72432433Y-115175556D01*
X72306346Y-115094427D01*
X72161654Y-115047392D01*
X72003553Y-115033536D01*
X71837239Y-115051944D01*
X71667907Y-115101700D01*
X71500754Y-115181889D01*
X71340975Y-115291597D01*
X71235370Y-115386395D01*
X71111223Y-115525645D01*
X71023531Y-115661700D01*
X70968103Y-115803206D01*
X70940747Y-115958804D01*
X70937849Y-116000041D01*
X70934956Y-116094236D01*
X70939948Y-116164375D01*
X70955660Y-116228434D01*
X70984929Y-116304389D01*
X70986418Y-116307919D01*
X71017264Y-116385116D01*
X71041669Y-116453839D01*
X71053843Y-116497100D01*
X71045898Y-116557554D01*
X71006646Y-116609247D01*
X70947026Y-116640708D01*
X70912566Y-116645266D01*
X70855252Y-116632665D01*
X70802161Y-116591825D01*
X70748957Y-116518196D01*
X70696687Y-116418649D01*
X70638960Y-116249566D01*
X70619100Y-116070866D01*
X70635001Y-115886874D01*
X70684558Y-115701914D01*
X70765667Y-115520310D01*
X70876222Y-115346386D01*
X71014118Y-115184467D01*
X71177249Y-115038876D01*
X71363511Y-114913938D01*
X71452316Y-114866590D01*
X71623620Y-114791837D01*
X71783096Y-114745148D01*
X71946681Y-114722629D01*
X72056171Y-114719100D01*
X72254746Y-114732852D01*
G37*
X72254746Y-114732852D02*
X72428040Y-114776079D01*
X72583771Y-114851733D01*
X72729655Y-114962767D01*
X72755472Y-114986747D01*
X72876362Y-115129923D01*
X72963794Y-115294167D01*
X73014058Y-115471809D01*
X73022389Y-115538169D01*
X73016925Y-115724323D01*
X72970238Y-115918831D01*
X72882546Y-116121394D01*
X72754065Y-116331711D01*
X72585012Y-116549483D01*
X72375604Y-116774408D01*
X72126057Y-117006188D01*
X71836589Y-117244521D01*
X71732097Y-117324742D01*
X71482712Y-117513100D01*
X71859097Y-117513466D01*
X72124149Y-117517151D01*
X72348663Y-117527857D01*
X72533901Y-117545896D01*
X72681124Y-117571581D01*
X72791592Y-117605224D01*
X72866567Y-117647139D01*
X72907310Y-117697637D01*
X72915081Y-117757030D01*
X72911767Y-117774327D01*
X72888004Y-117823293D01*
X72839453Y-117864787D01*
X72759329Y-117903653D01*
X72700062Y-117925418D01*
X72667574Y-117935454D01*
X72632602Y-117943047D01*
X72590012Y-117948268D01*
X72534671Y-117951184D01*
X72461444Y-117951865D01*
X72365197Y-117950381D01*
X72240798Y-117946799D01*
X72083111Y-117941190D01*
X71939150Y-117935665D01*
X71747328Y-117928455D01*
X71591315Y-117923403D01*
X71464638Y-117920570D01*
X71360825Y-117920018D01*
X71273403Y-117921810D01*
X71195900Y-117926006D01*
X71121842Y-117932670D01*
X71044758Y-117941863D01*
X71025383Y-117944414D01*
X70905815Y-117960295D01*
X70820690Y-117970646D01*
X70762454Y-117975257D01*
X70723552Y-117973919D01*
X70696431Y-117966424D01*
X70673535Y-117952563D01*
X70649738Y-117934032D01*
X70612288Y-117896664D01*
X70598456Y-117852958D01*
X70599258Y-117801988D01*
X70602686Y-117768590D01*
X70610872Y-117740846D01*
X70628993Y-117713700D01*
X70662229Y-117682094D01*
X70715758Y-117640972D01*
X70794757Y-117585278D01*
X70884010Y-117523931D01*
X71104540Y-117369625D01*
X71296461Y-117227791D01*
X71468640Y-117091210D01*
X71629942Y-116952663D01*
X71789235Y-116804933D01*
X71898041Y-116698428D01*
X72076469Y-116512734D01*
X72222124Y-116343047D01*
X72338843Y-116184120D01*
X72430463Y-116030706D01*
X72500823Y-115877557D01*
X72503688Y-115870235D01*
X72560681Y-115687347D01*
X72581250Y-115525906D01*
X72565380Y-115385756D01*
X72513054Y-115266743D01*
X72432433Y-115175556D01*
X72306346Y-115094427D01*
X72161654Y-115047392D01*
X72003553Y-115033536D01*
X71837239Y-115051944D01*
X71667907Y-115101700D01*
X71500754Y-115181889D01*
X71340975Y-115291597D01*
X71235370Y-115386395D01*
X71111223Y-115525645D01*
X71023531Y-115661700D01*
X70968103Y-115803206D01*
X70940747Y-115958804D01*
X70937849Y-116000041D01*
X70934956Y-116094236D01*
X70939948Y-116164375D01*
X70955660Y-116228434D01*
X70984929Y-116304389D01*
X70986418Y-116307919D01*
X71017264Y-116385116D01*
X71041669Y-116453839D01*
X71053843Y-116497100D01*
X71045898Y-116557554D01*
X71006646Y-116609247D01*
X70947026Y-116640708D01*
X70912566Y-116645266D01*
X70855252Y-116632665D01*
X70802161Y-116591825D01*
X70748957Y-116518196D01*
X70696687Y-116418649D01*
X70638960Y-116249566D01*
X70619100Y-116070866D01*
X70635001Y-115886874D01*
X70684558Y-115701914D01*
X70765667Y-115520310D01*
X70876222Y-115346386D01*
X71014118Y-115184467D01*
X71177249Y-115038876D01*
X71363511Y-114913938D01*
X71452316Y-114866590D01*
X71623620Y-114791837D01*
X71783096Y-114745148D01*
X71946681Y-114722629D01*
X72056171Y-114719100D01*
X72254746Y-114732852D01*
G36*
X73880669Y-114786426D02*
G01*
X73924615Y-114831256D01*
X73928880Y-114840220D01*
X73946114Y-114908332D01*
X73957879Y-115016740D01*
X73964187Y-115165832D01*
X73965052Y-115355995D01*
X73960487Y-115587616D01*
X73957484Y-115682183D01*
X73948445Y-115912118D01*
X73937162Y-116147294D01*
X73923996Y-116383333D01*
X73909306Y-116615859D01*
X73893452Y-116840494D01*
X73876792Y-117052861D01*
X73859687Y-117248583D01*
X73842496Y-117423284D01*
X73825578Y-117572585D01*
X73809293Y-117692111D01*
X73794000Y-117777484D01*
X73781896Y-117820298D01*
X73732543Y-117893107D01*
X73663535Y-117930958D01*
X73580781Y-117932636D01*
X73490191Y-117896925D01*
X73470428Y-117884360D01*
X73436629Y-117860443D01*
X73409807Y-117836484D01*
X73389867Y-117808098D01*
X73376718Y-117770899D01*
X73370265Y-117720500D01*
X73370415Y-117652517D01*
X73377075Y-117562563D01*
X73390153Y-117446253D01*
X73409553Y-117299201D01*
X73435184Y-117117020D01*
X73451666Y-117001915D01*
X73476337Y-116829599D01*
X73499533Y-116666961D01*
X73520446Y-116519708D01*
X73538269Y-116393547D01*
X73552195Y-116294185D01*
X73561417Y-116227330D01*
X73564495Y-116204099D01*
X73576063Y-116112182D01*
X73491518Y-116257016D01*
X73434812Y-116351320D01*
X73391393Y-116414202D01*
X73355050Y-116451813D01*
X73319573Y-116470308D01*
X73278751Y-116475839D01*
X73270569Y-116475933D01*
X73203066Y-116457859D01*
X73153993Y-116411080D01*
X73135066Y-116346840D01*
X73143996Y-116317559D01*
X73168858Y-116256877D01*
X73206760Y-116171312D01*
X73254811Y-116067382D01*
X73310117Y-115951605D01*
X73313765Y-115944092D01*
X73431447Y-115687206D01*
X73523013Y-115453107D01*
X73591281Y-115233682D01*
X73639069Y-115020818D01*
X73643743Y-114994266D01*
X73661017Y-114912125D01*
X73681355Y-114843135D01*
X73700657Y-114800936D01*
X73702576Y-114798475D01*
X73754053Y-114767159D01*
X73818616Y-114764102D01*
X73880669Y-114786426D01*
G37*
X73880669Y-114786426D02*
X73924615Y-114831256D01*
X73928880Y-114840220D01*
X73946114Y-114908332D01*
X73957879Y-115016740D01*
X73964187Y-115165832D01*
X73965052Y-115355995D01*
X73960487Y-115587616D01*
X73957484Y-115682183D01*
X73948445Y-115912118D01*
X73937162Y-116147294D01*
X73923996Y-116383333D01*
X73909306Y-116615859D01*
X73893452Y-116840494D01*
X73876792Y-117052861D01*
X73859687Y-117248583D01*
X73842496Y-117423284D01*
X73825578Y-117572585D01*
X73809293Y-117692111D01*
X73794000Y-117777484D01*
X73781896Y-117820298D01*
X73732543Y-117893107D01*
X73663535Y-117930958D01*
X73580781Y-117932636D01*
X73490191Y-117896925D01*
X73470428Y-117884360D01*
X73436629Y-117860443D01*
X73409807Y-117836484D01*
X73389867Y-117808098D01*
X73376718Y-117770899D01*
X73370265Y-117720500D01*
X73370415Y-117652517D01*
X73377075Y-117562563D01*
X73390153Y-117446253D01*
X73409553Y-117299201D01*
X73435184Y-117117020D01*
X73451666Y-117001915D01*
X73476337Y-116829599D01*
X73499533Y-116666961D01*
X73520446Y-116519708D01*
X73538269Y-116393547D01*
X73552195Y-116294185D01*
X73561417Y-116227330D01*
X73564495Y-116204099D01*
X73576063Y-116112182D01*
X73491518Y-116257016D01*
X73434812Y-116351320D01*
X73391393Y-116414202D01*
X73355050Y-116451813D01*
X73319573Y-116470308D01*
X73278751Y-116475839D01*
X73270569Y-116475933D01*
X73203066Y-116457859D01*
X73153993Y-116411080D01*
X73135066Y-116346840D01*
X73143996Y-116317559D01*
X73168858Y-116256877D01*
X73206760Y-116171312D01*
X73254811Y-116067382D01*
X73310117Y-115951605D01*
X73313765Y-115944092D01*
X73431447Y-115687206D01*
X73523013Y-115453107D01*
X73591281Y-115233682D01*
X73639069Y-115020818D01*
X73643743Y-114994266D01*
X73661017Y-114912125D01*
X73681355Y-114843135D01*
X73700657Y-114800936D01*
X73702576Y-114798475D01*
X73754053Y-114767159D01*
X73818616Y-114764102D01*
X73880669Y-114786426D01*
D11*
X158648400Y-132588000D03*
D12*
X102590600Y-126669800D03*
X101915500Y-104267000D03*
X117652800Y-102641400D03*
X94742000Y-104887000D03*
X104876600Y-104292400D03*
D11*
X88925400Y-132588000D03*
D12*
X108585000Y-102743000D03*
X155547000Y-107696000D03*
X137696000Y-109855000D03*
X102362000Y-109855000D03*
X124241500Y-109855000D03*
X108585000Y-104993500D03*
X141196000Y-86360000D03*
X86769000Y-86360000D03*
X128895392Y-96901000D03*
X124206000Y-86360000D03*
X108646500Y-97536000D03*
X107223500Y-109855000D03*
X100380800Y-128574800D03*
X61595000Y-129540000D03*
M02*
