M48
INCH,TZ
T1C0.0157
T2C0.0315
%
G90
G05
T1
X24250Y-51000
X34161Y-34000
X37300Y-41294
X39520Y-50620
X40124Y-41050
X40300Y-43250
X40390Y-49870
X41290Y-41060
X42214Y-43250
X42750Y-40450
X42750Y-41336
X42774Y-38400
X46320Y-40410
X48900Y-34000
X48914Y-43250
X50746Y-38150
X54211Y-43250
X55589Y-34000
X61239Y-42400
T2
X35010Y-52200
X62460Y-52200
T0
M30
