G04 #@! TF.GenerationSoftware,KiCad,Pcbnew,(5.1.10)-1*
G04 #@! TF.CreationDate,2021-12-12T20:23:00-05:00*
G04 #@! TF.ProjectId,Bus Ornament,42757320-4f72-46e6-916d-656e742e6b69,rev?*
G04 #@! TF.SameCoordinates,Original*
G04 #@! TF.FileFunction,Copper,L3,Inr*
G04 #@! TF.FilePolarity,Positive*
%FSLAX46Y46*%
G04 Gerber Fmt 4.6, Leading zero omitted, Abs format (unit mm)*
G04 Created by KiCad (PCBNEW (5.1.10)-1) date 2021-12-12 20:23:00*
%MOMM*%
%LPD*%
G01*
G04 APERTURE LIST*
G04 #@! TA.AperFunction,ViaPad*
%ADD10C,1.600000*%
G04 #@! TD*
G04 #@! TA.AperFunction,ViaPad*
%ADD11C,0.800000*%
G04 #@! TD*
G04 #@! TA.AperFunction,Conductor*
%ADD12C,0.500000*%
G04 #@! TD*
G04 #@! TA.AperFunction,Conductor*
%ADD13C,0.250000*%
G04 #@! TD*
G04 APERTURE END LIST*
D10*
X158648400Y-132588000D03*
D11*
X102590600Y-126669800D03*
X101915500Y-104267000D03*
X117652800Y-102641400D03*
X94742000Y-104887000D03*
X104876600Y-104292400D03*
D10*
X88925400Y-132588000D03*
D11*
X108585000Y-102743000D03*
X155547000Y-107696000D03*
X137696000Y-109855000D03*
X102362000Y-109855000D03*
X124241500Y-109855000D03*
X108585000Y-104993500D03*
X141196000Y-86360000D03*
X86769000Y-86360000D03*
X128895392Y-96901000D03*
X124206000Y-86360000D03*
X108646500Y-97536000D03*
X107223500Y-109855000D03*
X100380800Y-128574800D03*
X61595000Y-129540000D03*
D12*
X97212990Y-108969510D02*
X101915500Y-104267000D01*
X97212990Y-121292190D02*
X97212990Y-108969510D01*
X102590600Y-126669800D02*
X97212990Y-121292190D01*
X113734010Y-118169402D02*
X105233612Y-126669800D01*
X105233612Y-126669800D02*
X102590600Y-126669800D01*
X113734010Y-110430598D02*
X117652800Y-106511808D01*
X113734010Y-118169402D02*
X113734010Y-110430598D01*
X117652800Y-106511808D02*
X117652800Y-102641400D01*
X117652800Y-102641400D02*
X117652800Y-102641400D01*
D13*
X96087001Y-103541999D02*
X94742000Y-104887000D01*
X104115499Y-103541999D02*
X96087001Y-103541999D01*
X104840500Y-104267000D02*
X104115499Y-103541999D01*
D12*
X81076800Y-132588000D02*
X88925400Y-132588000D01*
X80575990Y-132087190D02*
X81076800Y-132588000D01*
X80575990Y-110430598D02*
X80575990Y-132087190D01*
X86119588Y-104887000D02*
X80575990Y-110430598D01*
X94742000Y-104887000D02*
X86119588Y-104887000D01*
X88925400Y-132588000D02*
X88925400Y-132588000D01*
X139855000Y-107696000D02*
X155547000Y-107696000D01*
X137696000Y-109855000D02*
X139855000Y-107696000D01*
X108585000Y-104993500D02*
X108585000Y-104993500D01*
X108585000Y-102743000D02*
X108585000Y-104993500D01*
X108585000Y-104993500D02*
X103723500Y-109855000D01*
X103723500Y-109855000D02*
X102362000Y-109855000D01*
X131697588Y-86360000D02*
X141196000Y-86360000D01*
X131121990Y-86935598D02*
X131697588Y-86360000D01*
X131121990Y-94674402D02*
X131121990Y-86935598D01*
X128895392Y-96901000D02*
X128895392Y-96901000D01*
X128895392Y-96901000D02*
X131121990Y-94674402D01*
X88343800Y-84785200D02*
X86769000Y-86360000D01*
X125425200Y-84785200D02*
X88343800Y-84785200D01*
X127000000Y-86360000D02*
X125425200Y-84785200D01*
X131697588Y-86360000D02*
X127000000Y-86360000D01*
X109435001Y-98324501D02*
X108646500Y-97536000D01*
X109435001Y-107643499D02*
X109435001Y-98324501D01*
X107223500Y-109855000D02*
X109435001Y-107643499D01*
X110745412Y-97536000D02*
X108646500Y-97536000D01*
X113734010Y-94547402D02*
X110745412Y-97536000D01*
X113734010Y-87305578D02*
X113734010Y-94547402D01*
X114679588Y-86360000D02*
X113734010Y-87305578D01*
X124206000Y-86360000D02*
X114679588Y-86360000D01*
M02*
