M48
METRIC,TZ
T1C0.400
T2C0.800
%
G90
G05
T1
X61595Y-129540
X86769Y-86360
X94742Y-104887
X100381Y-128575
X101916Y-104267
X102362Y-109855
X102591Y-126670
X104877Y-104292
X107224Y-109855
X108585Y-102743
X108585Y-104993
X108647Y-97536
X117653Y-102641
X124206Y-86360
X124242Y-109855
X128895Y-96901
X137696Y-109855
X141196Y-86360
X155547Y-107696
T2
X88925Y-132588
X158648Y-132588
T0
M30
